<?xml version="1.0" encoding="UTF-8" standalone="no"?>
<svg
   xmlns:dc="http://purl.org/dc/elements/1.1/"
   xmlns:cc="http://creativecommons.org/ns#"
   xmlns:rdf="http://www.w3.org/1999/02/22-rdf-syntax-ns#"
   xmlns:svg="http://www.w3.org/2000/svg"
   xmlns="http://www.w3.org/2000/svg"
   xmlns:sodipodi="http://sodipodi.sourceforge.net/DTD/sodipodi-0.dtd"
   xmlns:inkscape="http://www.inkscape.org/namespaces/inkscape"
   width="182"
   height="865"
   viewBox="0 0 181.99999 865"
   id="svg2"
   version="1.1"
   inkscape:version="1.0.2-2 (e86c870879, 2021-01-15)"
   sodipodi:docname="Red-black_tree_delete_case_A0rot3.svg"
   inkscape:export-filename=".\Red-black_tree_insert_case_Cr.png"
   inkscape:export-xdpi="72"
   inkscape:export-ydpi="72">
  <metadata
     id="metadata286">
    <rdf:RDF>
      <cc:Work
         rdf:about="">
        <dc:format>image/svg+xml</dc:format>
        <dc:type
           rdf:resource="http://purl.org/dc/dcmitype/StillImage" />
        <dc:title></dc:title>
      </cc:Work>
    </rdf:RDF>
  </metadata>
  <defs
     id="defs284" />
  <sodipodi:namedview
     pagecolor="#ffffff"
     bordercolor="#666666"
     borderopacity="1"
     objecttolerance="10"
     gridtolerance="10"
     guidetolerance="10"
     inkscape:pageopacity="0"
     inkscape:pageshadow="2"
     inkscape:window-width="1100"
     inkscape:window-height="1006"
     id="namedview282"
     showgrid="false"
     inkscape:zoom="0.75231788"
     inkscape:cx="96.419408"
     inkscape:cy="410.35606"
     inkscape:window-x="643"
     inkscape:window-y="8"
     inkscape:window-maximized="0"
     inkscape:current-layer="layer3"
     borderlayer="true"
     fit-margin-top="0"
     fit-margin-left="0"
     fit-margin-right="0"
     fit-margin-bottom="0"
     inkscape:document-rotation="0" />
  <g
     inkscape:groupmode="layer"
     id="layer2"
     inkscape:label="corners"
     transform="translate(-39.5,-204)"
     style="display:none"
     sodipodi:insensitive="true">
    <rect
       style="color:#000000;clip-rule:nonzero;display:inline;overflow:visible;visibility:visible;opacity:1;isolation:auto;mix-blend-mode:normal;color-interpolation:sRGB;color-interpolation-filters:linearRGB;solid-color:#000000;solid-opacity:1;fill:#808080;fill-opacity:1;fill-rule:nonzero;stroke:#000000;stroke-width:4;stroke-linecap:butt;stroke-linejoin:miter;stroke-miterlimit:4;stroke-dasharray:none;stroke-dashoffset:0;stroke-opacity:1;color-rendering:auto;image-rendering:auto;shape-rendering:auto;text-rendering:auto;enable-background:accumulate"
       id="rect299"
       width="4"
       height="4"
       x="215.5"
       y="997" />
    <rect
       style="color:#000000;clip-rule:nonzero;display:inline;overflow:visible;visibility:visible;opacity:1;isolation:auto;mix-blend-mode:normal;color-interpolation:sRGB;color-interpolation-filters:linearRGB;solid-color:#000000;solid-opacity:1;fill:#808080;fill-opacity:1;fill-rule:nonzero;stroke:#000000;stroke-width:4;stroke-linecap:butt;stroke-linejoin:miter;stroke-miterlimit:4;stroke-dasharray:none;stroke-dashoffset:0;stroke-opacity:1;color-rendering:auto;image-rendering:auto;shape-rendering:auto;text-rendering:auto;enable-background:accumulate"
       id="rect297-6"
       width="4"
       height="4"
       x="41.5"
       y="206" />
  </g>
  <g
     inkscape:groupmode="layer"
     id="layer1"
     inkscape:label="all"
     transform="translate(-39.5,-204)"
     style="display:inline">
    <g
       id="g916"
       transform="matrix(-1,0,0,1,237.4856,219.5)">
      <path
         style="display:inline;fill:none;stroke:#000000;stroke-width:1;stroke-miterlimit:4;stroke-dasharray:none"
         id="path912"
         d="m 81.380054,228.41447 c 18.671456,7.62038 41.252066,16.83716 59.743196,24.38421"
         inkscape:connector-curvature="0" />
      <polygon
         style="display:inline;fill:#000000;stroke:#000000;stroke-width:0.800777;stroke-miterlimit:4;stroke-dasharray:none"
         id="polygon914"
         points="112.307,-106.35 114.941,-96.0879 106.482,-102.467 "
         transform="matrix(0.87759769,-0.57647393,0.57647395,0.87759769,95.643467,403.38569)" />
    </g>
    <g
       id="g930"
       transform="translate(38.999227,440)"
       style="display:inline">
      <path
         style="display:inline;fill:none;stroke:#000000;stroke-width:1;stroke-miterlimit:4;stroke-dasharray:none"
         id="path926"
         d="M 107.80851,-0.88200707 C 119.54663,8 133.74211,18.741273 145.36681,27.537244"
         inkscape:connector-curvature="0" />
      <polygon
         style="display:inline;fill:#000000;stroke:#000000;stroke-width:0.800777;stroke-miterlimit:4;stroke-dasharray:none"
         id="polygon928"
         points="112.307,-106.35 114.941,-96.0879 106.482,-102.467 "
         transform="matrix(0.99689671,-0.32969206,0.32969208,0.99689671,62.461926,161.22209)" />
    </g>
    <g
       style="display:inline"
       transform="translate(-41.000773,880)"
       id="g1538">
      <path
         inkscape:connector-curvature="0"
         d="M 107.80851,-0.88200707 C 119.54663,8 133.74211,18.741273 145.36681,27.537244"
         id="path1534"
         style="display:inline;fill:none;stroke:#000000;stroke-width:1;stroke-miterlimit:4;stroke-dasharray:none" />
      <polygon
         transform="matrix(0.99689671,-0.32969206,0.32969208,0.99689671,62.461926,161.22209)"
         points="114.941,-96.0879 106.482,-102.467 112.307,-106.35 "
         id="polygon1536"
         style="display:inline;fill:#000000;stroke:#000000;stroke-width:0.800777;stroke-miterlimit:4;stroke-dasharray:none" />
    </g>
    <g
       style="display:inline"
       id="g892">
      <path
         style="display:inline;fill:#0000ff;stroke:#0000ff;stroke-width:1;stroke-miterlimit:4;stroke-dasharray:none"
         id="path1037-8"
         d="m 89.082733,222.58556 c -13.161474,5.78115 -29.078482,12.77337 -42.112827,18.49889"
         inkscape:connector-curvature="0" />
      <polygon
         style="display:inline;fill:#0000ff;stroke:#0000ff;stroke-width:0.800777;stroke-miterlimit:4;stroke-dasharray:none"
         id="polygon1039-3"
         points="114.941,-96.0879 106.482,-102.467 112.307,-106.35 "
         transform="matrix(-0.88259491,-0.5687936,-0.56879362,0.88259494,93.223112,391.53461)" />
    </g>
    <g
       id="g893"
       style="display:inline"
       transform="translate(0,660)">
      <path
         inkscape:connector-curvature="0"
         d="m 89.082733,222.58556 c -13.161474,5.78115 -29.078482,12.77337 -42.112827,18.49889"
         id="path889"
         style="display:inline;fill:#0000ff;stroke:#0000ff;stroke-width:1;stroke-miterlimit:4;stroke-dasharray:none" />
      <polygon
         transform="matrix(-0.88259491,-0.5687936,-0.56879362,0.88259494,93.223112,391.53461)"
         points="112.307,-106.35 114.941,-96.0879 106.482,-102.467 "
         id="polygon891"
         style="display:inline;fill:#0000ff;stroke:#0000ff;stroke-width:0.800777;stroke-miterlimit:4;stroke-dasharray:none" />
    </g>
    <g
       id="g1271"
       transform="rotate(18,-1439.0358,383.96334)">
      <path
         style="display:inline;fill:none;stroke:#000000;stroke-width:1;stroke-miterlimit:4;stroke-dasharray:none"
         id="path1267"
         d="m 106.80774,219.11799 c 11.73812,8.88156 25.9336,19.62328 37.5583,28.41925"
         inkscape:connector-curvature="0" />
      <polygon
         style="display:inline;fill:#000000;stroke:#000000;stroke-width:0.800777;stroke-miterlimit:4;stroke-dasharray:none"
         id="polygon1269"
         points="112.307,-106.35 114.941,-96.0879 106.482,-102.467 "
         transform="matrix(0.99689671,-0.32969206,0.32969208,0.99689671,61.461147,381.22209)" />
    </g>
    <g
       transform="rotate(18,-10.010443,416.5134)"
       id="g1179">
      <path
         inkscape:connector-curvature="0"
         d="m 106.80774,219.11799 c 11.73812,8.88156 25.9336,19.62328 37.5583,28.41925"
         id="path1175"
         style="display:inline;fill:none;stroke:#000000;stroke-width:1;stroke-miterlimit:4;stroke-dasharray:none" />
      <polygon
         transform="matrix(0.99689671,-0.32969206,0.32969208,0.99689671,61.461147,381.22209)"
         points="114.941,-96.0879 106.482,-102.467 112.307,-106.35 "
         id="polygon1177"
         style="display:inline;fill:#000000;stroke:#000000;stroke-width:0.800777;stroke-miterlimit:4;stroke-dasharray:none" />
    </g>
    <g
       id="g1079">
      <path
         inkscape:connector-curvature="0"
         d="m 81.380054,228.41447 c 18.671456,7.62038 41.252066,16.83716 59.743196,24.38421"
         id="path1326"
         style="display:inline;fill:none;stroke:#000000;stroke-width:1;stroke-miterlimit:4;stroke-dasharray:none" />
      <polygon
         transform="matrix(0.87759769,-0.57647393,0.57647395,0.87759769,95.643467,403.38569)"
         points="114.941,-96.0879 106.482,-102.467 112.307,-106.35 "
         id="polygon1328"
         style="display:inline;fill:#000000;stroke:#000000;stroke-width:0.800777;stroke-miterlimit:4;stroke-dasharray:none" />
    </g>
    <g
       transform="matrix(-0.95105652,0.30901699,0.30901699,0.95105652,189.19703,23.47901)"
       id="g1073">
      <path
         inkscape:connector-curvature="0"
         d="m 106.80774,219.11799 c 11.73812,8.88156 25.9336,19.62328 37.5583,28.41925"
         id="path1069"
         style="display:inline;fill:none;stroke:#000000;stroke-width:1;stroke-miterlimit:4;stroke-dasharray:none" />
      <polygon
         transform="matrix(0.99689671,-0.32969206,0.32969208,0.99689671,61.461147,381.22209)"
         points="114.941,-96.0879 106.482,-102.467 112.307,-106.35 "
         id="polygon1071"
         style="display:inline;fill:#000000;stroke:#000000;stroke-width:0.800777;stroke-miterlimit:4;stroke-dasharray:none" />
    </g>
    <circle
       r="18"
       style="display:inline;fill:#000000;stroke:#000000;stroke-width:1"
       id="circle146"
       cy="668"
       cx="159" />
    <circle
       r="18"
       style="display:inline;fill:#000000;stroke:#000000;stroke-width:1;stroke-miterlimit:4;stroke-dasharray:none"
       id="circle1314"
       cy="320"
       cx="119" />
    <circle
       cx="159"
       cy="260"
       id="circle1324"
       style="display:inline;fill:#ff0000;stroke:#000000;stroke-width:1"
       r="18" />
    <circle
       r="18"
       cx="79"
       cy="888"
       id="circle1524"
       style="display:inline;fill:#ff0000;stroke:#000000;stroke-width:1" />
    <ellipse
       style="display:inline;opacity:1;fill:#000000;fill-opacity:1;fill-rule:evenodd;stroke:#000000;stroke-width:0;stroke-linecap:round;stroke-linejoin:round;stroke-miterlimit:4;stroke-dasharray:none;stroke-dashoffset:0;stroke-opacity:1"
       id="path4862"
       cx="78.877693"
       cy="227.87106"
       rx="18.011864"
       ry="18.011868" />
    <circle
       cx="199"
       cy="320"
       id="circle1141"
       style="display:inline;fill:#000000;stroke:#000000;stroke-width:1;stroke-miterlimit:4;stroke-dasharray:none"
       r="18" />
    <circle
       style="display:inline;fill:#ff0000;stroke:#000000;stroke-width:1"
       id="circle1173"
       cy="700"
       cx="79"
       r="18" />
    <circle
       cx="119"
       cy="760"
       id="circle1181"
       style="display:inline;fill:#000000;stroke:#000000;stroke-width:1;stroke-miterlimit:4;stroke-dasharray:none"
       r="18" />
    <circle
       r="18"
       style="display:inline;fill:#000000;stroke:#000000;stroke-width:1;stroke-miterlimit:4;stroke-dasharray:none"
       id="circle1213"
       cy="700"
       cx="199" />
    <g
       id="g1249"
       transform="translate(38.999227,660)"
       style="display:inline">
      <path
         style="display:inline;fill:none;stroke:#000000;stroke-width:1;stroke-miterlimit:4;stroke-dasharray:none"
         id="path1245"
         d="M 107.80851,-0.88200707 C 119.54663,8 133.74211,18.741273 145.36681,27.537244"
         inkscape:connector-curvature="0" />
      <polygon
         style="display:inline;fill:#000000;stroke:#000000;stroke-width:0.800777;stroke-miterlimit:4;stroke-dasharray:none"
         id="polygon1247"
         points="106.482,-102.467 112.307,-106.35 114.941,-96.0879 "
         transform="matrix(0.99689671,-0.32969206,0.32969208,0.99689671,62.461926,161.22209)" />
    </g>
    <g
       id="g1277"
       transform="matrix(-1,0,0,1,237.4856,439.5)">
      <path
         style="display:inline;fill:none;stroke:#000000;stroke-width:1;stroke-miterlimit:4;stroke-dasharray:none"
         id="path1273"
         d="m 81.380054,228.41447 c 18.671456,7.62038 41.252066,16.83716 59.743196,24.38421"
         inkscape:connector-curvature="0" />
      <polygon
         style="display:inline;fill:#000000;stroke:#000000;stroke-width:0.800777;stroke-miterlimit:4;stroke-dasharray:none"
         id="polygon1275"
         points="106.482,-102.467 112.307,-106.35 114.941,-96.0879 "
         transform="matrix(0.87759769,-0.57647393,0.57647395,0.87759769,95.643467,403.38569)" />
    </g>
    <circle
       r="18"
       style="display:inline;fill:#000000;stroke:#000000;stroke-width:1;stroke-miterlimit:4;stroke-dasharray:none;stroke-opacity:1"
       id="circle1522"
       cy="920"
       cx="119" />
    <g
       id="g902"
       transform="rotate(18,-744.52313,273.96334)">
      <path
         style="display:inline;fill:none;stroke:#000000;stroke-width:1;stroke-miterlimit:4;stroke-dasharray:none"
         id="path898"
         d="m 106.80774,219.11799 c 11.73812,8.88156 25.9336,19.62328 37.5583,28.41925"
         inkscape:connector-curvature="0" />
      <polygon
         style="display:inline;fill:#000000;stroke:#000000;stroke-width:0.800777;stroke-miterlimit:4;stroke-dasharray:none"
         id="polygon900"
         points="114.941,-96.0879 106.482,-102.467 112.307,-106.35 "
         transform="matrix(0.99689671,-0.32969206,0.32969208,0.99689671,61.461147,381.22209)" />
    </g>
    <circle
       r="18"
       style="display:inline;fill:#ff0000;stroke:#000000;stroke-width:1"
       id="circle904"
       cy="448"
       cx="159" />
    <circle
       style="display:inline;fill:#000000;stroke:#000000;stroke-width:1"
       id="circle906"
       cy="480"
       cx="79"
       r="18" />
    <circle
       cx="119"
       cy="540"
       id="circle908"
       style="display:inline;fill:#000000;stroke:#000000;stroke-width:1;stroke-miterlimit:4;stroke-dasharray:none"
       r="18" />
    <circle
       r="18"
       style="display:inline;fill:#000000;stroke:#000000;stroke-width:1;stroke-miterlimit:4;stroke-dasharray:none"
       id="circle910"
       cy="480"
       cx="199" />
  </g>
  <g
     inkscape:groupmode="layer"
     id="layer3"
     inkscape:label="text"
     style="display:inline"
     transform="translate(-40.10077,-204)">
    <g
       aria-label="P"
       id="text4278"
       style="font-style:normal;font-variant:normal;font-weight:bold;font-stretch:normal;font-size:14px;line-height:0%;font-family:Arial;-inkscape-font-specification:'Arial Bold';text-anchor:middle;display:inline;fill:#ffffff;stroke-width:1">
      <path
         d="m 75.949623,704.42053 v -10.02148 h 3.24707 q 1.845704,0 2.40625,0.15039 0.861329,0.22558 1.442383,0.98437 0.581055,0.75196 0.581055,1.94825 0,0.92285 -0.334961,1.55175 -0.334961,0.62891 -0.854492,0.99121 -0.512696,0.35547 -1.045899,0.47168 -0.724609,0.14356 -2.098632,0.14356 h -1.319336 v 3.78027 z m 2.023438,-8.32617 v 2.84375 h 1.107421 q 1.19629,0 1.59961,-0.15723 0.40332,-0.15722 0.628906,-0.49218 0.232422,-0.33496 0.232422,-0.7793 0,-0.54688 -0.321289,-0.90234 -0.321289,-0.35547 -0.813477,-0.44434 -0.362304,-0.0684 -1.456054,-0.0684 z"
         style="font-style:normal;font-variant:normal;font-weight:bold;font-stretch:normal;font-size:14px;line-height:0%;font-family:Arial;-inkscape-font-specification:'Arial Bold';text-anchor:middle;display:inline;fill:#ffffff;stroke-width:1"
         id="path991" />
    </g>
    <g
       aria-label="S"
       id="text148"
       style="font-style:normal;font-variant:normal;font-weight:bold;font-stretch:normal;font-size:14px;line-height:0%;font-family:Arial;-inkscape-font-specification:'Arial Bold';text-anchor:middle;display:inline;fill:#ffffff;stroke-width:1">
      <path
         d="m 155.15137,668.37354 1.96875,-0.19141 q 0.17773,0.99121 0.71777,1.45605 0.54688,0.46485 1.46973,0.46485 0.97754,0 1.46972,-0.41016 0.49903,-0.41699 0.49903,-0.9707 0,-0.35547 -0.21192,-0.60156 -0.20508,-0.25293 -0.72461,-0.4375 -0.35547,-0.12305 -1.62011,-0.4375 -1.62696,-0.40332 -2.28321,-0.99122 -0.92285,-0.82714 -0.92285,-2.0166 0,-0.76562 0.43067,-1.42871 0.4375,-0.66992 1.25097,-1.01855 0.82031,-0.34864 1.97559,-0.34864 1.88672,0 2.83691,0.82715 0.95703,0.82715 1.00489,2.20801 l -2.02344,0.0889 q -0.12989,-0.77246 -0.56055,-1.10742 -0.42383,-0.3418 -1.27832,-0.3418 -0.88184,0 -1.38086,0.3623 -0.32129,0.23243 -0.32129,0.62207 0,0.35547 0.30078,0.6084 0.38282,0.32129 1.85938,0.66992 1.47656,0.34864 2.18066,0.72461 0.71094,0.36914 1.10742,1.01856 0.40332,0.64258 0.40332,1.59277 0,0.86133 -0.47851,1.61328 -0.47852,0.75196 -1.35352,1.1211 -0.875,0.3623 -2.18066,0.3623 -1.90039,0 -2.91895,-0.875 -1.01855,-0.88183 -1.21679,-2.56347 z"
         style="font-style:normal;font-variant:normal;font-weight:bold;font-stretch:normal;font-size:14px;line-height:0%;font-family:Arial;-inkscape-font-specification:'Arial Bold';text-anchor:middle;display:inline;fill:#ffffff;stroke-width:1"
         id="path988" />
    </g>
    <g
       aria-label="C"
       id="text1338"
       style="font-style:normal;font-variant:normal;font-weight:bold;font-stretch:normal;font-size:14px;line-height:0%;font-family:Arial;-inkscape-font-specification:'Arial Bold';text-anchor:middle;display:inline;fill:#ffffff;stroke-width:1">
      <path
         d="m 122.01064,320.32541 1.96191,0.62207 q -0.45117,1.64062 -1.50391,2.44043 -1.0459,0.79297 -2.65918,0.79297 -1.99609,0 -3.28125,-1.36035 -1.28515,-1.36719 -1.28515,-3.73243 0,-2.50195 1.29199,-3.88281 1.29199,-1.38769 3.39746,-1.38769 1.83887,0 2.98731,1.08691 0.68359,0.64258 1.02539,1.8457 l -2.00293,0.47852 q -0.17774,-0.7793 -0.74512,-1.23047 -0.56055,-0.45117 -1.36719,-0.45117 -1.11426,0 -1.81152,0.7998 -0.69043,0.79981 -0.69043,2.59082 0,1.90039 0.68359,2.70703 0.6836,0.80665 1.77735,0.80665 0.80664,0 1.38769,-0.5127 0.58106,-0.5127 0.83399,-1.61328 z"
         style="font-style:normal;font-variant:normal;font-weight:bold;font-stretch:normal;font-size:14px;line-height:0%;font-family:Arial;-inkscape-font-specification:'Arial Bold';text-anchor:middle;display:inline;fill:#ffffff;stroke-width:1"
         id="path985" />
    </g>
    <g
       aria-label="P"
       id="text1342"
       style="font-style:normal;font-variant:normal;font-weight:bold;font-stretch:normal;font-size:14px;line-height:0%;font-family:Arial;-inkscape-font-specification:'Arial Bold';text-anchor:middle;display:inline;fill:#ffffff;stroke-width:1">
      <path
         d="m 75.949623,232.4205 v -10.02148 h 3.24707 q 1.845704,0 2.40625,0.15039 0.861329,0.22558 1.442383,0.98437 0.581055,0.75196 0.581055,1.94825 0,0.92285 -0.334961,1.55175 -0.334961,0.62891 -0.854492,0.99121 -0.512696,0.35547 -1.045899,0.47168 -0.724609,0.14356 -2.098632,0.14356 h -1.319336 v 3.78027 z m 2.023438,-8.32617 v 2.84375 h 1.107421 q 1.19629,0 1.59961,-0.15723 0.40332,-0.15722 0.628906,-0.49218 0.232422,-0.33497 0.232422,-0.7793 0,-0.54688 -0.321289,-0.90234 -0.321289,-0.35547 -0.813477,-0.44434 -0.362304,-0.0684 -1.456054,-0.0684 z"
         style="font-style:normal;font-variant:normal;font-weight:bold;font-stretch:normal;font-size:14px;line-height:0%;font-family:Arial;-inkscape-font-specification:'Arial Bold';text-anchor:middle;display:inline;fill:#ffffff;stroke-width:1"
         id="path982" />
    </g>
    <g
       aria-label="S"
       id="text1344"
       style="font-style:normal;font-variant:normal;font-weight:bold;font-stretch:normal;font-size:14px;line-height:0%;font-family:Arial;-inkscape-font-specification:'Arial Bold';text-anchor:middle;display:inline;fill:#ffffff;stroke-width:1">
      <path
         d="m 155.15137,260.37354 1.96875,-0.19141 q 0.17773,0.99121 0.71777,1.45605 0.54688,0.46485 1.46973,0.46485 0.97754,0 1.46972,-0.41016 0.49903,-0.41699 0.49903,-0.9707 0,-0.35547 -0.21192,-0.60156 -0.20508,-0.25293 -0.72461,-0.4375 -0.35547,-0.12305 -1.62011,-0.4375 -1.62696,-0.40332 -2.28321,-0.99122 -0.92285,-0.82714 -0.92285,-2.0166 0,-0.76562 0.43067,-1.42871 0.4375,-0.66992 1.25097,-1.01855 0.82031,-0.34864 1.97559,-0.34864 1.88672,0 2.83691,0.82715 0.95703,0.82715 1.00489,2.20801 l -2.02344,0.0889 q -0.12989,-0.77246 -0.56055,-1.10742 -0.42383,-0.3418 -1.27832,-0.3418 -0.88184,0 -1.38086,0.3623 -0.32129,0.23243 -0.32129,0.62207 0,0.35547 0.30078,0.6084 0.38282,0.32129 1.85938,0.66992 1.47656,0.34864 2.18066,0.72461 0.71094,0.36914 1.10742,1.01856 0.40332,0.64258 0.40332,1.59277 0,0.86133 -0.47851,1.61328 -0.47852,0.75196 -1.35352,1.1211 -0.875,0.3623 -2.18066,0.3623 -1.90039,0 -2.91895,-0.875 -1.01855,-0.88183 -1.21679,-2.56347 z"
         style="font-style:normal;font-variant:normal;font-weight:bold;font-stretch:normal;font-size:14px;line-height:0%;font-family:Arial;-inkscape-font-specification:'Arial Bold';text-anchor:middle;display:inline;fill:#ffffff;stroke-width:1"
         id="path979" />
    </g>
    <g
       aria-label="P"
       id="text1552"
       style="font-style:normal;font-variant:normal;font-weight:bold;font-stretch:normal;font-size:14px;line-height:0%;font-family:Arial;-inkscape-font-specification:'Arial Bold';text-anchor:middle;display:inline;fill:#ffffff;stroke-width:1">
      <path
         d="m 75.949623,892.42053 v -10.02148 h 3.24707 q 1.845704,0 2.40625,0.15039 0.861329,0.22558 1.442383,0.98437 0.581055,0.75196 0.581055,1.94825 0,0.92285 -0.334961,1.55175 -0.334961,0.62891 -0.854492,0.99121 -0.512696,0.35547 -1.045899,0.47168 -0.724609,0.14356 -2.098632,0.14356 h -1.319336 v 3.78027 z m 2.023438,-8.32617 v 2.84375 h 1.107421 q 1.19629,0 1.59961,-0.15723 0.40332,-0.15722 0.628906,-0.49218 0.232422,-0.33496 0.232422,-0.7793 0,-0.54688 -0.321289,-0.90234 -0.321289,-0.35547 -0.813477,-0.44434 -0.362304,-0.0684 -1.456054,-0.0684 z"
         style="font-style:normal;font-variant:normal;font-weight:bold;font-stretch:normal;font-size:14px;line-height:0%;font-family:Arial;-inkscape-font-specification:'Arial Bold';text-anchor:middle;display:inline;fill:#ffffff;stroke-width:1"
         id="path976" />
    </g>
    <g
       aria-label="D"
       id="text1167"
       style="font-style:normal;font-variant:normal;font-weight:bold;font-stretch:normal;font-size:14px;line-height:0%;font-family:Arial;-inkscape-font-specification:'Arial Bold';text-anchor:middle;display:inline;fill:#ffffff;stroke-width:1">
      <path
         d="m 195.59169,313.98849 h 3.69824 q 1.25098,0 1.90723,0.19141 0.88183,0.25977 1.51074,0.92285 0.62891,0.66309 0.95703,1.62696 0.32813,0.95703 0.32813,2.36523 0,1.2373 -0.30762,2.13281 -0.37598,1.09375 -1.07324,1.77051 -0.52637,0.5127 -1.42188,0.79981 -0.66992,0.21191 -1.79101,0.21191 h -3.80762 z m 2.02344,1.69532 v 6.63769 h 1.51074 q 0.84766,0 1.22363,-0.0957 0.49219,-0.12305 0.81348,-0.41699 0.32812,-0.29395 0.5332,-0.96387 0.20508,-0.67676 0.20508,-1.83887 0,-1.16211 -0.20508,-1.78418 -0.20508,-0.62207 -0.57422,-0.9707 -0.36914,-0.34863 -0.93652,-0.47168 -0.42383,-0.0957 -1.66113,-0.0957 z"
         style="font-style:normal;font-variant:normal;font-weight:bold;font-stretch:normal;font-size:14px;line-height:0%;font-family:Arial;-inkscape-font-specification:'Arial Bold';text-anchor:middle;display:inline;fill:#ffffff;stroke-width:1"
         id="path973" />
    </g>
    <g
       aria-label="C"
       id="text1207"
       style="font-style:normal;font-variant:normal;font-weight:bold;font-stretch:normal;font-size:14px;line-height:0%;font-family:Arial;-inkscape-font-specification:'Arial Bold';text-anchor:middle;display:inline;fill:#ffffff;stroke-width:1">
      <path
         d="m 122.01064,760.32544 1.96191,0.62207 q -0.45117,1.64062 -1.50391,2.44043 -1.0459,0.79297 -2.65918,0.79297 -1.99609,0 -3.28125,-1.36035 -1.28515,-1.36719 -1.28515,-3.73243 0,-2.50195 1.29199,-3.88281 1.29199,-1.38769 3.39746,-1.38769 1.83887,0 2.98731,1.08691 0.68359,0.64258 1.02539,1.8457 l -2.00293,0.47852 q -0.17774,-0.7793 -0.74512,-1.23047 -0.56055,-0.45117 -1.36719,-0.45117 -1.11426,0 -1.81152,0.7998 -0.69043,0.79981 -0.69043,2.59082 0,1.90039 0.68359,2.70704 0.6836,0.80664 1.77735,0.80664 0.80664,0 1.38769,-0.5127 0.58106,-0.51269 0.83399,-1.61328 z"
         style="font-style:normal;font-variant:normal;font-weight:bold;font-stretch:normal;font-size:14px;line-height:0%;font-family:Arial;-inkscape-font-specification:'Arial Bold';text-anchor:middle;display:inline;fill:#ffffff;stroke-width:1"
         id="path970" />
    </g>
    <g
       aria-label="D"
       id="text1239"
       style="font-style:normal;font-variant:normal;font-weight:bold;font-stretch:normal;font-size:14px;line-height:0%;font-family:Arial;-inkscape-font-specification:'Arial Bold';text-anchor:middle;display:inline;fill:#ffffff;stroke-width:1">
      <path
         d="m 195.59169,693.98853 h 3.69824 q 1.25098,0 1.90723,0.1914 0.88183,0.25977 1.51074,0.92285 0.62891,0.66309 0.95703,1.62696 0.32813,0.95703 0.32813,2.36523 0,1.23731 -0.30762,2.13281 -0.37598,1.09375 -1.07324,1.77051 -0.52637,0.5127 -1.42188,0.79981 -0.66992,0.21191 -1.79101,0.21191 h -3.80762 z m 2.02344,1.69531 v 6.63769 h 1.51074 q 0.84766,0 1.22363,-0.0957 0.49219,-0.12305 0.81348,-0.41699 0.32812,-0.29395 0.5332,-0.96387 0.20508,-0.67676 0.20508,-1.83887 0,-1.16211 -0.20508,-1.78418 -0.20508,-0.62207 -0.57422,-0.9707 -0.36914,-0.34863 -0.93652,-0.47168 -0.42383,-0.0957 -1.66113,-0.0957 z"
         style="font-style:normal;font-variant:normal;font-weight:bold;font-stretch:normal;font-size:14px;line-height:0%;font-family:Arial;-inkscape-font-specification:'Arial Bold';text-anchor:middle;display:inline;fill:#ffffff;stroke-width:1"
         id="path967" />
    </g>
    <g
       aria-label="P"
       id="text918"
       style="font-style:normal;font-variant:normal;font-weight:bold;font-stretch:normal;font-size:14px;line-height:0%;font-family:Arial;-inkscape-font-specification:'Arial Bold';text-anchor:middle;display:inline;fill:#ffffff;stroke-width:1">
      <path
         d="m 75.949623,484.42053 v -10.02148 h 3.24707 q 1.845704,0 2.40625,0.15039 0.861329,0.22558 1.442383,0.98437 0.581055,0.75196 0.581055,1.94825 0,0.92285 -0.334961,1.55175 -0.334961,0.62891 -0.854492,0.99121 -0.512696,0.35547 -1.045899,0.47168 -0.724609,0.14356 -2.098632,0.14356 h -1.319336 v 3.78027 z m 2.023438,-8.32617 v 2.84375 h 1.107421 q 1.19629,0 1.59961,-0.15723 0.40332,-0.15722 0.628906,-0.49218 0.232422,-0.33496 0.232422,-0.7793 0,-0.54688 -0.321289,-0.90234 -0.321289,-0.35547 -0.813477,-0.44434 -0.362304,-0.0684 -1.456054,-0.0684 z"
         style="font-style:normal;font-variant:normal;font-weight:bold;font-stretch:normal;font-size:14px;line-height:0%;font-family:Arial;-inkscape-font-specification:'Arial Bold';text-anchor:middle;display:inline;fill:#ffffff;stroke-width:1"
         id="path964" />
    </g>
    <g
       aria-label="S"
       id="text920"
       style="font-style:normal;font-variant:normal;font-weight:bold;font-stretch:normal;font-size:14px;line-height:0%;font-family:Arial;-inkscape-font-specification:'Arial Bold';text-anchor:middle;display:inline;fill:#ffffff;stroke-width:1">
      <path
         d="m 155.15137,448.37354 1.96875,-0.19141 q 0.17773,0.99121 0.71777,1.45605 0.54688,0.46485 1.46973,0.46485 0.97754,0 1.46972,-0.41016 0.49903,-0.41699 0.49903,-0.9707 0,-0.35547 -0.21192,-0.60156 -0.20508,-0.25293 -0.72461,-0.4375 -0.35547,-0.12305 -1.62011,-0.4375 -1.62696,-0.40332 -2.28321,-0.99122 -0.92285,-0.82714 -0.92285,-2.0166 0,-0.76562 0.43067,-1.42871 0.4375,-0.66992 1.25097,-1.01855 0.82031,-0.34864 1.97559,-0.34864 1.88672,0 2.83691,0.82715 0.95703,0.82715 1.00489,2.20801 l -2.02344,0.0889 q -0.12989,-0.77246 -0.56055,-1.10742 -0.42383,-0.3418 -1.27832,-0.3418 -0.88184,0 -1.38086,0.3623 -0.32129,0.23243 -0.32129,0.62207 0,0.35547 0.30078,0.6084 0.38282,0.32129 1.85938,0.66992 1.47656,0.34864 2.18066,0.72461 0.71094,0.36914 1.10742,1.01856 0.40332,0.64258 0.40332,1.59277 0,0.86133 -0.47851,1.61328 -0.47852,0.75196 -1.35352,1.1211 -0.875,0.3623 -2.18066,0.3623 -1.90039,0 -2.91895,-0.875 -1.01855,-0.88183 -1.21679,-2.56347 z"
         style="font-style:normal;font-variant:normal;font-weight:bold;font-stretch:normal;font-size:14px;line-height:0%;font-family:Arial;-inkscape-font-specification:'Arial Bold';text-anchor:middle;display:inline;fill:#ffffff;stroke-width:1"
         id="path961" />
    </g>
    <g
       aria-label="C"
       id="text922"
       style="font-style:normal;font-variant:normal;font-weight:bold;font-stretch:normal;font-size:14px;line-height:0%;font-family:Arial;-inkscape-font-specification:'Arial Bold';text-anchor:middle;display:inline;fill:#ffffff;stroke-width:1">
      <path
         d="m 122.01064,540.32544 1.96191,0.62207 q -0.45117,1.64062 -1.50391,2.44043 -1.0459,0.79297 -2.65918,0.79297 -1.99609,0 -3.28125,-1.36035 -1.28515,-1.36719 -1.28515,-3.73243 0,-2.50195 1.29199,-3.88281 1.29199,-1.38769 3.39746,-1.38769 1.83887,0 2.98731,1.08691 0.68359,0.64258 1.02539,1.8457 l -2.00293,0.47852 q -0.17774,-0.7793 -0.74512,-1.23047 -0.56055,-0.45117 -1.36719,-0.45117 -1.11426,0 -1.81152,0.7998 -0.69043,0.79981 -0.69043,2.59082 0,1.90039 0.68359,2.70704 0.6836,0.80664 1.77735,0.80664 0.80664,0 1.38769,-0.5127 0.58106,-0.51269 0.83399,-1.61328 z"
         style="font-style:normal;font-variant:normal;font-weight:bold;font-stretch:normal;font-size:14px;line-height:0%;font-family:Arial;-inkscape-font-specification:'Arial Bold';text-anchor:middle;display:inline;fill:#ffffff;stroke-width:1"
         id="path958" />
    </g>
    <g
       aria-label="D"
       id="text924"
       style="font-style:normal;font-variant:normal;font-weight:bold;font-stretch:normal;font-size:14px;line-height:0%;font-family:Arial;-inkscape-font-specification:'Arial Bold';text-anchor:middle;display:inline;fill:#ffffff;stroke-width:1">
      <path
         d="m 195.59169,473.98853 h 3.69824 q 1.25098,0 1.90723,0.1914 0.88183,0.25977 1.51074,0.92285 0.62891,0.66309 0.95703,1.62696 0.32813,0.95703 0.32813,2.36523 0,1.23731 -0.30762,2.13281 -0.37598,1.09375 -1.07324,1.77051 -0.52637,0.5127 -1.42188,0.79981 -0.66992,0.21191 -1.79101,0.21191 h -3.80762 z m 2.02344,1.69531 v 6.63769 h 1.51074 q 0.84766,0 1.22363,-0.0957 0.49219,-0.12305 0.81348,-0.41699 0.32812,-0.29395 0.5332,-0.96387 0.20508,-0.67676 0.20508,-1.83887 0,-1.16211 -0.20508,-1.78418 -0.20508,-0.62207 -0.57422,-0.9707 -0.36914,-0.34863 -0.93652,-0.47168 -0.42383,-0.0957 -1.66113,-0.0957 z"
         style="font-style:normal;font-variant:normal;font-weight:bold;font-stretch:normal;font-size:14px;line-height:0%;font-family:Arial;-inkscape-font-specification:'Arial Bold';text-anchor:middle;display:inline;fill:#ffffff;stroke-width:1"
         id="path955" />
    </g>
    <g
       aria-label="S"
       id="text1548"
       style="font-style:normal;font-variant:normal;font-weight:bold;font-stretch:normal;font-size:14px;line-height:0%;font-family:Arial;-inkscape-font-specification:'Arial Bold';text-anchor:middle;display:inline;fill:#ffffff;stroke-width:1">
      <path
         d="m 115.47206,920.74927 1.96875,-0.19141 q 0.17774,0.99121 0.71777,1.45606 0.54688,0.46484 1.46973,0.46484 0.97754,0 1.46973,-0.41016 0.49902,-0.41699 0.49902,-0.9707 0,-0.35547 -0.21191,-0.60156 -0.20508,-0.25293 -0.72461,-0.4375 -0.35547,-0.12305 -1.62012,-0.4375 -1.62695,-0.40332 -2.2832,-0.99121 -0.92285,-0.82715 -0.92285,-2.0166 0,-0.76563 0.43066,-1.42872 0.4375,-0.66992 1.25098,-1.01855 0.82031,-0.34863 1.97558,-0.34863 1.88672,0 2.83692,0.82715 0.95703,0.82714 1.00488,2.208 l -2.02344,0.0889 q -0.12988,-0.77246 -0.56055,-1.10742 -0.42382,-0.3418 -1.27832,-0.3418 -0.88183,0 -1.38085,0.36231 -0.32129,0.23242 -0.32129,0.62207 0,0.35547 0.30078,0.6084 0.38281,0.32128 1.85937,0.66992 1.47656,0.34863 2.18067,0.72461 0.71093,0.36914 1.10742,1.01855 0.40332,0.64258 0.40332,1.59277 0,0.86133 -0.47852,1.61329 -0.47851,0.75195 -1.35351,1.12109 -0.875,0.3623 -2.18067,0.3623 -1.90039,0 -2.91894,-0.875 -1.01856,-0.88183 -1.2168,-2.56347 z"
         style="font-style:normal;font-variant:normal;font-weight:bold;font-stretch:normal;font-size:14px;line-height:0%;font-family:Arial;-inkscape-font-specification:'Arial Bold';text-anchor:middle;display:inline;fill:#ffffff;stroke-width:1"
         id="path952" />
    </g>
  </g>
</svg>
