<?xml version="1.0" encoding="UTF-8" standalone="no"?>
<!-- Generated by graphviz version 2.36.0 (20140111.2315)
 -->

<!-- Title: G Pages: 1 -->

<svg
   xmlns:dc="http://purl.org/dc/elements/1.1/"
   xmlns:cc="http://creativecommons.org/ns#"
   xmlns:rdf="http://www.w3.org/1999/02/22-rdf-syntax-ns#"
   xmlns:svg="http://www.w3.org/2000/svg"
   xmlns="http://www.w3.org/2000/svg"
   xmlns:sodipodi="http://sodipodi.sourceforge.net/DTD/sodipodi-0.dtd"
   xmlns:inkscape="http://www.inkscape.org/namespaces/inkscape"
   width="193.75562"
   height="639"
   viewBox="0 0 193.75561 639"
   id="svg2"
   version="1.1"
   inkscape:version="0.92.4 (5da689c313, 2019-01-14)"
   sodipodi:docname="Red-black_tree_insert_case_C1.svg"
   inkscape:export-filename=".\Red-black_tree_insert_case_Cr.png"
   inkscape:export-xdpi="72"
   inkscape:export-ydpi="72">
  <metadata
     id="metadata286">
    <rdf:RDF>
      <cc:Work
         rdf:about="">
        <dc:format>image/svg+xml</dc:format>
        <dc:type
           rdf:resource="http://purl.org/dc/dcmitype/StillImage" />
        <dc:title></dc:title>
      </cc:Work>
    </rdf:RDF>
  </metadata>
  <defs
     id="defs284" />
  <sodipodi:namedview
     pagecolor="#ffffff"
     bordercolor="#666666"
     borderopacity="1"
     objecttolerance="10"
     gridtolerance="10"
     guidetolerance="10"
     inkscape:pageopacity="0"
     inkscape:pageshadow="2"
     inkscape:window-width="1315"
     inkscape:window-height="1000"
     id="namedview282"
     showgrid="false"
     inkscape:zoom="1"
     inkscape:cx="37.01123"
     inkscape:cy="301.54393"
     inkscape:window-x="26"
     inkscape:window-y="1"
     inkscape:window-maximized="0"
     inkscape:current-layer="layer1"
     borderlayer="true"
     fit-margin-top="0"
     fit-margin-left="0"
     fit-margin-right="0"
     fit-margin-bottom="0" />
  <g
     inkscape:groupmode="layer"
     id="layer2"
     inkscape:label="corners"
     transform="translate(-2,-204)"
     style="display:none"
     sodipodi:insensitive="true">
    <rect
       style="color:#000000;clip-rule:nonzero;display:inline;overflow:visible;visibility:visible;opacity:1;isolation:auto;mix-blend-mode:normal;color-interpolation:sRGB;color-interpolation-filters:linearRGB;solid-color:#000000;solid-opacity:1;fill:#808080;fill-opacity:1;fill-rule:nonzero;stroke:#000000;stroke-width:4;stroke-linecap:butt;stroke-linejoin:miter;stroke-miterlimit:4;stroke-dasharray:none;stroke-dashoffset:0;stroke-opacity:1;color-rendering:auto;image-rendering:auto;shape-rendering:auto;text-rendering:auto;enable-background:accumulate"
       id="rect297"
       width="4"
       height="4"
       x="4"
       y="206" />
    <rect
       style="color:#000000;clip-rule:nonzero;display:inline;overflow:visible;visibility:visible;opacity:1;isolation:auto;mix-blend-mode:normal;color-interpolation:sRGB;color-interpolation-filters:linearRGB;solid-color:#000000;solid-opacity:1;fill:#808080;fill-opacity:1;fill-rule:nonzero;stroke:#000000;stroke-width:4;stroke-linecap:butt;stroke-linejoin:miter;stroke-miterlimit:4;stroke-dasharray:none;stroke-dashoffset:0;stroke-opacity:1;color-rendering:auto;image-rendering:auto;shape-rendering:auto;text-rendering:auto;enable-background:accumulate"
       id="rect299"
       width="4"
       height="4"
       x="189.75562"
       y="837" />
  </g>
  <g
     inkscape:groupmode="layer"
     id="layer1"
     inkscape:label="all"
     transform="translate(-2,-204)"
     style="display:inline"
     sodipodi:insensitive="true">
    <g
       style="display:inline"
       class="edge"
       id="g1380"
       transform="rotate(13,-2688.7617,173.1543)">
      <title
         id="title1374">N1-&gt;dot2</title>
      <path
         style="fill:none;stroke:#000000"
         id="path1376"
         d="m 57.028,-74.958 c 5.0907,7.6361 11.2475,16.8712 16.2887,24.4331"
         inkscape:connector-curvature="0" />
      <polygon
         style="fill:#000000;stroke:#000000"
         id="polygon1378"
         points="76.3065,-52.3499 78.9414,-42.0879 70.4822,-48.4669 " />
    </g>
    <g
       transform="matrix(-0.97436995,0.22495101,0.22495102,0.97436995,108.01948,609.27763)"
       id="g427"
       class="edge"
       style="display:inline">
      <title
         id="title421">N1-&gt;dot2</title>
      <path
         inkscape:connector-curvature="0"
         d="m 57.028,-74.958 c 5.0907,7.6361 11.2475,16.8712 16.2887,24.4331"
         id="path423"
         style="fill:none;stroke:#000000" />
      <polygon
         points="78.9414,-42.0879 70.4822,-48.4669 76.3065,-52.3499 "
         id="polygon425"
         style="fill:#000000;stroke:#000000" />
    </g>
    <g
       transform="rotate(13,-2405.5923,317.48533)"
       id="g244"
       class="edge"
       style="display:inline">
      <title
         id="title238">N1-&gt;dot2</title>
      <path
         inkscape:connector-curvature="0"
         d="m 57.028,-74.958 c 5.0907,7.6361 11.2475,16.8712 16.2887,24.4331"
         id="path240"
         style="fill:none;stroke:#000000" />
      <polygon
         points="78.9414,-42.0879 70.4822,-48.4669 76.3065,-52.3499 "
         id="polygon242"
         style="fill:#000000;stroke:#000000" />
    </g>
    <g
       style="display:inline"
       id="g1384"
       transform="matrix(-1,0,0,1,117.28899,440)">
      <path
         style="fill:none;stroke:#000000;stroke-width:1;stroke-miterlimit:4;stroke-dasharray:none"
         id="path54-5-1"
         d="m 43.497522,44.743112 c 5.861222,9.138754 12.480648,19.461016 18.899576,29.469483"
         inkscape:connector-curvature="0" />
      <polygon
         transform="matrix(-1,0,0,1,125.59796,188.20385)"
         style="fill:#000000;stroke:#000000"
         id="polygon56-7-6"
         points="59.8592,-115.599 65.6836,-111.716 57.2244,-105.337 " />
    </g>
    <circle
       cx="39"
       cy="540"
       id="ellipse19-6-9"
       style="display:inline;fill:#ff0000;stroke:#000000;stroke-width:1"
       r="18" />
    <polygon
       points="11,0 0,-27 -11,0 "
       id="polygon128-6"
       style="display:inline;fill:none;stroke:#000000"
       transform="matrix(-1,0,0,1,59,618)" />
    <circle
       cx="79"
       cy="480"
       id="ellipse47-2-6"
       style="display:inline;fill:#ff0000;stroke:#000000;stroke-width:1;stroke-miterlimit:4;stroke-dasharray:none;stroke-opacity:1"
       r="18" />
    <circle
       style="display:inline;fill:#000000;stroke:#000000;stroke-width:1"
       id="circle4258"
       cy="448"
       cx="119"
       r="18" />
    <g
       style="display:inline"
       id="g1390"
       transform="translate(-1.0007733,440)">
      <path
         inkscape:connector-curvature="0"
         d="M 132.56366,0.63442987 C 121.03999,9.2280991 107.10384,19.621657 95.691526,28.132522"
         id="path4282"
         style="display:inline;fill:none;stroke:#000000;stroke-width:1;stroke-miterlimit:4;stroke-dasharray:none" />
      <polygon
         transform="matrix(-0.99689673,-0.32969206,-0.32969208,0.99689676,178.43491,162.37554)"
         points="114.941,-96.0879 106.482,-102.467 112.307,-106.35 "
         id="polygon4284"
         style="display:inline;fill:#000000;stroke:#000000;stroke-width:0.80077672;stroke-miterlimit:4;stroke-dasharray:none" />
    </g>
    <circle
       r="18"
       style="display:inline;fill:#000000;stroke:#000000;stroke-width:1"
       id="circle146"
       cy="480"
       cx="159" />
    <g
       style="display:inline"
       id="g1486"
       transform="translate(-1.0007733,440)">
      <path
         style="display:inline;fill:none;stroke:#000000;stroke-width:1;stroke-miterlimit:4;stroke-dasharray:none"
         id="path150"
         d="M 107.80851,-0.88200707 C 119.54663,8 133.74211,18.741273 145.36681,27.537244"
         inkscape:connector-curvature="0" />
      <polygon
         style="display:inline;fill:#000000;stroke:#000000;stroke-width:0.80077672;stroke-miterlimit:4;stroke-dasharray:none"
         id="polygon152"
         points="114.941,-96.0879 106.482,-102.467 112.307,-106.35 "
         transform="matrix(1,-0.32969206,0.32969208,1,62.461926,161.22209)" />
    </g>
    <circle
       r="7"
       style="display:inline;fill:#000000;stroke:#000000;stroke-width:1.00005352"
       id="ellipse3797"
       cy="594"
       cx="59" />
    <polygon
       transform="matrix(-1,0,0,1,99,558)"
       style="display:inline;fill:none;stroke:#000000"
       id="polygon232"
       points="-11,0 11,0 0,-27 " />
    <circle
       cx="99"
       cy="534"
       id="circle234"
       style="display:inline;fill:#000000;stroke:#000000;stroke-width:1.00005352"
       r="7" />
    <polygon
       transform="matrix(-1,0,0,1,19,618)"
       style="display:inline;fill:none;stroke:#000000"
       id="polygon429"
       points="-11,0 11,0 0,-27 " />
    <circle
       cx="19"
       cy="594"
       id="circle431"
       style="display:inline;fill:#000000;stroke:#000000;stroke-width:1"
       r="7" />
    <g
       transform="matrix(-0.97436995,0.22495101,0.22495102,0.97436995,225.86948,552.02763)"
       id="g441"
       class="edge"
       style="display:inline">
      <title
         id="title435">N1-&gt;dot2</title>
      <path
         inkscape:connector-curvature="0"
         d="m 57.028,-74.958 c 5.0907,7.6361 11.2475,16.8712 16.2887,24.4331"
         id="path437"
         style="fill:none;stroke:#000000" />
      <polygon
         points="76.3065,-52.3499 78.9414,-42.0879 70.4822,-48.4669 "
         id="polygon439"
         style="fill:#000000;stroke:#000000" />
    </g>
    <polygon
       transform="matrix(-1,0,0,1,139,558)"
       style="display:inline;fill:none;stroke:#000000"
       id="polygon451"
       points="-11,0 11,0 0,-27 " />
    <polygon
       points="11,0 0,-27 -11,0 "
       id="polygon453"
       style="display:inline;fill:none;stroke:#000000"
       transform="matrix(-1,0,0,1,179,558)" />
    <g
       style="display:inline"
       class="edge"
       id="g1278"
       transform="rotate(13,-2376.4479,680.57755)">
      <title
         id="title1272">N1-&gt;dot2</title>
      <path
         style="fill:none;stroke:#000000"
         id="path1274"
         d="m 57.028,-74.958 c 5.0907,7.6361 11.2475,16.8712 16.2887,24.4331"
         inkscape:connector-curvature="0" />
      <polygon
         style="fill:#000000;stroke:#000000"
         id="polygon1276"
         points="70.4822,-48.4669 76.3065,-52.3499 78.9414,-42.0879 " />
    </g>
    <g
       style="display:inline"
       class="edge"
       id="g1288"
       transform="matrix(-0.97436995,0.22495101,0.22495102,0.97436995,108.01948,329.27763)">
      <title
         id="title1282">N1-&gt;dot2</title>
      <path
         style="fill:none;stroke:#000000"
         id="path1284"
         d="m 57.028,-74.958 c 5.0907,7.6361 11.2475,16.8712 16.2887,24.4331"
         inkscape:connector-curvature="0" />
      <polygon
         style="fill:#000000;stroke:#000000"
         id="polygon1286"
         points="70.4822,-48.4669 76.3065,-52.3499 78.9414,-42.0879 " />
    </g>
    <g
       transform="matrix(-0.97436995,0.22495101,0.22495102,0.97436995,148.01948,389.27763)"
       id="g1296"
       class="edge"
       style="display:inline">
      <title
         id="title1290">N1-&gt;dot2</title>
      <path
         inkscape:connector-curvature="0"
         d="m 57.028,-74.958 c 5.0907,7.6361 11.2475,16.8712 16.2887,24.4331"
         id="path1292"
         style="fill:none;stroke:#000000" />
      <polygon
         points="78.9414,-42.0879 70.4822,-48.4669 76.3065,-52.3499 "
         id="polygon1294"
         style="fill:#000000;stroke:#000000" />
    </g>
    <g
       style="display:inline"
       class="edge"
       id="g1304"
       transform="rotate(13,-1703.4414,237.48533)">
      <title
         id="title1298">N1-&gt;dot2</title>
      <path
         style="fill:none;stroke:#000000"
         id="path1300"
         d="m 57.028,-74.958 c 5.0907,7.6361 11.2475,16.8712 16.2887,24.4331"
         inkscape:connector-curvature="0" />
      <polygon
         style="fill:#000000;stroke:#000000"
         id="polygon1302"
         points="70.4822,-48.4669 76.3065,-52.3499 78.9414,-42.0879 " />
    </g>
    <path
       style="display:inline;fill:none;stroke:#000000;stroke-width:1;stroke-miterlimit:4;stroke-dasharray:none"
       id="path1306"
       d="m 42.496747,264.74311 c 5.86122,9.13876 12.48065,19.46102 18.89957,29.46949"
       inkscape:connector-curvature="0" />
    <polygon
       transform="matrix(-1,0,0,1,124.59719,408.20385)"
       style="display:inline;fill:#000000;stroke:#000000"
       id="polygon1308"
       points="65.6836,-111.716 57.2244,-105.337 59.8592,-115.599 " />
    <circle
       r="18"
       style="display:inline;fill:#ff0000;stroke:#000000;stroke-width:1"
       id="circle1310"
       cy="260"
       cx="39" />
    <polygon
       transform="matrix(-1,0,0,1,59,398)"
       style="display:inline;fill:none;stroke:#000000"
       id="polygon1312"
       points="-11,0 11,0 0,-27 " />
    <circle
       r="16.5"
       style="display:inline;fill:#ff0000;stroke:#0000ff;stroke-width:4;stroke-miterlimit:4;stroke-dasharray:none"
       id="circle1314"
       cy="320"
       cx="79" />
    <circle
       r="18"
       cx="119"
       cy="228"
       id="circle1316"
       style="display:inline;fill:#000000;stroke:#000000;stroke-width:1" />
    <g
       style="display:inline"
       id="g1322"
       transform="translate(-1.0007733,220)">
      <path
         style="display:inline;fill:none;stroke:#000000;stroke-width:1;stroke-miterlimit:4;stroke-dasharray:none"
         id="path1318"
         d="M 125.93933,4.8972184 C 104.98963,13.437691 79.653834,23.7673 58.90648,32.225593"
         inkscape:connector-curvature="0" />
      <polygon
         style="display:inline;fill:#000000;stroke:#000000;stroke-width:0.80077672;stroke-miterlimit:4;stroke-dasharray:none"
         id="polygon1320"
         points="112.307,-106.35 114.941,-96.0879 106.482,-102.467 "
         transform="matrix(-0.85694446,-0.60675049,-0.60675051,0.85694448,98.456407,184.51375)" />
    </g>
    <circle
       cx="159"
       cy="260"
       id="circle1324"
       style="display:inline;fill:#000000;stroke:#000000;stroke-width:1"
       r="18" />
    <path
       style="display:inline;fill:none;stroke:#000000;stroke-width:1;stroke-miterlimit:4;stroke-dasharray:none"
       id="path1326"
       d="m 106.80774,219.11799 c 11.73812,8.88156 25.9336,19.62328 37.5583,28.41925"
       inkscape:connector-curvature="0" />
    <polygon
       style="display:inline;fill:#000000;stroke:#000000;stroke-width:0.80077672;stroke-miterlimit:4;stroke-dasharray:none"
       id="polygon1328"
       points="112.307,-106.35 114.941,-96.0879 106.482,-102.467 "
       transform="matrix(0.99689671,-0.32969206,0.32969208,0.99689671,61.461147,381.22209)" />
    <circle
       cx="59"
       cy="374"
       id="circle1330"
       style="display:inline;fill:#000000;stroke:#000000;stroke-width:1.00005352"
       r="7" />
    <polygon
       points="11,0 0,-27 -11,0 "
       id="polygon1332"
       style="display:inline;fill:none;stroke:#000000"
       transform="matrix(-1,0,0,1,99,398)" />
    <circle
       r="7"
       style="display:inline;fill:#000000;stroke:#000000;stroke-width:1.00005352"
       id="circle1334"
       cy="374"
       cx="99" />
    <polygon
       points="11,0 0,-27 -11,0 "
       id="polygon1348"
       style="display:inline;fill:none;stroke:#000000"
       transform="matrix(-1,0,0,1,19,338)" />
    <circle
       r="7"
       style="display:inline;fill:#000000;stroke:#000000;stroke-width:1.00005352"
       id="circle1350"
       cy="314"
       cx="19" />
    <g
       style="display:inline"
       class="edge"
       id="g1360"
       transform="matrix(-0.97436995,0.22495101,0.22495102,0.97436995,225.86948,332.02763)">
      <title
         id="title1354">N1-&gt;dot2</title>
      <path
         style="fill:none;stroke:#000000"
         id="path1356"
         d="m 57.028,-74.958 c 5.0907,7.6361 11.2475,16.8712 16.2887,24.4331"
         inkscape:connector-curvature="0" />
      <polygon
         style="fill:#000000;stroke:#000000"
         id="polygon1358"
         points="70.4822,-48.4669 76.3065,-52.3499 78.9414,-42.0879 " />
    </g>
    <polygon
       points="0,-27 -11,0 11,0 "
       id="polygon1362"
       style="display:inline;fill:none;stroke:#000000"
       transform="matrix(-1,0,0,1,139,338)" />
    <polygon
       transform="matrix(-1,0,0,1,179,338)"
       style="display:inline;fill:none;stroke:#000000"
       id="polygon1364"
       points="-11,0 11,0 0,-27 " />
    <g
       transform="rotate(13,-1410.9903,570.57755)"
       id="g1372"
       class="edge"
       style="display:inline">
      <title
         id="title1366">N1-&gt;dot2</title>
      <path
         inkscape:connector-curvature="0"
         d="m 57.028,-74.958 c 5.0907,7.6361 11.2475,16.8712 16.2887,24.4331"
         id="path1368"
         style="fill:none;stroke:#000000" />
      <polygon
         points="78.9414,-42.0879 70.4822,-48.4669 76.3065,-52.3499 "
         id="polygon1370"
         style="fill:#000000;stroke:#000000" />
    </g>
    <g
       transform="rotate(13,-3654.2194,283.15429)"
       id="g1494"
       class="edge"
       style="display:inline">
      <title
         id="title1488">N1-&gt;dot2</title>
      <path
         inkscape:connector-curvature="0"
         d="m 57.028,-74.958 c 5.0907,7.6361 11.2475,16.8712 16.2887,24.4331"
         id="path1490"
         style="fill:none;stroke:#000000" />
      <polygon
         points="78.9414,-42.0879 70.4822,-48.4669 76.3065,-52.3499 "
         id="polygon1492"
         style="fill:#000000;stroke:#000000" />
    </g>
    <g
       style="display:inline"
       class="edge"
       id="g1502"
       transform="matrix(-0.97436995,0.22495101,0.22495102,0.97436995,108.01948,829.27763)">
      <title
         id="title1496">N1-&gt;dot2</title>
      <path
         style="fill:none;stroke:#000000"
         id="path1498"
         d="m 57.028,-74.958 c 5.0907,7.6361 11.2475,16.8712 16.2887,24.4331"
         inkscape:connector-curvature="0" />
      <polygon
         style="fill:#000000;stroke:#000000"
         id="polygon1500"
         points="70.4822,-48.4669 76.3065,-52.3499 78.9414,-42.0879 " />
    </g>
    <g
       style="display:inline"
       class="edge"
       id="g1510"
       transform="rotate(13,-3371.05,427.48533)">
      <title
         id="title1504">N1-&gt;dot2</title>
      <path
         style="fill:none;stroke:#000000"
         id="path1506"
         d="m 57.028,-74.958 c 5.0907,7.6361 11.2475,16.8712 16.2887,24.4331"
         inkscape:connector-curvature="0" />
      <polygon
         style="fill:#000000;stroke:#000000"
         id="polygon1508"
         points="70.4822,-48.4669 76.3065,-52.3499 78.9414,-42.0879 " />
    </g>
    <g
       style="display:inline"
       transform="matrix(-1,0,0,1,117.28899,660)"
       id="g1516">
      <path
         inkscape:connector-curvature="0"
         d="m 43.497522,44.743112 c 5.861222,9.138754 12.480648,19.461016 18.899576,29.469483"
         id="path1512"
         style="fill:none;stroke:#000000;stroke-width:1;stroke-miterlimit:4;stroke-dasharray:none" />
      <polygon
         points="65.6836,-111.716 57.2244,-105.337 59.8592,-115.599 "
         id="polygon1514"
         style="fill:#000000;stroke:#000000"
         transform="matrix(-1,0,0,1,125.59796,188.20385)" />
    </g>
    <circle
       r="16.5"
       style="display:inline;fill:#ff0000;stroke:#0000ff;stroke-width:4;stroke-miterlimit:4;stroke-dasharray:none"
       id="circle1518"
       cy="760"
       cx="39" />
    <polygon
       transform="matrix(-1,0,0,1,59,838)"
       style="display:inline;fill:none;stroke:#000000"
       id="polygon1520"
       points="0,-27 -11,0 11,0 " />
    <circle
       r="18"
       style="display:inline;fill:#ff0000;stroke:#000000;stroke-width:1;stroke-miterlimit:4;stroke-dasharray:none;stroke-opacity:1"
       id="circle1522"
       cy="700"
       cx="79" />
    <circle
       r="18"
       cx="119"
       cy="668"
       id="circle1524"
       style="display:inline;fill:#000000;stroke:#000000;stroke-width:1" />
    <g
       style="display:inline"
       transform="translate(-1.0007733,660)"
       id="g1530">
      <path
         style="display:inline;fill:none;stroke:#000000;stroke-width:1;stroke-miterlimit:4;stroke-dasharray:none"
         id="path1526"
         d="M 132.56366,0.63442987 C 121.03999,9.2280991 107.10384,19.621657 95.691526,28.132522"
         inkscape:connector-curvature="0" />
      <polygon
         style="display:inline;fill:#000000;stroke:#000000;stroke-width:0.80077672;stroke-miterlimit:4;stroke-dasharray:none"
         id="polygon1528"
         points="106.482,-102.467 112.307,-106.35 114.941,-96.0879 "
         transform="matrix(-0.99689673,-0.32969206,-0.32969208,0.99689676,178.43491,162.37554)" />
    </g>
    <circle
       cx="159"
       cy="700"
       id="circle1532"
       style="display:inline;fill:#000000;stroke:#000000;stroke-width:1"
       r="18" />
    <g
       style="display:inline"
       transform="translate(-1.0007733,660)"
       id="g1538">
      <path
         inkscape:connector-curvature="0"
         d="M 107.80851,-0.88200707 C 119.54663,8 133.74211,18.741273 145.36681,27.537244"
         id="path1534"
         style="display:inline;fill:none;stroke:#000000;stroke-width:1;stroke-miterlimit:4;stroke-dasharray:none" />
      <polygon
         transform="matrix(0.99689671,-0.32969206,0.32969208,0.99689671,62.461926,161.22209)"
         points="106.482,-102.467 112.307,-106.35 114.941,-96.0879 "
         id="polygon1536"
         style="display:inline;fill:#000000;stroke:#000000;stroke-width:0.80077672;stroke-miterlimit:4;stroke-dasharray:none" />
    </g>
    <circle
       cx="59"
       cy="814"
       id="circle1540"
       style="display:inline;fill:#000000;stroke:#000000;stroke-width:1.00005352"
       r="7" />
    <polygon
       points="11,0 0,-27 -11,0 "
       id="polygon1542"
       style="display:inline;fill:none;stroke:#000000"
       transform="matrix(-1,0,0,1,99,778)" />
    <circle
       r="7"
       style="display:inline;fill:#000000;stroke:#000000;stroke-width:1.00005352"
       id="circle1544"
       cy="754"
       cx="99" />
    <polygon
       points="11,0 0,-27 -11,0 "
       id="polygon1558"
       style="display:inline;fill:none;stroke:#000000"
       transform="matrix(-1,0,0,1,19,838)" />
    <circle
       r="7"
       style="display:inline;fill:#000000;stroke:#000000;stroke-width:1.00005352"
       id="circle1560"
       cy="814"
       cx="19" />
    <g
       style="display:inline"
       class="edge"
       id="g1570"
       transform="matrix(-0.97436995,0.22495101,0.22495102,0.97436995,225.86948,772.02763)">
      <title
         id="title1564">N1-&gt;dot2</title>
      <path
         style="fill:none;stroke:#000000"
         id="path1566"
         d="m 57.028,-74.958 c 5.0907,7.6361 11.2475,16.8712 16.2887,24.4331"
         inkscape:connector-curvature="0" />
      <polygon
         style="fill:#000000;stroke:#000000"
         id="polygon1568"
         points="78.9414,-42.0879 70.4822,-48.4669 76.3065,-52.3499 " />
    </g>
    <polygon
       points="11,0 0,-27 -11,0 "
       id="polygon1572"
       style="display:inline;fill:none;stroke:#000000"
       transform="matrix(-1,0,0,1,139,778)" />
    <polygon
       transform="matrix(-1,0,0,1,179,778)"
       style="display:inline;fill:none;stroke:#000000"
       id="polygon1574"
       points="0,-27 -11,0 11,0 " />
    <g
       transform="rotate(13,-3341.9055,790.57755)"
       id="g1582"
       class="edge"
       style="display:inline">
      <title
         id="title1576">N1-&gt;dot2</title>
      <path
         inkscape:connector-curvature="0"
         d="m 57.028,-74.958 c 5.0907,7.6361 11.2475,16.8712 16.2887,24.4331"
         id="path1578"
         style="fill:none;stroke:#000000" />
      <polygon
         points="76.3065,-52.3499 78.9414,-42.0879 70.4822,-48.4669 "
         id="polygon1580"
         style="fill:#000000;stroke:#000000" />
    </g>
  </g>
  <g
     inkscape:groupmode="layer"
     id="layer3"
     inkscape:label="text"
     style="display:inline"
     transform="translate(-2.60077,-204)">
    <g
       aria-label="3"
       style="font-style:normal;font-variant:normal;font-weight:bold;font-stretch:normal;font-size:14px;line-height:0%;font-family:Arial;-inkscape-font-specification:'Arial Bold';text-anchor:middle;display:inline;stroke-width:1"
       id="text130-2-2">
      <path
         d="m 56.359035,611.51819 1.859375,-0.22559 q 0.08887,0.71094 0.478516,1.08692 0.389649,0.37597 0.943359,0.37597 0.594727,0 0.998047,-0.45117 0.410157,-0.45117 0.410157,-1.2168 0,-0.7246 -0.389649,-1.14843 -0.389648,-0.42383 -0.950195,-0.42383 -0.369141,0 -0.881836,0.14355 l 0.211914,-1.56543 q 0.779297,0.0205 1.189453,-0.33496 0.410156,-0.3623 0.410156,-0.95703 0,-0.50586 -0.300781,-0.80664 -0.300781,-0.30078 -0.799805,-0.30078 -0.492187,0 -0.84082,0.3418 -0.348633,0.34179 -0.423828,0.99804 l -1.770508,-0.30078 q 0.18457,-0.90918 0.553711,-1.44922 0.375977,-0.54687 1.039063,-0.85449 0.669921,-0.31445 1.49707,-0.31445 1.415039,0 2.269531,0.90234 0.704102,0.73828 0.704102,1.66797 0,1.31934 -1.442383,2.10547 0.861328,0.18457 1.374023,0.82715 0.519532,0.64258 0.519532,1.55176 0,1.31933 -0.963868,2.24902 -0.963867,0.92969 -2.399414,0.92969 -1.360351,0 -2.255859,-0.7793 -0.895508,-0.78613 -1.039063,-2.05078 z"
         style="font-style:normal;font-variant:normal;font-weight:bold;font-stretch:normal;font-size:14px;line-height:0%;font-family:Arial;-inkscape-font-specification:'Arial Bold';text-anchor:middle;display:inline;stroke-width:1"
         id="path151" />
    </g>
    <g
       aria-label="N"
       style="font-style:normal;font-variant:normal;font-weight:bold;font-stretch:normal;font-size:14px;line-height:0%;font-family:Arial;-inkscape-font-specification:'Arial Bold';text-anchor:middle;display:inline;fill:#ffffff;stroke-width:1"
       id="text49-8-6">
      <path
         d="m 75.615616,484.00998 v -10.02149 h 1.96875 l 4.101562,6.69239 v -6.69239 h 1.879883 v 10.02149 h -2.030273 l -4.040039,-6.53516 v 6.53516 z"
         style="font-style:normal;font-variant:normal;font-weight:bold;font-stretch:normal;font-size:14px;line-height:0%;font-family:Arial;-inkscape-font-specification:'Arial Bold';text-anchor:middle;display:inline;fill:#ffffff;stroke-width:1"
         id="path154" />
    </g>
    <g
       aria-label="P"
       style="font-style:normal;font-variant:normal;font-weight:bold;font-stretch:normal;font-size:14px;line-height:0%;font-family:Arial;-inkscape-font-specification:'Arial Bold';text-anchor:middle;display:inline;fill:#ffffff;stroke-width:1"
       id="text21-4-6">
      <path
         d="m 36.475735,544.02032 v -10.02148 h 3.24707 q 1.845703,0 2.40625,0.15039 0.861328,0.22559 1.442383,0.98438 0.581055,0.75195 0.581055,1.94824 0,0.92285 -0.334961,1.55176 -0.334961,0.6289 -0.854493,0.99121 -0.512695,0.35547 -1.045898,0.47168 -0.724609,0.14355 -2.098633,0.14355 h -1.319336 v 3.78027 z m 2.023437,-8.32617 v 2.84375 h 1.107422 q 1.196289,0 1.599609,-0.15722 0.403321,-0.15723 0.628907,-0.49219 0.232422,-0.33496 0.232422,-0.7793 0,-0.54687 -0.321289,-0.90234 -0.32129,-0.35547 -0.813477,-0.44434 -0.362305,-0.0684 -1.456055,-0.0684 z"
         style="font-style:normal;font-variant:normal;font-weight:bold;font-stretch:normal;font-size:14px;line-height:0%;font-family:Arial;-inkscape-font-specification:'Arial Bold';text-anchor:middle;display:inline;fill:#ffffff;stroke-width:1"
         id="path157" />
    </g>
    <g
       aria-label="G"
       style="font-style:normal;font-variant:normal;font-weight:bold;font-stretch:normal;font-size:14px;line-height:0%;font-family:Arial;-inkscape-font-specification:'Arial Bold';text-anchor:middle;display:inline;fill:#ffffff;stroke-width:1"
       id="text4278">
      <path
         d="m 119.83927,448.73593 v -1.68848 h 4.36133 v 3.99219 q -0.63574,0.61524 -1.8457,1.08692 -1.20313,0.46484 -2.44043,0.46484 -1.57227,0 -2.74121,-0.65625 -1.16895,-0.66309 -1.75684,-1.88672 -0.58789,-1.23047 -0.58789,-2.67285 0,-1.56543 0.65625,-2.78223 0.65625,-1.21679 1.9209,-1.86621 0.96386,-0.49902 2.39941,-0.49902 1.86621,0 2.91211,0.78613 1.05274,0.7793 1.35352,2.16016 l -2.00977,0.37597 q -0.21191,-0.73828 -0.7998,-1.1621 -0.58106,-0.43067 -1.45606,-0.43067 -1.32617,0 -2.1123,0.84082 -0.7793,0.84082 -0.7793,2.49512 0,1.78418 0.79297,2.67969 0.79297,0.88867 2.07812,0.88867 0.63575,0 1.27149,-0.2461 0.64258,-0.25293 1.10058,-0.60839 v -1.27149 z"
         style="font-style:normal;font-variant:normal;font-weight:bold;font-stretch:normal;font-size:14px;line-height:0%;font-family:Arial;-inkscape-font-specification:'Arial Bold';text-anchor:middle;display:inline;fill:#ffffff;stroke-width:1"
         id="path160" />
    </g>
    <g
       aria-label="U"
       style="font-style:normal;font-variant:normal;font-weight:bold;font-stretch:normal;font-size:14px;line-height:0%;font-family:Arial;-inkscape-font-specification:'Arial Bold';text-anchor:middle;display:inline;fill:#ffffff;stroke-width:1"
       id="text148">
      <path
         d="m 155.26074,473.61279 h 2.02344 v 5.42774 q 0,1.29199 0.0752,1.6748 0.12989,0.61524 0.61524,0.99121 0.49219,0.36914 1.33984,0.36914 0.86133,0 1.29883,-0.34863 0.4375,-0.35547 0.52637,-0.86816 0.0889,-0.5127 0.0889,-1.70215 v -5.54395 h 2.02343 v 5.26367 q 0,1.80469 -0.16406,2.54981 -0.16406,0.74512 -0.6084,1.25781 -0.4375,0.5127 -1.17578,0.82031 -0.73828,0.30079 -1.92773,0.30079 -1.43555,0 -2.18067,-0.32813 -0.73828,-0.33496 -1.16894,-0.86133 -0.43067,-0.5332 -0.56739,-1.11426 -0.19824,-0.86132 -0.19824,-2.54296 z"
         style="font-style:normal;font-variant:normal;font-weight:bold;font-stretch:normal;font-size:14px;line-height:0%;font-family:Arial;-inkscape-font-specification:'Arial Bold';text-anchor:middle;display:inline;fill:#ffffff;stroke-width:1"
         id="path163" />
    </g>
    <g
       aria-label="4"
       style="font-style:normal;font-variant:normal;font-weight:bold;font-stretch:normal;font-size:14px;line-height:0%;font-family:Arial;-inkscape-font-specification:'Arial Bold';text-anchor:middle;display:inline;stroke-width:1"
       id="text236">
      <path
         d="m 100.18425,554.17737 v -2.0166 h -4.101563 v -1.68164 l 4.347653,-6.36426 h 1.61328 v 6.35742 h 1.24415 v 1.68848 h -1.24415 v 2.0166 z m 0,-3.70508 v -3.4248 l -2.303711,3.4248 z"
         style="font-style:normal;font-variant:normal;font-weight:bold;font-stretch:normal;font-size:14px;line-height:0%;font-family:Arial;-inkscape-font-specification:'Arial Bold';text-anchor:middle;display:inline;stroke-width:1"
         id="path166" />
    </g>
    <g
       aria-label="2"
       style="font-style:normal;font-variant:normal;font-weight:bold;font-stretch:normal;font-size:14px;line-height:0%;font-family:Arial;-inkscape-font-specification:'Arial Bold';text-anchor:middle;display:inline;stroke-width:1"
       id="text433">
      <path
         d="m 22.914703,612.39319 v 1.78418 h -6.733398 q 0.109375,-1.01172 0.65625,-1.91406 0.546875,-0.90918 2.160156,-2.40625 1.298828,-1.20997 1.592774,-1.64063 0.396484,-0.59473 0.396484,-1.17578 0,-0.64258 -0.348633,-0.98438 -0.341797,-0.34863 -0.950195,-0.34863 -0.601563,0 -0.957031,0.36231 -0.355469,0.3623 -0.410157,1.20312 l -1.914062,-0.1914 q 0.170898,-1.58594 1.073242,-2.27637 0.902344,-0.69043 2.255859,-0.69043 1.483399,0 2.331055,0.7998 0.847656,0.79981 0.847656,1.98926 0,0.67676 -0.246093,1.29199 -0.239258,0.6084 -0.765625,1.27832 -0.348633,0.44434 -1.257813,1.27832 -0.90918,0.83399 -1.155273,1.10743 -0.239258,0.27343 -0.389649,0.5332 z"
         style="font-style:normal;font-variant:normal;font-weight:bold;font-stretch:normal;font-size:14px;line-height:0%;font-family:Arial;-inkscape-font-specification:'Arial Bold';text-anchor:middle;display:inline;stroke-width:1"
         id="path169" />
    </g>
    <g
       aria-label="3"
       style="font-style:normal;font-variant:normal;font-weight:bold;font-stretch:normal;font-size:14px;line-height:0%;font-family:Arial;-inkscape-font-specification:'Arial Bold';text-anchor:middle;display:inline;stroke-width:1"
       id="text1336">
      <path
         d="m 56.359035,391.51816 1.859375,-0.22559 q 0.08887,0.71094 0.478516,1.08692 0.389649,0.37597 0.943359,0.37597 0.594727,0 0.998047,-0.45117 0.410157,-0.45117 0.410157,-1.2168 0,-0.72461 -0.389649,-1.14843 -0.389648,-0.42383 -0.950195,-0.42383 -0.369141,0 -0.881836,0.14355 l 0.211914,-1.56543 q 0.779297,0.0205 1.189453,-0.33496 0.410156,-0.3623 0.410156,-0.95703 0,-0.50586 -0.300781,-0.80664 -0.300781,-0.30078 -0.799805,-0.30078 -0.492187,0 -0.84082,0.3418 -0.348633,0.34179 -0.423828,0.99804 L 56.50259,386.733 q 0.18457,-0.90918 0.553711,-1.44922 0.375977,-0.54687 1.039063,-0.85449 0.669921,-0.31445 1.49707,-0.31445 1.415039,0 2.269531,0.90234 0.704102,0.73828 0.704102,1.66797 0,1.31934 -1.442383,2.10547 0.861328,0.18457 1.374023,0.82715 0.519532,0.64258 0.519532,1.55176 0,1.31933 -0.963868,2.24902 -0.963867,0.92969 -2.399414,0.92969 -1.360351,0 -2.255859,-0.7793 -0.895508,-0.78613 -1.039063,-2.05078 z"
         style="font-style:normal;font-variant:normal;font-weight:bold;font-stretch:normal;font-size:14px;line-height:0%;font-family:Arial;-inkscape-font-specification:'Arial Bold';text-anchor:middle;display:inline;stroke-width:1"
         id="path172" />
    </g>
    <g
       aria-label="N"
       style="font-style:normal;font-variant:normal;font-weight:bold;font-stretch:normal;font-size:14px;line-height:0%;font-family:Arial;-inkscape-font-specification:'Arial Bold';text-anchor:middle;display:inline;fill:#ffffff;stroke-width:1"
       id="text1338">
      <path
         d="m 75.615616,324.00998 v -10.02149 h 1.96875 l 4.101562,6.69239 v -6.69239 h 1.879883 v 10.02149 h -2.030273 l -4.040039,-6.53516 v 6.53516 z"
         style="font-style:normal;font-variant:normal;font-weight:bold;font-stretch:normal;font-size:14px;line-height:0%;font-family:Arial;-inkscape-font-specification:'Arial Bold';text-anchor:middle;display:inline;fill:#ffffff;stroke-width:1"
         id="path175" />
    </g>
    <g
       aria-label="P"
       style="font-style:normal;font-variant:normal;font-weight:bold;font-stretch:normal;font-size:14px;line-height:0%;font-family:Arial;-inkscape-font-specification:'Arial Bold';text-anchor:middle;display:inline;fill:#ffffff;stroke-width:1"
       id="text1340">
      <path
         d="m 36.475735,264.02032 v -10.02148 h 3.24707 q 1.845703,0 2.40625,0.15039 0.861328,0.22559 1.442383,0.98438 0.581055,0.75195 0.581055,1.94824 0,0.92285 -0.334961,1.55176 -0.334961,0.6289 -0.854493,0.99121 -0.512695,0.35547 -1.045898,0.47168 -0.724609,0.14355 -2.098633,0.14355 h -1.319336 v 3.78027 z m 2.023437,-8.32617 v 2.84375 h 1.107422 q 1.196289,0 1.599609,-0.15722 0.403321,-0.15723 0.628907,-0.49219 0.232422,-0.33496 0.232422,-0.7793 0,-0.54687 -0.321289,-0.90234 -0.32129,-0.35547 -0.813477,-0.44434 -0.362305,-0.0684 -1.456055,-0.0684 z"
         style="font-style:normal;font-variant:normal;font-weight:bold;font-stretch:normal;font-size:14px;line-height:0%;font-family:Arial;-inkscape-font-specification:'Arial Bold';text-anchor:middle;display:inline;fill:#ffffff;stroke-width:1"
         id="path178" />
    </g>
    <g
       aria-label="G"
       style="font-style:normal;font-variant:normal;font-weight:bold;font-stretch:normal;font-size:14px;line-height:0%;font-family:Arial;-inkscape-font-specification:'Arial Bold';text-anchor:middle;display:inline;fill:#ffffff;stroke-width:1"
       id="text1342">
      <path
         d="m 119.83927,228.73593 v -1.68848 h 4.36133 v 3.99219 q -0.63574,0.61524 -1.8457,1.08692 -1.20313,0.46484 -2.44043,0.46484 -1.57227,0 -2.74121,-0.65625 -1.16895,-0.66309 -1.75684,-1.88672 -0.58789,-1.23047 -0.58789,-2.67285 0,-1.56543 0.65625,-2.78223 0.65625,-1.21679 1.9209,-1.86621 0.96386,-0.49902 2.39941,-0.49902 1.86621,0 2.91211,0.78613 1.05274,0.7793 1.35352,2.16016 l -2.00977,0.37597 q -0.21191,-0.73828 -0.7998,-1.1621 -0.58106,-0.43067 -1.45606,-0.43067 -1.32617,0 -2.1123,0.84082 -0.7793,0.84082 -0.7793,2.49512 0,1.78418 0.79297,2.67969 0.79297,0.88867 2.07812,0.88867 0.63575,0 1.27149,-0.2461 0.64258,-0.25293 1.10058,-0.60839 v -1.27149 z"
         style="font-style:normal;font-variant:normal;font-weight:bold;font-stretch:normal;font-size:14px;line-height:0%;font-family:Arial;-inkscape-font-specification:'Arial Bold';text-anchor:middle;display:inline;fill:#ffffff;stroke-width:1"
         id="path181" />
    </g>
    <g
       aria-label="U"
       style="font-style:normal;font-variant:normal;font-weight:bold;font-stretch:normal;font-size:14px;line-height:0%;font-family:Arial;-inkscape-font-specification:'Arial Bold';text-anchor:middle;display:inline;fill:#ffffff;stroke-width:1"
       id="text1344">
      <path
         d="m 155.26074,253.61279 h 2.02344 v 5.42774 q 0,1.29199 0.0752,1.6748 0.12989,0.61524 0.61524,0.99121 0.49219,0.36914 1.33984,0.36914 0.86133,0 1.29883,-0.34863 0.4375,-0.35547 0.52637,-0.86816 0.0889,-0.5127 0.0889,-1.70215 v -5.54395 h 2.02343 v 5.26367 q 0,1.80469 -0.16406,2.54981 -0.16406,0.74512 -0.6084,1.25781 -0.4375,0.5127 -1.17578,0.82031 -0.73828,0.30079 -1.92773,0.30079 -1.43555,0 -2.18067,-0.32813 -0.73828,-0.33496 -1.16894,-0.86133 -0.43067,-0.5332 -0.56739,-1.11426 -0.19824,-0.86132 -0.19824,-2.54296 z"
         style="font-style:normal;font-variant:normal;font-weight:bold;font-stretch:normal;font-size:14px;line-height:0%;font-family:Arial;-inkscape-font-specification:'Arial Bold';text-anchor:middle;display:inline;fill:#ffffff;stroke-width:1"
         id="path184" />
    </g>
    <g
       aria-label="4"
       style="font-style:normal;font-variant:normal;font-weight:bold;font-stretch:normal;font-size:14px;line-height:0%;font-family:Arial;-inkscape-font-specification:'Arial Bold';text-anchor:middle;display:inline;stroke-width:1"
       id="text1346">
      <path
         d="m 100.18425,394.17734 v -2.0166 h -4.101563 v -1.68164 l 4.347653,-6.36426 h 1.61328 v 6.35742 h 1.24415 v 1.68848 h -1.24415 v 2.0166 z m 0,-3.70508 v -3.42481 l -2.303711,3.42481 z"
         style="font-style:normal;font-variant:normal;font-weight:bold;font-stretch:normal;font-size:14px;line-height:0%;font-family:Arial;-inkscape-font-specification:'Arial Bold';text-anchor:middle;display:inline;stroke-width:1"
         id="path187" />
    </g>
    <g
       aria-label="2"
       style="font-style:normal;font-variant:normal;font-weight:bold;font-stretch:normal;font-size:14px;line-height:0%;font-family:Arial;-inkscape-font-specification:'Arial Bold';text-anchor:middle;display:inline;stroke-width:1"
       id="text1352">
      <path
         d="m 22.914703,332.39316 v 1.78418 h -6.733398 q 0.109375,-1.01172 0.65625,-1.91406 0.546875,-0.90918 2.160156,-2.40625 1.298828,-1.20997 1.592774,-1.64063 0.396484,-0.59473 0.396484,-1.17578 0,-0.64258 -0.348633,-0.98438 -0.341797,-0.34863 -0.950195,-0.34863 -0.601563,0 -0.957031,0.36231 -0.355469,0.3623 -0.410157,1.20312 l -1.914062,-0.19141 q 0.170898,-1.58593 1.073242,-2.27636 0.902344,-0.69043 2.255859,-0.69043 1.483399,0 2.331055,0.7998 0.847656,0.79981 0.847656,1.98926 0,0.67676 -0.246093,1.29199 -0.239258,0.6084 -0.765625,1.27832 -0.348633,0.44434 -1.257813,1.27832 -0.90918,0.83399 -1.155273,1.10742 -0.239258,0.27344 -0.389649,0.53321 z"
         style="font-style:normal;font-variant:normal;font-weight:bold;font-stretch:normal;font-size:14px;line-height:0%;font-family:Arial;-inkscape-font-specification:'Arial Bold';text-anchor:middle;display:inline;stroke-width:1"
         id="path190" />
    </g>
    <g
       aria-label="P"
       style="font-style:normal;font-variant:normal;font-weight:bold;font-stretch:normal;font-size:14px;line-height:0%;font-family:Arial;-inkscape-font-specification:'Arial Bold';text-anchor:middle;display:inline;fill:#ffffff;stroke-width:1"
       id="text1548">
      <path
         d="m 75.977921,704.01001 v -10.02148 h 3.24707 q 1.845703,0 2.40625,0.15039 0.861328,0.22558 1.442383,0.98437 0.581054,0.75195 0.581054,1.94824 0,0.92285 -0.334961,1.55176 -0.334961,0.62891 -0.854492,0.99121 -0.512695,0.35547 -1.045898,0.47168 -0.72461,0.14356 -2.098633,0.14356 h -1.319336 v 3.78027 z m 2.023437,-8.32617 v 2.84375 h 1.107422 q 1.196289,0 1.599609,-0.15723 0.403321,-0.15723 0.628907,-0.49219 0.232421,-0.33496 0.232421,-0.77929 0,-0.54688 -0.321289,-0.90235 -0.321289,-0.35547 -0.813476,-0.44433 -0.362305,-0.0684 -1.456055,-0.0684 z"
         style="font-style:normal;font-variant:normal;font-weight:bold;font-stretch:normal;font-size:14px;line-height:0%;font-family:Arial;-inkscape-font-specification:'Arial Bold';text-anchor:middle;display:inline;fill:#ffffff;stroke-width:1"
         id="path193" />
    </g>
    <g
       aria-label="N"
       style="font-style:normal;font-variant:normal;font-weight:bold;font-stretch:normal;font-size:14px;line-height:0%;font-family:Arial;-inkscape-font-specification:'Arial Bold';text-anchor:middle;display:inline;fill:#ffffff;stroke-width:1"
       id="text1550">
      <path
         d="m 36.11343,764.02032 v -10.02148 h 1.96875 l 4.101563,6.69238 v -6.69238 h 1.879882 v 10.02148 h -2.030273 l -4.040039,-6.53515 v 6.53515 z"
         style="font-style:normal;font-variant:normal;font-weight:bold;font-stretch:normal;font-size:14px;line-height:0%;font-family:Arial;-inkscape-font-specification:'Arial Bold';text-anchor:middle;display:inline;fill:#ffffff;stroke-width:1"
         id="path196" />
    </g>
    <g
       aria-label="G"
       style="font-style:normal;font-variant:normal;font-weight:bold;font-stretch:normal;font-size:14px;line-height:0%;font-family:Arial;-inkscape-font-specification:'Arial Bold';text-anchor:middle;display:inline;fill:#ffffff;stroke-width:1"
       id="text1552">
      <path
         d="m 119.83927,668.73596 v -1.68847 h 4.36133 v 3.99218 q -0.63574,0.61524 -1.8457,1.08692 -1.20313,0.46484 -2.44043,0.46484 -1.57227,0 -2.74121,-0.65625 -1.16895,-0.66309 -1.75684,-1.88672 -0.58789,-1.23047 -0.58789,-2.67285 0,-1.56543 0.65625,-2.78223 0.65625,-1.21679 1.9209,-1.86621 0.96386,-0.49902 2.39941,-0.49902 1.86621,0 2.91211,0.78613 1.05274,0.7793 1.35352,2.16016 l -2.00977,0.37598 q -0.21191,-0.73829 -0.7998,-1.16211 -0.58106,-0.43067 -1.45606,-0.43067 -1.32617,0 -2.1123,0.84082 -0.7793,0.84082 -0.7793,2.49512 0,1.78418 0.79297,2.67969 0.79297,0.88867 2.07812,0.88867 0.63575,0 1.27149,-0.2461 0.64258,-0.25292 1.10058,-0.60839 v -1.27149 z"
         style="font-style:normal;font-variant:normal;font-weight:bold;font-stretch:normal;font-size:14px;line-height:0%;font-family:Arial;-inkscape-font-specification:'Arial Bold';text-anchor:middle;display:inline;fill:#ffffff;stroke-width:1"
         id="path199" />
    </g>
    <g
       aria-label="U"
       style="font-style:normal;font-variant:normal;font-weight:bold;font-stretch:normal;font-size:14px;line-height:0%;font-family:Arial;-inkscape-font-specification:'Arial Bold';text-anchor:middle;display:inline;fill:#ffffff;stroke-width:1"
       id="text1554">
      <path
         d="m 155.26074,693.61279 h 2.02344 v 5.42774 q 0,1.29199 0.0752,1.6748 0.12989,0.61524 0.61524,0.99121 0.49219,0.36914 1.33984,0.36914 0.86133,0 1.29883,-0.34863 0.4375,-0.35547 0.52637,-0.86816 0.0889,-0.5127 0.0889,-1.70215 v -5.54395 h 2.02343 v 5.26367 q 0,1.80469 -0.16406,2.54981 -0.16406,0.74512 -0.6084,1.25781 -0.4375,0.5127 -1.17578,0.82031 -0.73828,0.30079 -1.92773,0.30079 -1.43555,0 -2.18067,-0.32813 -0.73828,-0.33496 -1.16894,-0.86133 -0.43067,-0.5332 -0.56739,-1.11426 -0.19824,-0.86132 -0.19824,-2.54296 z"
         style="font-style:normal;font-variant:normal;font-weight:bold;font-stretch:normal;font-size:14px;line-height:0%;font-family:Arial;-inkscape-font-specification:'Arial Bold';text-anchor:middle;display:inline;fill:#ffffff;stroke-width:1"
         id="path202" />
    </g>
  </g>
</svg>
