<?xml version="1.0" encoding="UTF-8" standalone="no"?>
<svg
   xmlns:dc="http://purl.org/dc/elements/1.1/"
   xmlns:cc="http://creativecommons.org/ns#"
   xmlns:rdf="http://www.w3.org/1999/02/22-rdf-syntax-ns#"
   xmlns:svg="http://www.w3.org/2000/svg"
   xmlns="http://www.w3.org/2000/svg"
   xmlns:sodipodi="http://sodipodi.sourceforge.net/DTD/sodipodi-0.dtd"
   xmlns:inkscape="http://www.inkscape.org/namespaces/inkscape"
   width="142"
   height="919"
   viewBox="0 0 141.99999 919"
   id="svg2"
   version="1.1"
   inkscape:version="1.0.2-2 (e86c870879, 2021-01-15)"
   sodipodi:docname="Red-black_tree_delete_case_D0rot.svg"
   inkscape:export-filename=".\Red-black_tree_insert_case_Cr.png"
   inkscape:export-xdpi="72"
   inkscape:export-ydpi="72">
  <metadata
     id="metadata286">
    <rdf:RDF>
      <cc:Work
         rdf:about="">
        <dc:format>image/svg+xml</dc:format>
        <dc:type
           rdf:resource="http://purl.org/dc/dcmitype/StillImage" />
        <dc:title></dc:title>
      </cc:Work>
    </rdf:RDF>
  </metadata>
  <defs
     id="defs284" />
  <sodipodi:namedview
     pagecolor="#ffffff"
     bordercolor="#666666"
     borderopacity="1"
     objecttolerance="10"
     gridtolerance="10"
     guidetolerance="10"
     inkscape:pageopacity="0"
     inkscape:pageshadow="2"
     inkscape:window-width="914"
     inkscape:window-height="1007"
     id="namedview282"
     showgrid="false"
     inkscape:zoom="1"
     inkscape:cx="67.388415"
     inkscape:cy="388.88704"
     inkscape:window-x="429"
     inkscape:window-y="-7"
     inkscape:window-maximized="0"
     inkscape:current-layer="layer3"
     borderlayer="true"
     fit-margin-top="0"
     fit-margin-left="0"
     fit-margin-right="0"
     fit-margin-bottom="0"
     inkscape:document-rotation="0" />
  <g
     inkscape:groupmode="layer"
     id="layer2"
     inkscape:label="corners"
     transform="translate(-39.5,-204)"
     style="display:none">
    <rect
       style="color:#000000;clip-rule:nonzero;display:inline;overflow:visible;visibility:visible;opacity:1;isolation:auto;mix-blend-mode:normal;color-interpolation:sRGB;color-interpolation-filters:linearRGB;solid-color:#000000;solid-opacity:1;fill:#808080;fill-opacity:1;fill-rule:nonzero;stroke:#000000;stroke-width:4;stroke-linecap:butt;stroke-linejoin:miter;stroke-miterlimit:4;stroke-dasharray:none;stroke-dashoffset:0;stroke-opacity:1;color-rendering:auto;image-rendering:auto;shape-rendering:auto;text-rendering:auto;enable-background:accumulate"
       id="rect299"
       width="4"
       height="4"
       x="175.5"
       y="1117" />
    <rect
       style="color:#000000;clip-rule:nonzero;display:inline;overflow:visible;visibility:visible;opacity:1;isolation:auto;mix-blend-mode:normal;color-interpolation:sRGB;color-interpolation-filters:linearRGB;solid-color:#000000;solid-opacity:1;fill:#808080;fill-opacity:1;fill-rule:nonzero;stroke:#000000;stroke-width:4;stroke-linecap:butt;stroke-linejoin:miter;stroke-miterlimit:4;stroke-dasharray:none;stroke-dashoffset:0;stroke-opacity:1;color-rendering:auto;image-rendering:auto;shape-rendering:auto;text-rendering:auto;enable-background:accumulate"
       id="rect297-6"
       width="4"
       height="4"
       x="41.5"
       y="206" />
  </g>
  <g
     inkscape:groupmode="layer"
     id="layer1"
     inkscape:label="all"
     transform="translate(-39.5,-204)"
     style="display:inline">
    <g
       transform="rotate(18,-724.52313,400.23837)"
       id="g1064">
      <path
         inkscape:connector-curvature="0"
         d="m 106.80774,219.11799 c 11.73812,8.88156 25.9336,19.62328 37.5583,28.41925"
         id="path1060"
         style="display:inline;fill:none;stroke:#000000;stroke-width:1;stroke-miterlimit:4;stroke-dasharray:none" />
      <polygon
         transform="matrix(0.99689671,-0.32969206,0.32969208,0.99689671,61.461147,381.22209)"
         points="112.307,-106.35 114.941,-96.0879 106.482,-102.467 "
         id="polygon1062"
         style="display:inline;fill:#000000;stroke:#000000;stroke-width:0.800777;stroke-miterlimit:4;stroke-dasharray:none" />
    </g>
    <g
       id="g894"
       style="display:inline"
       transform="translate(0,720)">
      <path
         inkscape:connector-curvature="0"
         d="m 89.082733,222.58556 c -13.161474,5.78115 -29.078482,12.77337 -42.112827,18.49889"
         id="path890"
         style="display:inline;fill:#0000ff;stroke:#0000ff;stroke-width:1;stroke-miterlimit:4;stroke-dasharray:none" />
      <polygon
         transform="matrix(-0.88259491,-0.5687936,-0.56879362,0.88259494,93.223112,391.53461)"
         points="106.482,-102.467 112.307,-106.35 114.941,-96.0879 "
         id="polygon892"
         style="display:inline;fill:#0000ff;stroke:#0000ff;stroke-width:0.800777;stroke-miterlimit:4;stroke-dasharray:none" />
    </g>
    <g
       style="display:inline"
       id="g892">
      <path
         style="display:inline;fill:#0000ff;stroke:#0000ff;stroke-width:1;stroke-miterlimit:4;stroke-dasharray:none"
         id="path1037-8"
         d="m 89.082733,222.58556 c -13.161474,5.78115 -29.078482,12.77337 -42.112827,18.49889"
         inkscape:connector-curvature="0" />
      <polygon
         style="display:inline;fill:#0000ff;stroke:#0000ff;stroke-width:0.800777;stroke-miterlimit:4;stroke-dasharray:none"
         id="polygon1039-3"
         points="112.307,-106.35 114.941,-96.0879 106.482,-102.467 "
         transform="matrix(-0.88259491,-0.5687936,-0.56879362,0.88259494,93.223112,391.53461)" />
    </g>
    <g
       transform="rotate(3,-9431.6853,721.57306)"
       id="g1140"
       style="display:inline">
      <path
         inkscape:connector-curvature="0"
         d="m 67.16443,438.8198 c 11.73812,8.88201 25.9336,19.62328 37.5583,28.41925"
         id="path1136"
         style="display:inline;fill:none;stroke:#000000;stroke-width:1;stroke-miterlimit:4;stroke-dasharray:none" />
      <polygon
         transform="matrix(1,-0.32969206,0.32969208,1,21.461153,601.22209)"
         points="106.482,-102.467 112.307,-106.35 114.941,-96.0879 "
         id="polygon1138"
         style="display:inline;fill:#000000;stroke:#000000;stroke-width:0.800777;stroke-miterlimit:4;stroke-dasharray:none" />
    </g>
    <g
       style="display:inline"
       id="g166"
       transform="rotate(3,115.42952,471.57306)">
      <path
         style="display:inline;fill:none;stroke:#000000;stroke-width:1;stroke-miterlimit:4;stroke-dasharray:none"
         id="path150"
         d="m 67.16443,438.8198 c 11.73812,8.88201 25.9336,19.62328 37.5583,28.41925"
         inkscape:connector-curvature="0" />
      <polygon
         style="display:inline;fill:#000000;stroke:#000000;stroke-width:0.800777;stroke-miterlimit:4;stroke-dasharray:none"
         id="polygon152"
         points="106.482,-102.467 112.307,-106.35 114.941,-96.0879 "
         transform="matrix(1,-0.32969206,0.32969208,1,21.461153,601.22209)" />
    </g>
    <g
       id="g1079">
      <path
         inkscape:connector-curvature="0"
         d="m 81.380054,228.41447 c 18.671456,7.62038 41.252066,16.83716 59.743196,24.38421"
         id="path1326"
         style="display:inline;fill:none;stroke:#000000;stroke-width:1;stroke-miterlimit:4;stroke-dasharray:none" />
      <polygon
         transform="matrix(0.87759769,-0.57647393,0.57647395,0.87759769,95.643467,403.38569)"
         points="114.941,-96.0879 106.482,-102.467 112.307,-106.35 "
         id="polygon1328"
         style="display:inline;fill:#000000;stroke:#000000;stroke-width:0.800777;stroke-miterlimit:4;stroke-dasharray:none" />
    </g>
    <g
       transform="matrix(-0.95105652,0.30901699,0.30901699,0.95105652,189.19703,23.47901)"
       id="g1073">
      <path
         inkscape:connector-curvature="0"
         d="m 106.80774,219.11799 c 11.73812,8.88156 25.9336,19.62328 37.5583,28.41925"
         id="path1069"
         style="display:inline;fill:none;stroke:#000000;stroke-width:1;stroke-miterlimit:4;stroke-dasharray:none" />
      <polygon
         transform="matrix(0.99689671,-0.32969206,0.32969208,0.99689671,61.461147,381.22209)"
         points="114.941,-96.0879 106.482,-102.467 112.307,-106.35 "
         id="polygon1071"
         style="display:inline;fill:#000000;stroke:#000000;stroke-width:0.800777;stroke-miterlimit:4;stroke-dasharray:none" />
    </g>
    <circle
       r="18"
       style="display:inline;fill:#ff0000;stroke:#000000;stroke-width:1;stroke-miterlimit:4;stroke-dasharray:none"
       id="circle1314"
       cy="320"
       cx="119" />
    <circle
       cx="159"
       cy="260"
       id="circle1324"
       style="display:inline;fill:#000000;stroke:#000000;stroke-width:1"
       r="18" />
    <g
       style="display:inline"
       id="g980"
       transform="translate(77,48)">
      <path
         mask="none"
         inkscape:connector-curvature="0"
         style="fill:#000000;fill-opacity:1;fill-rule:evenodd;stroke:none;stroke-width:0.95"
         d="m 20.075867,177.94299 c 0,10.10793 -8.13194,18.23987 -18.2398654,18.23987 -10.1079249,0 -18.2398646,-8.13194 -18.2398646,-18.23987 0,-10.10792 8.1319397,-18.23986 18.2398646,-18.23986 10.1079254,0 18.2398654,8.13194 18.2398654,18.23986 z"
         id="path148" />
      <path
         mask="none"
         inkscape:connector-curvature="0"
         style="fill:#ff0000;fill-opacity:1;fill-rule:evenodd;stroke:none;stroke-width:0.9215"
         d="m 1.9898428,160.01245 v 35.97509 l -3.3173762,-0.44231 -3.1699359,-0.95835 -2.5801807,-1.25323 -2.0641449,-1.40068 -2.4327421,-2.35902 -1.769267,-2.35902 -1.179512,-2.21158 -1.105791,-3.16994 -0.368597,-2.87505 v -2.6539 l 0.516036,-2.6539 1.032072,-2.6539 1.105792,-2.35902 1.769267,-2.35903 2.137864,-2.21158 2.4327421,-1.54811 2.4327416,-1.25323 2.5064615,-0.88463 1.69554802,-0.29488 z"
         id="path152" />
      <circle
         r="18"
         cy="177.8125"
         cx="1.84375"
         id="path975"
         style="color:#000000;clip-rule:nonzero;display:inline;overflow:visible;visibility:visible;opacity:1;isolation:auto;mix-blend-mode:normal;color-interpolation:sRGB;color-interpolation-filters:linearRGB;solid-color:#000000;solid-opacity:1;fill:none;fill-opacity:1;fill-rule:nonzero;stroke:#000000;stroke-width:1;stroke-linecap:butt;stroke-linejoin:miter;stroke-miterlimit:4;stroke-dasharray:none;stroke-dashoffset:0;stroke-opacity:1;color-rendering:auto;image-rendering:auto;shape-rendering:auto;text-rendering:auto;enable-background:accumulate" />
    </g>
    <g
       transform="translate(77,268)"
       id="g988"
       style="display:inline">
      <path
         id="path982"
         d="m 20.075867,177.94299 c 0,10.10793 -8.13194,18.23987 -18.2398654,18.23987 -10.1079249,0 -18.2398646,-8.13194 -18.2398646,-18.23987 0,-10.10792 8.1319397,-18.23986 18.2398646,-18.23986 10.1079254,0 18.2398654,8.13194 18.2398654,18.23986 z"
         style="fill:#000000;fill-opacity:1;fill-rule:evenodd;stroke:none;stroke-width:0.95"
         inkscape:connector-curvature="0"
         mask="none" />
      <path
         id="path984"
         d="m 1.9898428,160.01245 v 35.97509 l -3.3173762,-0.44231 -3.1699359,-0.95835 -2.5801807,-1.25323 -2.0641449,-1.40068 -2.4327421,-2.35902 -1.769267,-2.35902 -1.179512,-2.21158 -1.105791,-3.16994 -0.368597,-2.87505 v -2.6539 l 0.516036,-2.6539 1.032072,-2.6539 1.105792,-2.35902 1.769267,-2.35903 2.137864,-2.21158 2.4327421,-1.54811 2.4327416,-1.25323 2.5064615,-0.88463 1.69554802,-0.29488 z"
         style="fill:#ff0000;fill-opacity:1;fill-rule:evenodd;stroke:none;stroke-width:0.9215"
         inkscape:connector-curvature="0"
         mask="none" />
      <circle
         style="color:#000000;clip-rule:nonzero;display:inline;overflow:visible;visibility:visible;opacity:1;isolation:auto;mix-blend-mode:normal;color-interpolation:sRGB;color-interpolation-filters:linearRGB;solid-color:#000000;solid-opacity:1;fill:none;fill-opacity:1;fill-rule:nonzero;stroke:#000000;stroke-width:1;stroke-linecap:butt;stroke-linejoin:miter;stroke-miterlimit:4;stroke-dasharray:none;stroke-dashoffset:0;stroke-opacity:1;color-rendering:auto;image-rendering:auto;shape-rendering:auto;text-rendering:auto;enable-background:accumulate"
         id="circle986"
         cx="1.84375"
         cy="177.8125"
         r="18" />
    </g>
    <circle
       r="18"
       style="display:inline;fill:#000000;stroke:#000000;stroke-width:1"
       id="circle996"
       cy="540"
       cx="159" />
    <circle
       cx="119"
       cy="480"
       id="circle1038"
       style="display:inline;fill:#ff0000;stroke:#000000;stroke-width:1;stroke-miterlimit:4;stroke-dasharray:none"
       r="18" />
    <g
       style="display:inline"
       id="g1104"
       transform="translate(77,768)">
      <path
         mask="none"
         inkscape:connector-curvature="0"
         style="fill:#000000;fill-opacity:1;fill-rule:evenodd;stroke:none;stroke-width:0.95"
         d="m 20.075867,177.94299 c 0,10.10793 -8.13194,18.23987 -18.2398654,18.23987 -10.1079249,0 -18.2398646,-8.13194 -18.2398646,-18.23987 0,-10.10792 8.1319397,-18.23986 18.2398646,-18.23986 10.1079254,0 18.2398654,8.13194 18.2398654,18.23986 z"
         id="path1098" />
      <path
         mask="none"
         inkscape:connector-curvature="0"
         style="fill:#ff0000;fill-opacity:1;fill-rule:evenodd;stroke:none;stroke-width:0.9215"
         d="m 1.9898428,160.01245 v 35.97509 l -3.3173762,-0.44231 -3.1699359,-0.95835 -2.5801807,-1.25323 -2.0641449,-1.40068 -2.4327421,-2.35902 -1.769267,-2.35902 -1.179512,-2.21158 -1.105791,-3.16994 -0.368597,-2.87505 v -2.6539 l 0.516036,-2.6539 1.032072,-2.6539 1.105792,-2.35902 1.769267,-2.35903 2.137864,-2.21158 2.4327421,-1.54811 2.4327416,-1.25323 2.5064615,-0.88463 1.69554802,-0.29488 z"
         id="path1100" />
      <circle
         r="18"
         cy="177.8125"
         cx="1.84375"
         id="circle1102"
         style="color:#000000;clip-rule:nonzero;display:inline;overflow:visible;visibility:visible;opacity:1;isolation:auto;mix-blend-mode:normal;color-interpolation:sRGB;color-interpolation-filters:linearRGB;solid-color:#000000;solid-opacity:1;fill:none;fill-opacity:1;fill-rule:nonzero;stroke:#000000;stroke-width:1;stroke-linecap:butt;stroke-linejoin:miter;stroke-miterlimit:4;stroke-dasharray:none;stroke-dashoffset:0;stroke-opacity:1;color-rendering:auto;image-rendering:auto;shape-rendering:auto;text-rendering:auto;enable-background:accumulate" />
    </g>
    <circle
       cx="159"
       cy="1040"
       id="circle1106"
       style="display:inline;fill:#ff0000;stroke:#000000;stroke-width:1"
       r="18" />
    <circle
       r="18"
       style="display:inline;fill:#000000;stroke:#000000;stroke-width:1;stroke-miterlimit:4;stroke-dasharray:none"
       id="circle1116"
       cy="980"
       cx="119" />
    <g
       id="g1126"
       transform="rotate(18,-2302.961,650.23837)">
      <path
         style="display:inline;fill:none;stroke:#000000;stroke-width:1;stroke-miterlimit:4;stroke-dasharray:none"
         id="path1122"
         d="m 106.80774,219.11799 c 11.73812,8.88156 25.9336,19.62328 37.5583,28.41925"
         inkscape:connector-curvature="0" />
      <polygon
         style="display:inline;fill:#000000;stroke:#000000;stroke-width:0.800777;stroke-miterlimit:4;stroke-dasharray:none"
         id="polygon1124"
         points="112.307,-106.35 114.941,-96.0879 106.482,-102.467 "
         transform="matrix(0.99689671,-0.32969206,0.32969208,0.99689671,61.461147,381.22209)" />
    </g>
    <g
       transform="rotate(3,-5230.9548,611.57306)"
       id="g987"
       style="display:inline">
      <path
         inkscape:connector-curvature="0"
         d="m 67.16443,438.8198 c 11.73812,8.88201 25.9336,19.62328 37.5583,28.41925"
         id="path983"
         style="display:inline;fill:none;stroke:#000000;stroke-width:1;stroke-miterlimit:4;stroke-dasharray:none" />
      <polygon
         transform="matrix(1,-0.32969206,0.32969208,1,21.461153,601.22209)"
         points="112.307,-106.35 114.941,-96.0879 106.482,-102.467 "
         id="polygon985"
         style="display:inline;fill:#000000;stroke:#000000;stroke-width:0.800777;stroke-miterlimit:4;stroke-dasharray:none" />
    </g>
    <g
       style="display:inline"
       id="g995"
       transform="translate(77,548)">
      <path
         mask="none"
         inkscape:connector-curvature="0"
         style="fill:#000000;fill-opacity:1;fill-rule:evenodd;stroke:none;stroke-width:0.95"
         d="m 20.075867,177.94299 c 0,10.10793 -8.13194,18.23987 -18.2398654,18.23987 -10.1079249,0 -18.2398646,-8.13194 -18.2398646,-18.23987 0,-10.10792 8.1319397,-18.23986 18.2398646,-18.23986 10.1079254,0 18.2398654,8.13194 18.2398654,18.23986 z"
         id="path989" />
      <path
         mask="none"
         inkscape:connector-curvature="0"
         style="fill:#ff0000;fill-opacity:1;fill-rule:evenodd;stroke:none;stroke-width:0.9215"
         d="m 1.9898428,160.01245 v 35.97509 l -3.3173762,-0.44231 -3.1699359,-0.95835 -2.5801807,-1.25323 -2.0641449,-1.40068 -2.4327421,-2.35902 -1.769267,-2.35902 -1.179512,-2.21158 -1.105791,-3.16994 -0.368597,-2.87505 v -2.6539 l 0.516036,-2.6539 1.032072,-2.6539 1.105792,-2.35902 1.769267,-2.35903 2.137864,-2.21158 2.4327421,-1.54811 2.4327416,-1.25323 2.5064615,-0.88463 1.69554802,-0.29488 z"
         id="path991" />
      <circle
         r="18"
         cy="177.8125"
         cx="1.84375"
         id="circle993"
         style="color:#000000;clip-rule:nonzero;display:inline;overflow:visible;visibility:visible;opacity:1;isolation:auto;mix-blend-mode:normal;color-interpolation:sRGB;color-interpolation-filters:linearRGB;solid-color:#000000;solid-opacity:1;fill:none;fill-opacity:1;fill-rule:nonzero;stroke:#000000;stroke-width:1;stroke-linecap:butt;stroke-linejoin:miter;stroke-miterlimit:4;stroke-dasharray:none;stroke-dashoffset:0;stroke-opacity:1;color-rendering:auto;image-rendering:auto;shape-rendering:auto;text-rendering:auto;enable-background:accumulate" />
    </g>
    <circle
       cx="159"
       cy="820"
       id="circle997"
       style="display:inline;fill:#ff0000;stroke:#000000;stroke-width:1"
       r="18" />
    <circle
       r="18"
       style="display:inline;fill:#000000;stroke:#000000;stroke-width:1;stroke-miterlimit:4;stroke-dasharray:none"
       id="circle999"
       cy="760"
       cx="119" />
    <g
       id="g1005"
       transform="rotate(18,-1608.4483,540.23837)">
      <path
         style="display:inline;fill:none;stroke:#000000;stroke-width:1;stroke-miterlimit:4;stroke-dasharray:none"
         id="path1001"
         d="m 106.80774,219.11799 c 11.73812,8.88156 25.9336,19.62328 37.5583,28.41925"
         inkscape:connector-curvature="0" />
      <polygon
         style="display:inline;fill:#000000;stroke:#000000;stroke-width:0.800777;stroke-miterlimit:4;stroke-dasharray:none"
         id="polygon1003"
         points="114.941,-96.0879 106.482,-102.467 112.307,-106.35 "
         transform="matrix(0.99689671,-0.32969206,0.32969208,0.99689671,61.461147,381.22209)" />
    </g>
  </g>
  <g
     inkscape:groupmode="layer"
     id="layer3"
     inkscape:label="text"
     style="display:inline"
     transform="translate(-40.10077,-204)">
    <g
       aria-label="C"
       id="text1338"
       style="font-style:normal;font-variant:normal;font-weight:bold;font-stretch:normal;font-size:14px;line-height:0%;font-family:Arial;-inkscape-font-specification:'Arial Bold';text-anchor:middle;display:inline;fill:#ffffff;stroke-width:1">
      <path
         d="m 122.01064,320.32541 1.96191,0.62207 q -0.45117,1.64062 -1.50391,2.44043 -1.0459,0.79297 -2.65918,0.79297 -1.99609,0 -3.28125,-1.36035 -1.28515,-1.36719 -1.28515,-3.73243 0,-2.50195 1.29199,-3.88281 1.29199,-1.38769 3.39746,-1.38769 1.83887,0 2.98731,1.08691 0.68359,0.64258 1.02539,1.8457 l -2.00293,0.47852 q -0.17774,-0.7793 -0.74512,-1.23047 -0.56055,-0.45117 -1.36719,-0.45117 -1.11426,0 -1.81152,0.7998 -0.69043,0.79981 -0.69043,2.59082 0,1.90039 0.68359,2.70703 0.6836,0.80665 1.77735,0.80665 0.80664,0 1.38769,-0.5127 0.58106,-0.5127 0.83399,-1.61328 z"
         style="font-style:normal;font-variant:normal;font-weight:bold;font-stretch:normal;font-size:14px;line-height:0%;font-family:Arial;-inkscape-font-specification:'Arial Bold';text-anchor:middle;display:inline;fill:#ffffff;stroke-width:1"
         id="path1046" />
    </g>
    <g
       aria-label="P"
       id="text1342"
       style="font-style:normal;font-variant:normal;font-weight:bold;font-stretch:normal;font-size:14px;line-height:0%;font-family:Arial;-inkscape-font-specification:'Arial Bold';text-anchor:middle;display:inline;fill:#ffffff;stroke-width:1">
      <path
         d="m 75.949623,232.4205 v -10.02148 h 3.24707 q 1.845704,0 2.40625,0.15039 0.861329,0.22558 1.442383,0.98437 0.581055,0.75196 0.581055,1.94825 0,0.92285 -0.334961,1.55175 -0.334961,0.62891 -0.854492,0.99121 -0.512696,0.35547 -1.045899,0.47168 -0.724609,0.14356 -2.098632,0.14356 h -1.319336 v 3.78027 z m 2.023438,-8.32617 v 2.84375 h 1.107421 q 1.19629,0 1.59961,-0.15723 0.40332,-0.15722 0.628906,-0.49218 0.232422,-0.33497 0.232422,-0.7793 0,-0.54688 -0.321289,-0.90234 -0.321289,-0.35547 -0.813477,-0.44434 -0.362304,-0.0684 -1.456054,-0.0684 z"
         style="font-style:normal;font-variant:normal;font-weight:bold;font-stretch:normal;font-size:14px;line-height:0%;font-family:Arial;-inkscape-font-specification:'Arial Bold';text-anchor:middle;display:inline;fill:#ffffff;stroke-width:1"
         id="path1043" />
    </g>
    <g
       aria-label="S"
       id="text1344"
       style="font-style:normal;font-variant:normal;font-weight:bold;font-stretch:normal;font-size:14px;line-height:0%;font-family:Arial;-inkscape-font-specification:'Arial Bold';text-anchor:middle;display:inline;fill:#ffffff;stroke-width:1">
      <path
         d="m 155.15137,260.37354 1.96875,-0.19141 q 0.17773,0.99121 0.71777,1.45605 0.54688,0.46485 1.46973,0.46485 0.97754,0 1.46972,-0.41016 0.49903,-0.41699 0.49903,-0.9707 0,-0.35547 -0.21192,-0.60156 -0.20508,-0.25293 -0.72461,-0.4375 -0.35547,-0.12305 -1.62011,-0.4375 -1.62696,-0.40332 -2.28321,-0.99122 -0.92285,-0.82714 -0.92285,-2.0166 0,-0.76562 0.43067,-1.42871 0.4375,-0.66992 1.25097,-1.01855 0.82031,-0.34864 1.97559,-0.34864 1.88672,0 2.83691,0.82715 0.95703,0.82715 1.00489,2.20801 l -2.02344,0.0889 q -0.12989,-0.77246 -0.56055,-1.10742 -0.42383,-0.3418 -1.27832,-0.3418 -0.88184,0 -1.38086,0.3623 -0.32129,0.23243 -0.32129,0.62207 0,0.35547 0.30078,0.6084 0.38282,0.32129 1.85938,0.66992 1.47656,0.34864 2.18066,0.72461 0.71094,0.36914 1.10742,1.01856 0.40332,0.64258 0.40332,1.59277 0,0.86133 -0.47851,1.61328 -0.47852,0.75196 -1.35352,1.1211 -0.875,0.3623 -2.18066,0.3623 -1.90039,0 -2.91895,-0.875 -1.01855,-0.88183 -1.21679,-2.56347 z"
         style="font-style:normal;font-variant:normal;font-weight:bold;font-stretch:normal;font-size:14px;line-height:0%;font-family:Arial;-inkscape-font-specification:'Arial Bold';text-anchor:middle;display:inline;fill:#ffffff;stroke-width:1"
         id="path1040" />
    </g>
    <g
       aria-label="P"
       id="text1154"
       style="font-style:normal;font-variant:normal;font-weight:bold;font-stretch:normal;font-size:14px;line-height:0%;font-family:Arial;-inkscape-font-specification:'Arial Bold';text-anchor:middle;display:inline;fill:#ffffff;stroke-width:1">
      <path
         d="m 75.949608,452.42053 v -10.02148 h 3.24707 q 1.845703,0 2.40625,0.15039 0.861328,0.22558 1.442383,0.98437 0.581055,0.75196 0.581055,1.94825 0,0.92285 -0.334961,1.55175 -0.334961,0.62891 -0.854492,0.99121 -0.512696,0.35547 -1.045899,0.47168 -0.724609,0.14356 -2.098633,0.14356 h -1.319336 v 3.78027 z m 2.023437,-8.32617 v 2.84375 h 1.107422 q 1.196289,0 1.59961,-0.15723 0.40332,-0.15722 0.628906,-0.49218 0.232422,-0.33496 0.232422,-0.7793 0,-0.54688 -0.321289,-0.90234 -0.321289,-0.35547 -0.813477,-0.44434 -0.362305,-0.0684 -1.456055,-0.0684 z"
         style="font-style:normal;font-variant:normal;font-weight:bold;font-stretch:normal;font-size:14px;line-height:0%;font-family:Arial;-inkscape-font-specification:'Arial Bold';text-anchor:middle;display:inline;fill:#ffffff;stroke-width:1"
         id="path1037" />
    </g>
    <g
       aria-label="S"
       id="text1020"
       style="font-style:normal;font-variant:normal;font-weight:bold;font-stretch:normal;font-size:14px;line-height:0%;font-family:Arial;-inkscape-font-specification:'Arial Bold';text-anchor:middle;display:inline;fill:#ffffff;stroke-width:1">
      <path
         d="m 155.15137,540.37354 1.96875,-0.19141 q 0.17773,0.99121 0.71777,1.45605 0.54688,0.46485 1.46973,0.46485 0.97754,0 1.46972,-0.41016 0.49903,-0.41699 0.49903,-0.9707 0,-0.35547 -0.21192,-0.60156 -0.20508,-0.25293 -0.72461,-0.4375 -0.35547,-0.12305 -1.62011,-0.4375 -1.62696,-0.40332 -2.28321,-0.99122 -0.92285,-0.82714 -0.92285,-2.0166 0,-0.76562 0.43067,-1.42871 0.4375,-0.66992 1.25097,-1.01855 0.82031,-0.34864 1.97559,-0.34864 1.88672,0 2.83691,0.82715 0.95703,0.82715 1.00489,2.20801 l -2.02344,0.0889 q -0.12989,-0.77246 -0.56055,-1.10742 -0.42383,-0.3418 -1.27832,-0.3418 -0.88184,0 -1.38086,0.3623 -0.32129,0.23243 -0.32129,0.62207 0,0.35547 0.30078,0.6084 0.38282,0.32129 1.85938,0.66992 1.47656,0.34864 2.18066,0.72461 0.71094,0.36914 1.10742,1.01856 0.40332,0.64258 0.40332,1.59277 0,0.86133 -0.47851,1.61328 -0.47852,0.75196 -1.35352,1.1211 -0.875,0.3623 -2.18066,0.3623 -1.90039,0 -2.91895,-0.875 -1.01855,-0.88183 -1.21679,-2.56347 z"
         style="font-style:normal;font-variant:normal;font-weight:bold;font-stretch:normal;font-size:14px;line-height:0%;font-family:Arial;-inkscape-font-specification:'Arial Bold';text-anchor:middle;display:inline;fill:#ffffff;stroke-width:1"
         id="path1034" />
    </g>
    <g
       aria-label="C"
       id="text1042"
       style="font-style:normal;font-variant:normal;font-weight:bold;font-stretch:normal;font-size:14px;line-height:0%;font-family:Arial;-inkscape-font-specification:'Arial Bold';text-anchor:middle;display:inline;fill:#ffffff;stroke-width:1">
      <path
         d="m 122.01064,480.32544 1.96191,0.62207 q -0.45117,1.64062 -1.50391,2.44043 -1.0459,0.79297 -2.65918,0.79297 -1.99609,0 -3.28125,-1.36035 -1.28515,-1.36719 -1.28515,-3.73243 0,-2.50195 1.29199,-3.88281 1.29199,-1.38769 3.39746,-1.38769 1.83887,0 2.98731,1.08691 0.68359,0.64258 1.02539,1.8457 l -2.00293,0.47852 q -0.17774,-0.7793 -0.74512,-1.23047 -0.56055,-0.45117 -1.36719,-0.45117 -1.11426,0 -1.81152,0.7998 -0.69043,0.79981 -0.69043,2.59082 0,1.90039 0.68359,2.70704 0.6836,0.80664 1.77735,0.80664 0.80664,0 1.38769,-0.5127 0.58106,-0.51269 0.83399,-1.61328 z"
         style="font-style:normal;font-variant:normal;font-weight:bold;font-stretch:normal;font-size:14px;line-height:0%;font-family:Arial;-inkscape-font-specification:'Arial Bold';text-anchor:middle;display:inline;fill:#ffffff;stroke-width:1"
         id="path1031" />
    </g>
    <g
       aria-label="P"
       id="text1130"
       style="font-style:normal;font-variant:normal;font-weight:bold;font-stretch:normal;font-size:14px;line-height:0%;font-family:Arial;-inkscape-font-specification:'Arial Bold';text-anchor:middle;display:inline;fill:#ffffff;stroke-width:1">
      <path
         d="m 75.949623,952.42053 v -10.02148 h 3.24707 q 1.845704,0 2.40625,0.15039 0.861329,0.22558 1.442383,0.98437 0.581055,0.75196 0.581055,1.94825 0,0.92285 -0.334961,1.55175 -0.334961,0.62891 -0.854492,0.99121 -0.512696,0.35547 -1.045899,0.47168 -0.724609,0.14356 -2.098632,0.14356 h -1.319336 v 3.78027 z m 2.023438,-8.32617 v 2.84375 h 1.107421 q 1.19629,0 1.59961,-0.15723 0.40332,-0.15722 0.628906,-0.49218 0.232422,-0.33496 0.232422,-0.7793 0,-0.54688 -0.321289,-0.90234 -0.321289,-0.35547 -0.813477,-0.44434 -0.362304,-0.0684 -1.456054,-0.0684 z"
         style="font-style:normal;font-variant:normal;font-weight:bold;font-stretch:normal;font-size:14px;line-height:0%;font-family:Arial;-inkscape-font-specification:'Arial Bold';text-anchor:middle;display:inline;fill:#ffffff;stroke-width:1"
         id="path1028" />
    </g>
    <g
       aria-label="D"
       id="text1132"
       style="font-style:normal;font-variant:normal;font-weight:bold;font-stretch:normal;font-size:14px;line-height:0%;font-family:Arial;-inkscape-font-specification:'Arial Bold';text-anchor:middle;display:inline;fill:#ffffff;stroke-width:1">
      <path
         d="m 155.271,1033.6128 h 3.69824 q 1.25097,0 1.90722,0.1914 0.88184,0.2598 1.51075,0.9229 0.6289,0.663 0.95703,1.6269 0.32812,0.957 0.32812,2.3652 0,1.2373 -0.30761,2.1329 -0.37598,1.0937 -1.07325,1.7705 -0.52636,0.5127 -1.42187,0.7998 -0.66992,0.2119 -1.79102,0.2119 H 155.271 Z m 2.02343,1.6953 v 6.6377 h 1.51075 q 0.84765,0 1.22363,-0.096 0.49219,-0.123 0.81348,-0.417 0.32812,-0.2939 0.5332,-0.9639 0.20508,-0.6767 0.20508,-1.8388 0,-1.1621 -0.20508,-1.7842 -0.20508,-0.6221 -0.57422,-0.9707 -0.36914,-0.3486 -0.93652,-0.4717 -0.42383,-0.096 -1.66114,-0.096 z"
         style="font-style:normal;font-variant:normal;font-weight:bold;font-stretch:normal;font-size:14px;line-height:0%;font-family:Arial;-inkscape-font-specification:'Arial Bold';text-anchor:middle;display:inline;fill:#ffffff;stroke-width:1"
         id="path1025" />
    </g>
    <g
       aria-label="S"
       id="text1134"
       style="font-style:normal;font-variant:normal;font-weight:bold;font-stretch:normal;font-size:14px;line-height:0%;font-family:Arial;-inkscape-font-specification:'Arial Bold';text-anchor:middle;display:inline;fill:#ffffff;stroke-width:1">
      <path
         d="m 115.47206,980.74927 1.96875,-0.19141 q 0.17774,0.99121 0.71777,1.45606 0.54688,0.46484 1.46973,0.46484 0.97754,0 1.46973,-0.41016 0.49902,-0.41699 0.49902,-0.9707 0,-0.35547 -0.21191,-0.60156 -0.20508,-0.25293 -0.72461,-0.4375 -0.35547,-0.12305 -1.62012,-0.4375 -1.62695,-0.40332 -2.2832,-0.99121 -0.92285,-0.82715 -0.92285,-2.0166 0,-0.76563 0.43066,-1.42872 0.4375,-0.66992 1.25098,-1.01855 0.82031,-0.34863 1.97558,-0.34863 1.88672,0 2.83692,0.82715 0.95703,0.82714 1.00488,2.208 l -2.02344,0.0889 q -0.12988,-0.77246 -0.56055,-1.10742 -0.42382,-0.3418 -1.27832,-0.3418 -0.88183,0 -1.38085,0.36231 -0.32129,0.23242 -0.32129,0.62207 0,0.35547 0.30078,0.6084 0.38281,0.32128 1.85937,0.66992 1.47656,0.34863 2.18067,0.72461 0.71093,0.36914 1.10742,1.01855 0.40332,0.64258 0.40332,1.59277 0,0.86133 -0.47852,1.61329 -0.47851,0.75195 -1.35351,1.12109 -0.875,0.3623 -2.18067,0.3623 -1.90039,0 -2.91894,-0.875 -1.01856,-0.88183 -1.2168,-2.56347 z"
         style="font-style:normal;font-variant:normal;font-weight:bold;font-stretch:normal;font-size:14px;line-height:0%;font-family:Arial;-inkscape-font-specification:'Arial Bold';text-anchor:middle;display:inline;fill:#ffffff;stroke-width:1"
         id="path1022" />
    </g>
    <g
       aria-label="P"
       id="text1007"
       style="font-style:normal;font-variant:normal;font-weight:bold;font-stretch:normal;font-size:14px;line-height:0%;font-family:Arial;-inkscape-font-specification:'Arial Bold';text-anchor:middle;display:inline;fill:#ffffff;stroke-width:1">
      <path
         d="m 75.949623,732.42053 v -10.02148 h 3.24707 q 1.845704,0 2.40625,0.15039 0.861329,0.22558 1.442383,0.98437 0.581055,0.75196 0.581055,1.94825 0,0.92285 -0.334961,1.55175 -0.334961,0.62891 -0.854492,0.99121 -0.512696,0.35547 -1.045899,0.47168 -0.724609,0.14356 -2.098632,0.14356 h -1.319336 v 3.78027 z m 2.023438,-8.32617 v 2.84375 h 1.107421 q 1.19629,0 1.59961,-0.15723 0.40332,-0.15722 0.628906,-0.49218 0.232422,-0.33496 0.232422,-0.7793 0,-0.54688 -0.321289,-0.90234 -0.321289,-0.35547 -0.813477,-0.44434 -0.362304,-0.0684 -1.456054,-0.0684 z"
         style="font-style:normal;font-variant:normal;font-weight:bold;font-stretch:normal;font-size:14px;line-height:0%;font-family:Arial;-inkscape-font-specification:'Arial Bold';text-anchor:middle;display:inline;fill:#ffffff;stroke-width:1"
         id="path1019" />
    </g>
    <g
       aria-label="S"
       id="text1009"
       style="font-style:normal;font-variant:normal;font-weight:bold;font-stretch:normal;font-size:14px;line-height:0%;font-family:Arial;-inkscape-font-specification:'Arial Bold';text-anchor:middle;display:inline;fill:#ffffff;stroke-width:1">
      <path
         d="m 155.15137,820.37354 1.96875,-0.19141 q 0.17773,0.99121 0.71777,1.45605 0.54688,0.46485 1.46973,0.46485 0.97754,0 1.46972,-0.41016 0.49903,-0.41699 0.49903,-0.9707 0,-0.35547 -0.21192,-0.60156 -0.20508,-0.25293 -0.72461,-0.4375 -0.35547,-0.12305 -1.62011,-0.4375 -1.62696,-0.40332 -2.28321,-0.99122 -0.92285,-0.82714 -0.92285,-2.0166 0,-0.76562 0.43067,-1.42871 0.4375,-0.66992 1.25097,-1.01855 0.82031,-0.34864 1.97559,-0.34864 1.88672,0 2.83691,0.82715 0.95703,0.82715 1.00489,2.20801 l -2.02344,0.0889 q -0.12989,-0.77246 -0.56055,-1.10742 -0.42383,-0.3418 -1.27832,-0.3418 -0.88184,0 -1.38086,0.3623 -0.32129,0.23243 -0.32129,0.62207 0,0.35547 0.30078,0.6084 0.38282,0.32129 1.85938,0.66992 1.47656,0.34864 2.18066,0.72461 0.71094,0.36914 1.10742,1.01856 0.40332,0.64258 0.40332,1.59277 0,0.86133 -0.47851,1.61328 -0.47852,0.75196 -1.35352,1.1211 -0.875,0.3623 -2.18066,0.3623 -1.90039,0 -2.91895,-0.875 -1.01855,-0.88183 -1.21679,-2.56347 z"
         style="font-style:normal;font-variant:normal;font-weight:bold;font-stretch:normal;font-size:14px;line-height:0%;font-family:Arial;-inkscape-font-specification:'Arial Bold';text-anchor:middle;display:inline;fill:#ffffff;stroke-width:1"
         id="path1016" />
    </g>
    <g
       aria-label="C"
       id="text1011"
       style="font-style:normal;font-variant:normal;font-weight:bold;font-stretch:normal;font-size:14px;line-height:0%;font-family:Arial;-inkscape-font-specification:'Arial Bold';letter-spacing:0px;text-anchor:middle;display:inline;fill:#ffffff;stroke-width:1">
      <path
         d="m 122.01064,760.32544 1.96191,0.62207 q -0.45117,1.64062 -1.50391,2.44043 -1.0459,0.79297 -2.65918,0.79297 -1.99609,0 -3.28125,-1.36035 -1.28515,-1.36719 -1.28515,-3.73243 0,-2.50195 1.29199,-3.88281 1.29199,-1.38769 3.39746,-1.38769 1.83887,0 2.98731,1.08691 0.68359,0.64258 1.02539,1.8457 l -2.00293,0.47852 q -0.17774,-0.7793 -0.74512,-1.23047 -0.56055,-0.45117 -1.36719,-0.45117 -1.11426,0 -1.81152,0.7998 -0.69043,0.79981 -0.69043,2.59082 0,1.90039 0.68359,2.70704 0.6836,0.80664 1.77735,0.80664 0.80664,0 1.38769,-0.5127 0.58106,-0.51269 0.83399,-1.61328 z"
         style="font-style:normal;font-variant:normal;font-weight:bold;font-stretch:normal;font-size:14px;line-height:0%;font-family:Arial;-inkscape-font-specification:'Arial Bold';letter-spacing:0px;text-anchor:middle;display:inline;fill:#ffffff;stroke-width:1"
         id="path1013" />
    </g>
  </g>
</svg>
