<?xml version="1.0" encoding="UTF-8" standalone="no"?>
<svg
   xmlns:dc="http://purl.org/dc/elements/1.1/"
   xmlns:cc="http://creativecommons.org/ns#"
   xmlns:rdf="http://www.w3.org/1999/02/22-rdf-syntax-ns#"
   xmlns:svg="http://www.w3.org/2000/svg"
   xmlns="http://www.w3.org/2000/svg"
   xmlns:sodipodi="http://sodipodi.sourceforge.net/DTD/sodipodi-0.dtd"
   xmlns:inkscape="http://www.inkscape.org/namespaces/inkscape"
   width="141.99962"
   height="579"
   viewBox="0 0 141.99961 579"
   id="svg2"
   version="1.1"
   inkscape:version="1.0.2-2 (e86c870879, 2021-01-15)"
   sodipodi:docname="Red-black_tree_delete_case_B0t.svg"
   inkscape:export-filename=".\Red-black_tree_insert_case_Cr.png"
   inkscape:export-xdpi="72"
   inkscape:export-ydpi="72">
  <metadata
     id="metadata286">
    <rdf:RDF>
      <cc:Work
         rdf:about="">
        <dc:format>image/svg+xml</dc:format>
        <dc:type
           rdf:resource="http://purl.org/dc/dcmitype/StillImage" />
        <dc:title></dc:title>
      </cc:Work>
    </rdf:RDF>
  </metadata>
  <defs
     id="defs284" />
  <sodipodi:namedview
     pagecolor="#ffffff"
     bordercolor="#666666"
     borderopacity="1"
     objecttolerance="10"
     gridtolerance="10"
     guidetolerance="10"
     inkscape:pageopacity="0"
     inkscape:pageshadow="2"
     inkscape:window-width="968"
     inkscape:window-height="996"
     id="namedview282"
     showgrid="false"
     inkscape:zoom="1"
     inkscape:cx="78.39108"
     inkscape:cy="279.76119"
     inkscape:window-x="693"
     inkscape:window-y="21"
     inkscape:window-maximized="0"
     inkscape:current-layer="layer3"
     borderlayer="true"
     fit-margin-top="0"
     fit-margin-left="0"
     fit-margin-right="0"
     fit-margin-bottom="0"
     inkscape:document-rotation="0" />
  <g
     inkscape:groupmode="layer"
     id="layer2"
     inkscape:label="corners"
     transform="translate(-39.5,-204)"
     style="display:none">
    <rect
       style="color:#000000;clip-rule:nonzero;display:inline;overflow:visible;visibility:visible;opacity:1;isolation:auto;mix-blend-mode:normal;color-interpolation:sRGB;color-interpolation-filters:linearRGB;solid-color:#000000;solid-opacity:1;fill:#808080;fill-opacity:1;fill-rule:nonzero;stroke:#000000;stroke-width:4;stroke-linecap:butt;stroke-linejoin:miter;stroke-miterlimit:4;stroke-dasharray:none;stroke-dashoffset:0;stroke-opacity:1;color-rendering:auto;image-rendering:auto;shape-rendering:auto;text-rendering:auto;enable-background:accumulate"
       id="rect297"
       width="4"
       height="4"
       x="41.5"
       y="206" />
    <rect
       style="color:#000000;clip-rule:nonzero;display:inline;overflow:visible;visibility:visible;opacity:1;isolation:auto;mix-blend-mode:normal;color-interpolation:sRGB;color-interpolation-filters:linearRGB;solid-color:#000000;solid-opacity:1;fill:#808080;fill-opacity:1;fill-rule:nonzero;stroke:#000000;stroke-width:4;stroke-linecap:butt;stroke-linejoin:miter;stroke-miterlimit:4;stroke-dasharray:none;stroke-dashoffset:0;stroke-opacity:1;color-rendering:auto;image-rendering:auto;shape-rendering:auto;text-rendering:auto;enable-background:accumulate"
       id="rect299"
       width="4"
       height="4"
       x="175.49962"
       y="777" />
  </g>
  <g
     inkscape:groupmode="layer"
     id="layer1"
     inkscape:label="all"
     transform="translate(-39.5,-204)"
     style="display:inline">
    <g
       style="display:inline"
       id="g974"
       transform="translate(-1.500773,660)">
      <path
         inkscape:connector-curvature="0"
         d="M 132.56366,0.63442987 C 121.03999,9.2280991 107.10384,19.621657 95.691526,28.132522"
         id="path970"
         style="display:inline;fill:none;stroke:#000000;stroke-width:1;stroke-miterlimit:4;stroke-dasharray:none" />
      <polygon
         transform="matrix(-0.99689673,-0.32969206,-0.32969208,0.99689676,178.43491,162.37554)"
         points="114.941,-96.0879 106.482,-102.467 112.307,-106.35 "
         id="polygon972"
         style="display:inline;fill:#000000;stroke:#000000;stroke-width:0.800777;stroke-miterlimit:4;stroke-dasharray:none" />
    </g>
    <g
       transform="matrix(-0.97436995,0.22495101,0.22495102,0.97436995,145.86948,772.02763)"
       id="g1107"
       class="edge"
       style="display:inline">
      <title
         id="title1101">N1-&gt;dot2</title>
      <path
         inkscape:connector-curvature="0"
         d="m 57.028,-74.958 c 5.0907,7.6361 11.2475,16.8712 16.2887,24.4331"
         id="path1103"
         style="fill:none;stroke:#000000" />
      <polygon
         points="78.9414,-42.0879 70.4822,-48.4669 76.3065,-52.3499 "
         id="polygon1105"
         style="fill:#000000;stroke:#000000" />
    </g>
    <g
       style="display:inline"
       class="edge"
       id="g1115"
       transform="rotate(13,-3381.9055,439.50205)">
      <title
         id="title1109">N1-&gt;dot2</title>
      <path
         style="fill:none;stroke:#000000"
         id="path1111"
         d="m 57.028,-74.958 c 5.0907,7.6361 11.2475,16.8712 16.2887,24.4331"
         inkscape:connector-curvature="0" />
      <polygon
         style="fill:#000000;stroke:#000000"
         id="polygon1113"
         points="76.3065,-52.3499 78.9414,-42.0879 70.4822,-48.4669 " />
    </g>
    <g
       id="g892">
      <path
         style="display:inline;fill:#0000ff;stroke:#0000ff;stroke-width:1;stroke-miterlimit:4;stroke-dasharray:none"
         id="path1037-8"
         d="m 89.082733,222.58556 c -13.161474,5.78115 -29.078482,12.77337 -42.112827,18.49889"
         inkscape:connector-curvature="0" />
      <polygon
         style="display:inline;fill:#0000ff;stroke:#0000ff;stroke-width:0.800777;stroke-miterlimit:4;stroke-dasharray:none"
         id="polygon1039-3"
         points="112.307,-106.35 114.941,-96.0879 106.482,-102.467 "
         transform="matrix(-0.88259491,-0.5687936,-0.56879362,0.88259494,93.223112,391.53461)" />
    </g>
    <g
       id="g1079">
      <path
         inkscape:connector-curvature="0"
         d="m 81.380054,228.41447 c 18.671456,7.62038 41.252066,16.83716 59.743196,24.38421"
         id="path1326"
         style="display:inline;fill:none;stroke:#000000;stroke-width:1;stroke-miterlimit:4;stroke-dasharray:none" />
      <polygon
         transform="matrix(0.87759769,-0.57647393,0.57647395,0.87759769,95.643467,403.38569)"
         points="112.307,-106.35 114.941,-96.0879 106.482,-102.467 "
         id="polygon1328"
         style="display:inline;fill:#000000;stroke:#000000;stroke-width:0.800777;stroke-miterlimit:4;stroke-dasharray:none" />
    </g>
    <circle
       cx="159"
       cy="260"
       id="circle1324"
       style="display:inline;fill:#000000;stroke:#000000;stroke-width:1"
       r="18" />
    <ellipse
       style="display:inline;opacity:1;fill:#000000;fill-opacity:1;fill-rule:evenodd;stroke:#000000;stroke-width:0;stroke-linecap:round;stroke-linejoin:round;stroke-miterlimit:4;stroke-dasharray:none;stroke-dashoffset:0;stroke-opacity:1"
       id="path4862"
       cx="78.877693"
       cy="227.87106"
       rx="18.011864"
       ry="18.011868" />
    <circle
       style="display:inline;opacity:1;fill:#000000;fill-opacity:1;fill-rule:evenodd;stroke:#000000;stroke-width:0.999859;stroke-linecap:round;stroke-linejoin:round;stroke-miterlimit:4;stroke-dasharray:none;stroke-dashoffset:0;stroke-opacity:1"
       id="path4834"
       cx="79"
       cy="228"
       r="18" />
    <g
       id="g1063"
       transform="translate(0,220)">
      <path
         style="display:inline;fill:none;stroke:#000000;stroke-width:1;stroke-miterlimit:4;stroke-dasharray:none"
         id="path1059"
         d="m 81.380054,228.41447 c 18.671456,7.62038 41.252066,16.83716 59.743196,24.38421"
         inkscape:connector-curvature="0" />
      <polygon
         style="display:inline;fill:#000000;stroke:#000000;stroke-width:0.800777;stroke-miterlimit:4;stroke-dasharray:none"
         id="polygon1061"
         points="114.941,-96.0879 106.482,-102.467 112.307,-106.35 "
         transform="matrix(0.87759769,-0.57647393,0.57647395,0.87759769,95.643467,403.38569)" />
    </g>
    <circle
       r="18"
       style="display:inline;fill:#ff0000;stroke:#000000;stroke-width:1"
       id="circle1081"
       cy="480"
       cx="159" />
    <ellipse
       ry="18.011868"
       rx="18.011864"
       cy="447.87106"
       cx="78.877693"
       id="ellipse1087"
       style="display:inline;opacity:1;fill:#000000;fill-opacity:1;fill-rule:evenodd;stroke:#000000;stroke-width:0;stroke-linecap:round;stroke-linejoin:round;stroke-miterlimit:4;stroke-dasharray:none;stroke-dashoffset:0;stroke-opacity:1" />
    <circle
       cy="448"
       cx="79"
       id="circle1089"
       style="display:inline;opacity:1;fill:#000000;fill-opacity:1;fill-rule:evenodd;stroke:#000000;stroke-width:1;stroke-linecap:round;stroke-linejoin:round;stroke-miterlimit:4;stroke-dasharray:none;stroke-dashoffset:0;stroke-opacity:1"
       r="18" />
    <circle
       style="display:inline;opacity:1;fill:#000000;fill-opacity:1;fill-rule:evenodd;stroke:#0000ff;stroke-width:4;stroke-linecap:round;stroke-linejoin:round;stroke-miterlimit:4;stroke-dasharray:none;stroke-dashoffset:0;stroke-opacity:1"
       id="circle838"
       cx="79"
       cy="700"
       r="16.5" />
    <circle
       cy="668"
       cx="118.5"
       id="circle976"
       style="display:inline;fill:#ffffff;fill-opacity:1;fill-rule:evenodd;stroke:#000000;stroke-width:1;stroke-linecap:round;stroke-linejoin:round;stroke-miterlimit:4;stroke-dasharray:none;stroke-dashoffset:0;stroke-opacity:1"
       r="18" />
    <text
       style="font-style:normal;font-variant:normal;font-weight:bold;font-stretch:normal;font-size:16px;line-height:0%;font-family:Arial;-inkscape-font-specification:'Arial Bold';text-anchor:middle;display:inline;fill:#000000;stroke-width:1;word-spacing:0px;letter-spacing:0px"
       id="text978"
       font-size="14.00"
       font-weight="bold"
       y="672.92053"
       x="118.49924">?</text>
    <polygon
       points="11,0 0,-27 -11,0 "
       id="polygon1083"
       style="display:inline;fill:none;stroke:#000000"
       transform="matrix(-1,0,0,1,59,778)" />
    <polygon
       transform="matrix(-1,0,0,1,99,778)"
       style="display:inline;fill:none;stroke:#000000"
       id="polygon1085"
       points="0,-27 -11,0 11,0 " />
  </g>
  <g
     inkscape:groupmode="layer"
     id="layer3"
     inkscape:label="text"
     style="display:inline"
     transform="translate(-40.10077,-204)">
    <g
       aria-label="P"
       id="text1342"
       style="font-style:normal;font-variant:normal;font-weight:bold;font-stretch:normal;font-size:14px;line-height:0%;font-family:Arial;-inkscape-font-specification:'Arial Bold';text-anchor:middle;display:inline;fill:#ffffff;stroke-width:1">
      <path
         d="m 75.949623,232.4205 v -10.02148 h 3.24707 q 1.845704,0 2.40625,0.15039 0.861329,0.22558 1.442383,0.98437 0.581055,0.75196 0.581055,1.94825 0,0.92285 -0.334961,1.55175 -0.334961,0.62891 -0.854492,0.99121 -0.512696,0.35547 -1.045899,0.47168 -0.724609,0.14356 -2.098632,0.14356 h -1.319336 v 3.78027 z m 2.023438,-8.32617 v 2.84375 h 1.107421 q 1.19629,0 1.59961,-0.15723 0.40332,-0.15722 0.628906,-0.49218 0.232422,-0.33497 0.232422,-0.7793 0,-0.54688 -0.321289,-0.90234 -0.321289,-0.35547 -0.813477,-0.44434 -0.362304,-0.0684 -1.456054,-0.0684 z"
         style="font-style:normal;font-variant:normal;font-weight:bold;font-stretch:normal;font-size:14px;line-height:0%;font-family:Arial;-inkscape-font-specification:'Arial Bold';text-anchor:middle;display:inline;fill:#ffffff;stroke-width:1"
         id="path882" />
    </g>
    <g
       aria-label="S"
       id="text1344"
       style="font-style:normal;font-variant:normal;font-weight:bold;font-stretch:normal;font-size:14px;line-height:0%;font-family:Arial;-inkscape-font-specification:'Arial Bold';text-anchor:middle;display:inline;fill:#ffffff;stroke-width:1">
      <path
         d="m 155.15137,260.37354 1.96875,-0.19141 q 0.17773,0.99121 0.71777,1.45605 0.54688,0.46485 1.46973,0.46485 0.97754,0 1.46972,-0.41016 0.49903,-0.41699 0.49903,-0.9707 0,-0.35547 -0.21192,-0.60156 -0.20508,-0.25293 -0.72461,-0.4375 -0.35547,-0.12305 -1.62011,-0.4375 -1.62696,-0.40332 -2.28321,-0.99122 -0.92285,-0.82714 -0.92285,-2.0166 0,-0.76562 0.43067,-1.42871 0.4375,-0.66992 1.25097,-1.01855 0.82031,-0.34864 1.97559,-0.34864 1.88672,0 2.83691,0.82715 0.95703,0.82715 1.00489,2.20801 l -2.02344,0.0889 q -0.12989,-0.77246 -0.56055,-1.10742 -0.42383,-0.3418 -1.27832,-0.3418 -0.88184,0 -1.38086,0.3623 -0.32129,0.23243 -0.32129,0.62207 0,0.35547 0.30078,0.6084 0.38282,0.32129 1.85938,0.66992 1.47656,0.34864 2.18066,0.72461 0.71094,0.36914 1.10742,1.01856 0.40332,0.64258 0.40332,1.59277 0,0.86133 -0.47851,1.61328 -0.47852,0.75196 -1.35352,1.1211 -0.875,0.3623 -2.18066,0.3623 -1.90039,0 -2.91895,-0.875 -1.01855,-0.88183 -1.21679,-2.56347 z"
         style="font-style:normal;font-variant:normal;font-weight:bold;font-stretch:normal;font-size:14px;line-height:0%;font-family:Arial;-inkscape-font-specification:'Arial Bold';text-anchor:middle;display:inline;fill:#ffffff;stroke-width:1"
         id="path879" />
    </g>
    <g
       aria-label="P"
       id="text1154"
       style="font-style:normal;font-variant:normal;font-weight:bold;font-stretch:normal;font-size:14px;line-height:0%;font-family:Arial;-inkscape-font-specification:'Arial Bold';text-anchor:middle;display:inline;fill:#ffffff;stroke-width:1">
      <path
         d="m 75.949623,452.4205 v -10.02148 h 3.24707 q 1.845704,0 2.40625,0.15039 0.861329,0.22558 1.442383,0.98437 0.581055,0.75196 0.581055,1.94825 0,0.92285 -0.334961,1.55175 -0.334961,0.62891 -0.854492,0.99121 -0.512696,0.35547 -1.045899,0.47168 -0.724609,0.14356 -2.098632,0.14356 h -1.319336 v 3.78027 z m 2.023438,-8.32617 v 2.84375 h 1.107421 q 1.19629,0 1.59961,-0.15723 0.40332,-0.15722 0.628906,-0.49218 0.232422,-0.33497 0.232422,-0.7793 0,-0.54688 -0.321289,-0.90234 -0.321289,-0.35547 -0.813477,-0.44434 -0.362304,-0.0684 -1.456054,-0.0684 z"
         style="font-style:normal;font-variant:normal;font-weight:bold;font-stretch:normal;font-size:14px;line-height:0%;font-family:Arial;-inkscape-font-specification:'Arial Bold';text-anchor:middle;display:inline;fill:#ffffff;stroke-width:1"
         id="path876" />
    </g>
    <g
       aria-label="S"
       id="text1156"
       style="font-style:normal;font-variant:normal;font-weight:bold;font-stretch:normal;font-size:14px;line-height:0%;font-family:Arial;-inkscape-font-specification:'Arial Bold';text-anchor:middle;display:inline;fill:#ffffff;stroke-width:1">
      <path
         d="m 155.15137,480.37354 1.96875,-0.19141 q 0.17773,0.99121 0.71777,1.45605 0.54688,0.46485 1.46973,0.46485 0.97754,0 1.46972,-0.41016 0.49903,-0.41699 0.49903,-0.9707 0,-0.35547 -0.21192,-0.60156 -0.20508,-0.25293 -0.72461,-0.4375 -0.35547,-0.12305 -1.62011,-0.4375 -1.62696,-0.40332 -2.28321,-0.99122 -0.92285,-0.82714 -0.92285,-2.0166 0,-0.76562 0.43067,-1.42871 0.4375,-0.66992 1.25097,-1.01855 0.82031,-0.34864 1.97559,-0.34864 1.88672,0 2.83691,0.82715 0.95703,0.82715 1.00489,2.20801 l -2.02344,0.0889 q -0.12989,-0.77246 -0.56055,-1.10742 -0.42383,-0.3418 -1.27832,-0.3418 -0.88184,0 -1.38086,0.3623 -0.32129,0.23243 -0.32129,0.62207 0,0.35547 0.30078,0.6084 0.38282,0.32129 1.85938,0.66992 1.47656,0.34864 2.18066,0.72461 0.71094,0.36914 1.10742,1.01856 0.40332,0.64258 0.40332,1.59277 0,0.86133 -0.47851,1.61328 -0.47852,0.75196 -1.35352,1.1211 -0.875,0.3623 -2.18066,0.3623 -1.90039,0 -2.91895,-0.875 -1.01855,-0.88183 -1.21679,-2.56347 z"
         style="font-style:normal;font-variant:normal;font-weight:bold;font-stretch:normal;font-size:14px;line-height:0%;font-family:Arial;-inkscape-font-specification:'Arial Bold';text-anchor:middle;display:inline;fill:#ffffff;stroke-width:1"
         id="path873" />
    </g>
    <g
       aria-label="N"
       id="text840"
       style="font-style:normal;font-variant:normal;font-weight:bold;font-stretch:normal;font-size:14px;line-height:0%;font-family:Arial;-inkscape-font-specification:'Arial Bold';text-anchor:middle;display:inline;fill:#ffffff;stroke-width:1">
      <path
         d="m 75.5839,704.42053 v -10.02148 h 1.96875 l 4.101563,6.69238 v -6.69238 h 1.879883 v 10.02148 h -2.030274 l -4.040039,-6.53515 v 6.53515 z"
         style="font-style:normal;font-variant:normal;font-weight:bold;font-stretch:normal;font-size:14px;line-height:0%;font-family:Arial;-inkscape-font-specification:'Arial Bold';text-anchor:middle;display:inline;fill:#ffffff;stroke-width:1"
         id="path870" />
    </g>
  </g>
</svg>
