<?xml version="1.0" encoding="UTF-8" standalone="no"?>
<!-- Generated by graphviz version 2.36.0 (20140111.2315)
 -->

<!-- Title: G Pages: 1 -->

<svg
   xmlns:dc="http://purl.org/dc/elements/1.1/"
   xmlns:cc="http://creativecommons.org/ns#"
   xmlns:rdf="http://www.w3.org/1999/02/22-rdf-syntax-ns#"
   xmlns:svg="http://www.w3.org/2000/svg"
   xmlns="http://www.w3.org/2000/svg"
   xmlns:sodipodi="http://sodipodi.sourceforge.net/DTD/sodipodi-0.dtd"
   xmlns:inkscape="http://www.inkscape.org/namespaces/inkscape"
   width="127.75562"
   height="639"
   viewBox="0 0 127.75561 639"
   id="svg2"
   version="1.1"
   inkscape:version="0.92.4 (5da689c313, 2019-01-14)"
   sodipodi:docname="Red-black_tree_insert_case_C0.svg"
   inkscape:export-filename=".\Red-black_tree_insert_case_Cr.png"
   inkscape:export-xdpi="72"
   inkscape:export-ydpi="72">
  <metadata
     id="metadata286">
    <rdf:RDF>
      <cc:Work
         rdf:about="">
        <dc:format>image/svg+xml</dc:format>
        <dc:type
           rdf:resource="http://purl.org/dc/dcmitype/StillImage" />
        <dc:title></dc:title>
      </cc:Work>
    </rdf:RDF>
  </metadata>
  <defs
     id="defs284" />
  <sodipodi:namedview
     pagecolor="#ffffff"
     bordercolor="#666666"
     borderopacity="1"
     objecttolerance="10"
     gridtolerance="10"
     guidetolerance="10"
     inkscape:pageopacity="0"
     inkscape:pageshadow="2"
     inkscape:window-width="747"
     inkscape:window-height="828"
     id="namedview282"
     showgrid="false"
     inkscape:zoom="1"
     inkscape:cx="72.335579"
     inkscape:cy="301.54393"
     inkscape:window-x="26"
     inkscape:window-y="1"
     inkscape:window-maximized="0"
     inkscape:current-layer="layer2"
     borderlayer="true"
     fit-margin-top="0"
     fit-margin-left="0"
     fit-margin-right="0"
     fit-margin-bottom="0" />
  <g
     inkscape:groupmode="layer"
     id="layer2"
     inkscape:label="corners"
     transform="translate(-14,-204)"
     style="display:none"
     sodipodi:insensitive="true">
    <rect
       style="color:#000000;clip-rule:nonzero;display:inline;overflow:visible;visibility:visible;opacity:1;isolation:auto;mix-blend-mode:normal;color-interpolation:sRGB;color-interpolation-filters:linearRGB;solid-color:#000000;solid-opacity:1;fill:#808080;fill-opacity:1;fill-rule:nonzero;stroke:#000000;stroke-width:4;stroke-linecap:butt;stroke-linejoin:miter;stroke-miterlimit:4;stroke-dasharray:none;stroke-dashoffset:0;stroke-opacity:1;color-rendering:auto;image-rendering:auto;shape-rendering:auto;text-rendering:auto;enable-background:accumulate"
       id="rect297"
       width="4"
       height="4"
       x="16"
       y="206" />
    <rect
       style="color:#000000;clip-rule:nonzero;display:inline;overflow:visible;visibility:visible;opacity:1;isolation:auto;mix-blend-mode:normal;color-interpolation:sRGB;color-interpolation-filters:linearRGB;solid-color:#000000;solid-opacity:1;fill:#808080;fill-opacity:1;fill-rule:nonzero;stroke:#000000;stroke-width:4;stroke-linecap:butt;stroke-linejoin:miter;stroke-miterlimit:4;stroke-dasharray:none;stroke-dashoffset:0;stroke-opacity:1;color-rendering:auto;image-rendering:auto;shape-rendering:auto;text-rendering:auto;enable-background:accumulate"
       id="rect299"
       width="4"
       height="4"
       x="135.75562"
       y="837" />
  </g>
  <g
     inkscape:groupmode="layer"
     id="layer1"
     inkscape:label="all"
     transform="translate(-14,-204)"
     style="display:inline"
     sodipodi:insensitive="true">
    <g
       style="display:inline"
       id="g1384"
       transform="matrix(-1,0,0,1,117.28899,440)">
      <path
         style="fill:none;stroke:#000000;stroke-width:1;stroke-miterlimit:4;stroke-dasharray:none"
         id="path54-5-1"
         d="m 43.497522,44.743112 c 5.861222,9.138754 12.480648,19.461016 18.899576,29.469483"
         inkscape:connector-curvature="0" />
      <polygon
         transform="matrix(-1,0,0,1,125.59796,188.20385)"
         style="fill:#000000;stroke:#000000"
         id="polygon56-7-6"
         points="59.8592,-115.599 65.6836,-111.716 57.2244,-105.337 " />
    </g>
    <circle
       cx="39"
       cy="540"
       id="ellipse19-6-9"
       style="display:inline;fill:#ff0000;stroke:#000000;stroke-width:1"
       r="18" />
    <circle
       cx="79"
       cy="480"
       id="ellipse47-2-6"
       style="display:inline;fill:#ff0000;stroke:#000000;stroke-width:1;stroke-miterlimit:4;stroke-dasharray:none;stroke-opacity:1"
       r="18" />
    <circle
       style="display:inline;fill:#000000;stroke:#000000;stroke-width:1"
       id="circle4258"
       cy="448"
       cx="119"
       r="18" />
    <g
       style="display:inline"
       id="g1390"
       transform="translate(-1.0007733,440)">
      <path
         inkscape:connector-curvature="0"
         d="M 132.56366,0.63442987 C 121.03999,9.2280991 107.10384,19.621657 95.691526,28.132522"
         id="path4282"
         style="display:inline;fill:none;stroke:#000000;stroke-width:1;stroke-miterlimit:4;stroke-dasharray:none" />
      <polygon
         transform="matrix(-0.99689673,-0.32969206,-0.32969208,0.99689676,178.43491,162.37554)"
         points="114.941,-96.0879 106.482,-102.467 112.307,-106.35 "
         id="polygon4284"
         style="display:inline;fill:#000000;stroke:#000000;stroke-width:0.80077672;stroke-miterlimit:4;stroke-dasharray:none" />
    </g>
    <path
       style="display:inline;fill:none;stroke:#000000;stroke-width:1;stroke-miterlimit:4;stroke-dasharray:none"
       id="path1306"
       d="m 42.496747,264.74311 c 5.86122,9.13876 12.48065,19.46102 18.89957,29.46949"
       inkscape:connector-curvature="0" />
    <polygon
       transform="matrix(-1,0,0,1,124.59719,408.20385)"
       style="display:inline;fill:#000000;stroke:#000000"
       id="polygon1308"
       points="65.6836,-111.716 57.2244,-105.337 59.8592,-115.599 " />
    <circle
       r="18"
       style="display:inline;fill:#ff0000;stroke:#000000;stroke-width:1"
       id="circle1310"
       cy="260"
       cx="39" />
    <circle
       r="16.5"
       style="display:inline;fill:#ff0000;stroke:#0000ff;stroke-width:4;stroke-miterlimit:4;stroke-dasharray:none"
       id="circle1314"
       cy="320"
       cx="79" />
    <circle
       r="18"
       cx="119"
       cy="228"
       id="circle1316"
       style="display:inline;fill:#000000;stroke:#000000;stroke-width:1" />
    <g
       style="display:inline"
       id="g1322"
       transform="translate(-1.0007733,220)">
      <path
         style="display:inline;fill:none;stroke:#000000;stroke-width:1;stroke-miterlimit:4;stroke-dasharray:none"
         id="path1318"
         d="M 125.93933,4.8972184 C 104.98963,13.437691 79.653834,23.7673 58.90648,32.225593"
         inkscape:connector-curvature="0" />
      <polygon
         style="display:inline;fill:#000000;stroke:#000000;stroke-width:0.80077672;stroke-miterlimit:4;stroke-dasharray:none"
         id="polygon1320"
         points="112.307,-106.35 114.941,-96.0879 106.482,-102.467 "
         transform="matrix(-0.85694446,-0.60675049,-0.60675051,0.85694448,98.456407,184.51375)" />
    </g>
    <g
       style="display:inline"
       transform="matrix(-1,0,0,1,117.28899,660)"
       id="g1516">
      <path
         inkscape:connector-curvature="0"
         d="m 43.497522,44.743112 c 5.861222,9.138754 12.480648,19.461016 18.899576,29.469483"
         id="path1512"
         style="fill:none;stroke:#000000;stroke-width:1;stroke-miterlimit:4;stroke-dasharray:none" />
      <polygon
         points="65.6836,-111.716 57.2244,-105.337 59.8592,-115.599 "
         id="polygon1514"
         style="fill:#000000;stroke:#000000"
         transform="matrix(-1,0,0,1,125.59796,188.20385)" />
    </g>
    <circle
       r="16.5"
       style="display:inline;fill:#ff0000;stroke:#0000ff;stroke-width:4;stroke-miterlimit:4;stroke-dasharray:none"
       id="circle1518"
       cy="760"
       cx="39" />
    <circle
       r="18"
       style="display:inline;fill:#ff0000;stroke:#000000;stroke-width:1;stroke-miterlimit:4;stroke-dasharray:none;stroke-opacity:1"
       id="circle1522"
       cy="700"
       cx="79" />
    <circle
       r="18"
       cx="119"
       cy="668"
       id="circle1524"
       style="display:inline;fill:#000000;stroke:#000000;stroke-width:1" />
    <g
       style="display:inline"
       transform="translate(-1.0007733,660)"
       id="g1530">
      <path
         style="display:inline;fill:none;stroke:#000000;stroke-width:1;stroke-miterlimit:4;stroke-dasharray:none"
         id="path1526"
         d="M 132.56366,0.63442987 C 121.03999,9.2280991 107.10384,19.621657 95.691526,28.132522"
         inkscape:connector-curvature="0" />
      <polygon
         style="display:inline;fill:#000000;stroke:#000000;stroke-width:0.80077672;stroke-miterlimit:4;stroke-dasharray:none"
         id="polygon1528"
         points="106.482,-102.467 112.307,-106.35 114.941,-96.0879 "
         transform="matrix(-0.99689673,-0.32969206,-0.32969208,0.99689676,178.43491,162.37554)" />
    </g>
  </g>
  <g
     inkscape:groupmode="layer"
     id="layer3"
     inkscape:label="text"
     style="display:inline"
     transform="translate(-14.60077,-204)">
    <g
       aria-label="N"
       style="font-style:normal;font-variant:normal;font-weight:bold;font-stretch:normal;font-size:14px;line-height:0%;font-family:Arial;-inkscape-font-specification:'Arial Bold';text-anchor:middle;display:inline;fill:#ffffff;stroke-width:1"
       id="text49-8-6">
      <path
         d="m 75.615616,484.00998 v -10.02149 h 1.96875 l 4.101562,6.69239 v -6.69239 h 1.879883 v 10.02149 h -2.030273 l -4.040039,-6.53516 v 6.53516 z"
         style="font-style:normal;font-variant:normal;font-weight:bold;font-stretch:normal;font-size:14px;line-height:0%;font-family:Arial;-inkscape-font-specification:'Arial Bold';text-anchor:middle;display:inline;fill:#ffffff;stroke-width:1"
         id="path46" />
    </g>
    <g
       aria-label="P"
       style="font-style:normal;font-variant:normal;font-weight:bold;font-stretch:normal;font-size:14px;line-height:0%;font-family:Arial;-inkscape-font-specification:'Arial Bold';text-anchor:middle;display:inline;fill:#ffffff;stroke-width:1"
       id="text21-4-6">
      <path
         d="m 36.475735,544.02032 v -10.02148 h 3.24707 q 1.845703,0 2.40625,0.15039 0.861328,0.22559 1.442383,0.98438 0.581055,0.75195 0.581055,1.94824 0,0.92285 -0.334961,1.55176 -0.334961,0.6289 -0.854493,0.99121 -0.512695,0.35547 -1.045898,0.47168 -0.724609,0.14355 -2.098633,0.14355 h -1.319336 v 3.78027 z m 2.023437,-8.32617 v 2.84375 h 1.107422 q 1.196289,0 1.599609,-0.15722 0.403321,-0.15723 0.628907,-0.49219 0.232422,-0.33496 0.232422,-0.7793 0,-0.54687 -0.321289,-0.90234 -0.32129,-0.35547 -0.813477,-0.44434 -0.362305,-0.0684 -1.456055,-0.0684 z"
         style="font-style:normal;font-variant:normal;font-weight:bold;font-stretch:normal;font-size:14px;line-height:0%;font-family:Arial;-inkscape-font-specification:'Arial Bold';text-anchor:middle;display:inline;fill:#ffffff;stroke-width:1"
         id="path49" />
    </g>
    <g
       aria-label="G"
       style="font-style:normal;font-variant:normal;font-weight:bold;font-stretch:normal;font-size:14px;line-height:0%;font-family:Arial;-inkscape-font-specification:'Arial Bold';text-anchor:middle;display:inline;fill:#ffffff;stroke-width:1"
       id="text4278">
      <path
         d="m 119.83927,448.73593 v -1.68848 h 4.36133 v 3.99219 q -0.63574,0.61524 -1.8457,1.08692 -1.20313,0.46484 -2.44043,0.46484 -1.57227,0 -2.74121,-0.65625 -1.16895,-0.66309 -1.75684,-1.88672 -0.58789,-1.23047 -0.58789,-2.67285 0,-1.56543 0.65625,-2.78223 0.65625,-1.21679 1.9209,-1.86621 0.96386,-0.49902 2.39941,-0.49902 1.86621,0 2.91211,0.78613 1.05274,0.7793 1.35352,2.16016 l -2.00977,0.37597 q -0.21191,-0.73828 -0.7998,-1.1621 -0.58106,-0.43067 -1.45606,-0.43067 -1.32617,0 -2.1123,0.84082 -0.7793,0.84082 -0.7793,2.49512 0,1.78418 0.79297,2.67969 0.79297,0.88867 2.07812,0.88867 0.63575,0 1.27149,-0.2461 0.64258,-0.25293 1.10058,-0.60839 v -1.27149 z"
         style="font-style:normal;font-variant:normal;font-weight:bold;font-stretch:normal;font-size:14px;line-height:0%;font-family:Arial;-inkscape-font-specification:'Arial Bold';text-anchor:middle;display:inline;fill:#ffffff;stroke-width:1"
         id="path52" />
    </g>
    <g
       aria-label="N"
       style="font-style:normal;font-variant:normal;font-weight:bold;font-stretch:normal;font-size:14px;line-height:0%;font-family:Arial;-inkscape-font-specification:'Arial Bold';text-anchor:middle;display:inline;fill:#ffffff;stroke-width:1"
       id="text1338">
      <path
         d="m 75.615616,324.00998 v -10.02149 h 1.96875 l 4.101562,6.69239 v -6.69239 h 1.879883 v 10.02149 h -2.030273 l -4.040039,-6.53516 v 6.53516 z"
         style="font-style:normal;font-variant:normal;font-weight:bold;font-stretch:normal;font-size:14px;line-height:0%;font-family:Arial;-inkscape-font-specification:'Arial Bold';text-anchor:middle;display:inline;fill:#ffffff;stroke-width:1"
         id="path55" />
    </g>
    <g
       aria-label="P"
       style="font-style:normal;font-variant:normal;font-weight:bold;font-stretch:normal;font-size:14px;line-height:0%;font-family:Arial;-inkscape-font-specification:'Arial Bold';text-anchor:middle;display:inline;fill:#ffffff;stroke-width:1"
       id="text1340">
      <path
         d="m 36.475735,264.02032 v -10.02148 h 3.24707 q 1.845703,0 2.40625,0.15039 0.861328,0.22559 1.442383,0.98438 0.581055,0.75195 0.581055,1.94824 0,0.92285 -0.334961,1.55176 -0.334961,0.6289 -0.854493,0.99121 -0.512695,0.35547 -1.045898,0.47168 -0.724609,0.14355 -2.098633,0.14355 h -1.319336 v 3.78027 z m 2.023437,-8.32617 v 2.84375 h 1.107422 q 1.196289,0 1.599609,-0.15722 0.403321,-0.15723 0.628907,-0.49219 0.232422,-0.33496 0.232422,-0.7793 0,-0.54687 -0.321289,-0.90234 -0.32129,-0.35547 -0.813477,-0.44434 -0.362305,-0.0684 -1.456055,-0.0684 z"
         style="font-style:normal;font-variant:normal;font-weight:bold;font-stretch:normal;font-size:14px;line-height:0%;font-family:Arial;-inkscape-font-specification:'Arial Bold';text-anchor:middle;display:inline;fill:#ffffff;stroke-width:1"
         id="path58" />
    </g>
    <g
       aria-label="G"
       style="font-style:normal;font-variant:normal;font-weight:bold;font-stretch:normal;font-size:14px;line-height:0%;font-family:Arial;-inkscape-font-specification:'Arial Bold';text-anchor:middle;display:inline;fill:#ffffff;stroke-width:1"
       id="text1342">
      <path
         d="m 119.83927,228.73593 v -1.68848 h 4.36133 v 3.99219 q -0.63574,0.61524 -1.8457,1.08692 -1.20313,0.46484 -2.44043,0.46484 -1.57227,0 -2.74121,-0.65625 -1.16895,-0.66309 -1.75684,-1.88672 -0.58789,-1.23047 -0.58789,-2.67285 0,-1.56543 0.65625,-2.78223 0.65625,-1.21679 1.9209,-1.86621 0.96386,-0.49902 2.39941,-0.49902 1.86621,0 2.91211,0.78613 1.05274,0.7793 1.35352,2.16016 l -2.00977,0.37597 q -0.21191,-0.73828 -0.7998,-1.1621 -0.58106,-0.43067 -1.45606,-0.43067 -1.32617,0 -2.1123,0.84082 -0.7793,0.84082 -0.7793,2.49512 0,1.78418 0.79297,2.67969 0.79297,0.88867 2.07812,0.88867 0.63575,0 1.27149,-0.2461 0.64258,-0.25293 1.10058,-0.60839 v -1.27149 z"
         style="font-style:normal;font-variant:normal;font-weight:bold;font-stretch:normal;font-size:14px;line-height:0%;font-family:Arial;-inkscape-font-specification:'Arial Bold';text-anchor:middle;display:inline;fill:#ffffff;stroke-width:1"
         id="path61" />
    </g>
    <g
       aria-label="P"
       style="font-style:normal;font-variant:normal;font-weight:bold;font-stretch:normal;font-size:14px;line-height:0%;font-family:Arial;-inkscape-font-specification:'Arial Bold';text-anchor:middle;display:inline;fill:#ffffff;stroke-width:1"
       id="text1548">
      <path
         d="m 75.977921,704.01001 v -10.02148 h 3.24707 q 1.845703,0 2.40625,0.15039 0.861328,0.22558 1.442383,0.98437 0.581054,0.75195 0.581054,1.94824 0,0.92285 -0.334961,1.55176 -0.334961,0.62891 -0.854492,0.99121 -0.512695,0.35547 -1.045898,0.47168 -0.72461,0.14356 -2.098633,0.14356 h -1.319336 v 3.78027 z m 2.023437,-8.32617 v 2.84375 h 1.107422 q 1.196289,0 1.599609,-0.15723 0.403321,-0.15723 0.628907,-0.49219 0.232421,-0.33496 0.232421,-0.77929 0,-0.54688 -0.321289,-0.90235 -0.321289,-0.35547 -0.813476,-0.44433 -0.362305,-0.0684 -1.456055,-0.0684 z"
         style="font-style:normal;font-variant:normal;font-weight:bold;font-stretch:normal;font-size:14px;line-height:0%;font-family:Arial;-inkscape-font-specification:'Arial Bold';text-anchor:middle;display:inline;fill:#ffffff;stroke-width:1"
         id="path64" />
    </g>
    <g
       aria-label="N"
       style="font-style:normal;font-variant:normal;font-weight:bold;font-stretch:normal;font-size:14px;line-height:0%;font-family:Arial;-inkscape-font-specification:'Arial Bold';text-anchor:middle;display:inline;fill:#ffffff;stroke-width:1"
       id="text1550">
      <path
         d="m 36.11343,764.02032 v -10.02148 h 1.96875 l 4.101563,6.69238 v -6.69238 h 1.879882 v 10.02148 h -2.030273 l -4.040039,-6.53515 v 6.53515 z"
         style="font-style:normal;font-variant:normal;font-weight:bold;font-stretch:normal;font-size:14px;line-height:0%;font-family:Arial;-inkscape-font-specification:'Arial Bold';text-anchor:middle;display:inline;fill:#ffffff;stroke-width:1"
         id="path67" />
    </g>
    <g
       aria-label="G"
       style="font-style:normal;font-variant:normal;font-weight:bold;font-stretch:normal;font-size:14px;line-height:0%;font-family:Arial;-inkscape-font-specification:'Arial Bold';text-anchor:middle;display:inline;fill:#ffffff;stroke-width:1"
       id="text1552">
      <path
         d="m 119.83927,668.73596 v -1.68847 h 4.36133 v 3.99218 q -0.63574,0.61524 -1.8457,1.08692 -1.20313,0.46484 -2.44043,0.46484 -1.57227,0 -2.74121,-0.65625 -1.16895,-0.66309 -1.75684,-1.88672 -0.58789,-1.23047 -0.58789,-2.67285 0,-1.56543 0.65625,-2.78223 0.65625,-1.21679 1.9209,-1.86621 0.96386,-0.49902 2.39941,-0.49902 1.86621,0 2.91211,0.78613 1.05274,0.7793 1.35352,2.16016 l -2.00977,0.37598 q -0.21191,-0.73829 -0.7998,-1.16211 -0.58106,-0.43067 -1.45606,-0.43067 -1.32617,0 -2.1123,0.84082 -0.7793,0.84082 -0.7793,2.49512 0,1.78418 0.79297,2.67969 0.79297,0.88867 2.07812,0.88867 0.63575,0 1.27149,-0.2461 0.64258,-0.25292 1.10058,-0.60839 v -1.27149 z"
         style="font-style:normal;font-variant:normal;font-weight:bold;font-stretch:normal;font-size:14px;line-height:0%;font-family:Arial;-inkscape-font-specification:'Arial Bold';text-anchor:middle;display:inline;fill:#ffffff;stroke-width:1"
         id="path70" />
    </g>
  </g>
</svg>
