<?xml version="1.0" encoding="UTF-8" standalone="no"?>
<!-- Generated by graphviz version 2.36.0 (20140111.2315)
 -->

<!-- Title: G Pages: 1 -->

<svg
   xmlns:dc="http://purl.org/dc/elements/1.1/"
   xmlns:cc="http://creativecommons.org/ns#"
   xmlns:rdf="http://www.w3.org/1999/02/22-rdf-syntax-ns#"
   xmlns:svg="http://www.w3.org/2000/svg"
   xmlns="http://www.w3.org/2000/svg"
   xmlns:sodipodi="http://sodipodi.sourceforge.net/DTD/sodipodi-0.dtd"
   xmlns:inkscape="http://www.inkscape.org/namespaces/inkscape"
   width="233.75562"
   height="419"
   viewBox="0 0 233.75561 419"
   id="svg2"
   version="1.1"
   inkscape:version="0.92.4 (5da689c313, 2019-01-14)"
   sodipodi:docname="Red-black_tree_delete_case_C1.svg"
   inkscape:export-filename=".\Red-black_tree_insert_case_Cr.png"
   inkscape:export-xdpi="72"
   inkscape:export-ydpi="72">
  <metadata
     id="metadata286">
    <rdf:RDF>
      <cc:Work
         rdf:about="">
        <dc:format>image/svg+xml</dc:format>
        <dc:type
           rdf:resource="http://purl.org/dc/dcmitype/StillImage" />
        <dc:title />
      </cc:Work>
    </rdf:RDF>
  </metadata>
  <defs
     id="defs284" />
  <sodipodi:namedview
     pagecolor="#ffffff"
     bordercolor="#666666"
     borderopacity="1"
     objecttolerance="10"
     gridtolerance="10"
     guidetolerance="10"
     inkscape:pageopacity="0"
     inkscape:pageshadow="2"
     inkscape:window-width="765"
     inkscape:window-height="781"
     id="namedview282"
     showgrid="false"
     inkscape:zoom="1"
     inkscape:cx="41.01123"
     inkscape:cy="145.4897"
     inkscape:window-x="26"
     inkscape:window-y="89"
     inkscape:window-maximized="0"
     inkscape:current-layer="layer3"
     borderlayer="true"
     fit-margin-top="0"
     fit-margin-left="0"
     fit-margin-right="0"
     fit-margin-bottom="0" />
  <g
     inkscape:groupmode="layer"
     id="layer2"
     inkscape:label="corners"
     transform="translate(-2,-204)"
     style="display:none"
     sodipodi:insensitive="true">
    <rect
       style="color:#000000;clip-rule:nonzero;display:inline;overflow:visible;visibility:visible;opacity:1;isolation:auto;mix-blend-mode:normal;color-interpolation:sRGB;color-interpolation-filters:linearRGB;solid-color:#000000;solid-opacity:1;fill:#808080;fill-opacity:1;fill-rule:nonzero;stroke:#000000;stroke-width:4;stroke-linecap:butt;stroke-linejoin:miter;stroke-miterlimit:4;stroke-dasharray:none;stroke-dashoffset:0;stroke-opacity:1;color-rendering:auto;image-rendering:auto;shape-rendering:auto;text-rendering:auto;enable-background:accumulate"
       id="rect297"
       width="4"
       height="4"
       x="4"
       y="206" />
    <rect
       style="color:#000000;clip-rule:nonzero;display:inline;overflow:visible;visibility:visible;opacity:1;isolation:auto;mix-blend-mode:normal;color-interpolation:sRGB;color-interpolation-filters:linearRGB;solid-color:#000000;solid-opacity:1;fill:#808080;fill-opacity:1;fill-rule:nonzero;stroke:#000000;stroke-width:4;stroke-linecap:butt;stroke-linejoin:miter;stroke-miterlimit:4;stroke-dasharray:none;stroke-dashoffset:0;stroke-opacity:1;color-rendering:auto;image-rendering:auto;shape-rendering:auto;text-rendering:auto;enable-background:accumulate"
       id="rect299"
       width="4"
       height="4"
       x="229.75562"
       y="617" />
  </g>
  <g
     inkscape:groupmode="layer"
     id="layer1"
     inkscape:label="all"
     transform="translate(-2,-204)"
     style="display:inline"
     sodipodi:insensitive="true">
    <g
       transform="matrix(-0.97436995,0.22495101,0.22495102,0.97436995,105.86948,332.02763)"
       id="g1001"
       class="edge"
       style="display:inline">
      <title
         id="title995">N1-&gt;dot2</title>
      <path
         inkscape:connector-curvature="0"
         d="m 57.028,-74.958 c 5.0907,7.6361 11.2475,16.8712 16.2887,24.4331"
         id="path997"
         style="fill:none;stroke:#000000" />
      <polygon
         points="76.3065,-52.3499 78.9414,-42.0879 70.4822,-48.4669 "
         id="polygon999"
         style="fill:#000000;stroke:#000000" />
    </g>
    <g
       style="display:inline"
       class="edge"
       id="g1013"
       transform="rotate(13,-1470.9903,43.96431)">
      <title
         id="title1007">N1-&gt;dot2</title>
      <path
         style="fill:none;stroke:#000000"
         id="path1009"
         d="m 57.028,-74.958 c 5.0907,7.6361 11.2475,16.8712 16.2887,24.4331"
         inkscape:connector-curvature="0" />
      <polygon
         style="fill:#000000;stroke:#000000"
         id="polygon1011"
         points="70.4822,-48.4669 76.3065,-52.3499 78.9414,-42.0879 " />
    </g>
    <g
       transform="rotate(18,-10.010443,416.5134)"
       id="g1179">
      <path
         inkscape:connector-curvature="0"
         d="m 106.80774,219.11799 c 11.73812,8.88156 25.9336,19.62328 37.5583,28.41925"
         id="path1175"
         style="display:inline;fill:none;stroke:#000000;stroke-width:1;stroke-miterlimit:4;stroke-dasharray:none" />
      <polygon
         transform="matrix(0.99689671,-0.32969206,0.32969208,0.99689671,61.461147,381.22209)"
         points="114.941,-96.0879 106.482,-102.467 112.307,-106.35 "
         id="polygon1177"
         style="display:inline;fill:#000000;stroke:#000000;stroke-width:0.80077672;stroke-miterlimit:4;stroke-dasharray:none" />
    </g>
    <g
       id="g1079">
      <path
         inkscape:connector-curvature="0"
         d="m 81.380054,228.41447 c 18.671456,7.62038 41.252066,16.83716 59.743196,24.38421"
         id="path1326"
         style="display:inline;fill:none;stroke:#000000;stroke-width:1;stroke-miterlimit:4;stroke-dasharray:none" />
      <polygon
         transform="matrix(0.87759769,-0.57647393,0.57647395,0.87759769,95.643467,403.38569)"
         points="114.941,-96.0879 106.482,-102.467 112.307,-106.35 "
         id="polygon1328"
         style="display:inline;fill:#000000;stroke:#000000;stroke-width:0.80077672;stroke-miterlimit:4;stroke-dasharray:none" />
    </g>
    <g
       transform="translate(-41.000773,220)"
       id="g1041"
       style="display:inline">
      <path
         style="display:inline;fill:none;stroke:#000000;stroke-width:1;stroke-miterlimit:4;stroke-dasharray:none"
         id="path1037"
         d="M 132.56366,0.63442987 C 121.03999,9.2280991 107.10384,19.621657 95.691526,28.132522"
         inkscape:connector-curvature="0" />
      <polygon
         style="display:inline;fill:#000000;stroke:#000000;stroke-width:0.80077672;stroke-miterlimit:4;stroke-dasharray:none"
         id="polygon1039"
         points="114.941,-96.0879 106.482,-102.467 112.307,-106.35 "
         transform="matrix(-0.99689673,-0.32969206,-0.32969208,0.99689676,178.43491,162.37554)" />
    </g>
    <g
       transform="matrix(-0.95105652,0.30901699,0.30901699,0.95105652,189.19703,23.47901)"
       id="g1073">
      <path
         inkscape:connector-curvature="0"
         d="m 106.80774,219.11799 c 11.73812,8.88156 25.9336,19.62328 37.5583,28.41925"
         id="path1069"
         style="display:inline;fill:none;stroke:#000000;stroke-width:1;stroke-miterlimit:4;stroke-dasharray:none" />
      <polygon
         transform="matrix(0.99689671,-0.32969206,0.32969208,0.99689671,61.461147,381.22209)"
         points="114.941,-96.0879 106.482,-102.467 112.307,-106.35 "
         id="polygon1071"
         style="display:inline;fill:#000000;stroke:#000000;stroke-width:0.80077672;stroke-miterlimit:4;stroke-dasharray:none" />
    </g>
    <circle
       r="16.5"
       style="display:inline;fill:#000000;stroke:#0000ff;stroke-width:4;stroke-miterlimit:4;stroke-dasharray:none"
       id="circle1310"
       cy="260"
       cx="39" />
    <circle
       r="18"
       style="display:inline;fill:#000000;stroke:#000000;stroke-width:1;stroke-miterlimit:4;stroke-dasharray:none"
       id="circle1314"
       cy="320"
       cx="119" />
    <circle
       cx="159"
       cy="260"
       id="circle1324"
       style="display:inline;fill:#000000;stroke:#000000;stroke-width:1"
       r="18" />
    <polygon
       transform="matrix(-1,0,0,1,19,338)"
       style="display:inline;fill:none;stroke:#000000"
       id="polygon1003"
       points="-11,0 11,0 0,-27 " />
    <polygon
       points="11,0 0,-27 -11,0 "
       id="polygon1005"
       style="display:inline;fill:none;stroke:#000000"
       transform="matrix(-1,0,0,1,59,338)" />
    <ellipse
       style="display:inline;opacity:1;fill:#000000;fill-opacity:1;fill-rule:evenodd;stroke:#000000;stroke-width:0;stroke-linecap:round;stroke-linejoin:round;stroke-miterlimit:4;stroke-dasharray:none;stroke-dashoffset:0;stroke-opacity:1"
       id="path4862"
       cx="78.877693"
       cy="227.87106"
       rx="18.011864"
       ry="18.011868" />
    <circle
       style="display:inline;opacity:1;fill:#ff0000;fill-opacity:1;fill-rule:evenodd;stroke:#000000;stroke-width:0.99985874;stroke-linecap:round;stroke-linejoin:round;stroke-miterlimit:4;stroke-dasharray:none;stroke-dashoffset:0;stroke-opacity:1"
       id="path4834"
       cx="79"
       cy="228"
       r="18" />
    <polygon
       transform="matrix(-1,0,0,1,139,398)"
       style="display:inline;fill:none;stroke:#000000"
       id="polygon1125"
       points="0,-27 -11,0 11,0 " />
    <polygon
       points="11,0 0,-27 -11,0 "
       id="polygon1137"
       style="display:inline;fill:none;stroke:#000000"
       transform="matrix(-1,0,0,1,99,398)" />
    <circle
       cx="199"
       cy="320"
       id="circle1141"
       style="display:inline;fill:#000000;stroke:#000000;stroke-width:1;stroke-miterlimit:4;stroke-dasharray:none"
       r="18" />
    <polygon
       points="-11,0 11,0 0,-27 "
       id="polygon1151"
       style="display:inline;fill:none;stroke:#000000"
       transform="matrix(-1,0,0,1,219,398)" />
    <polygon
       transform="matrix(-1,0,0,1,179,398)"
       style="display:inline;fill:none;stroke:#000000"
       id="polygon1163"
       points="0,-27 -11,0 11,0 " />
    <g
       style="display:inline"
       class="edge"
       id="g995"
       transform="matrix(-0.97436995,0.22495101,0.22495102,0.97436995,105.86948,332.02763)">
      <title
         id="title989">N1-&gt;dot2</title>
      <path
         style="fill:none;stroke:#000000"
         id="path991"
         d="m 57.028,-74.958 c 5.0907,7.6361 11.2475,16.8712 16.2887,24.4331"
         inkscape:connector-curvature="0" />
      <polygon
         style="fill:#000000;stroke:#000000"
         id="polygon993"
         points="76.3065,-52.3499 78.9414,-42.0879 70.4822,-48.4669 " />
    </g>
    <g
       transform="rotate(13,-1470.9903,43.96431)"
       id="g1003"
       class="edge"
       style="display:inline">
      <title
         id="title997">N1-&gt;dot2</title>
      <path
         inkscape:connector-curvature="0"
         d="m 57.028,-74.958 c 5.0907,7.6361 11.2475,16.8712 16.2887,24.4331"
         id="path999"
         style="fill:none;stroke:#000000" />
      <polygon
         points="70.4822,-48.4669 76.3065,-52.3499 78.9414,-42.0879 "
         id="polygon1001"
         style="fill:#000000;stroke:#000000" />
    </g>
    <g
       transform="matrix(-0.97436995,0.22495101,0.22495102,0.97436995,185.86948,392.02763)"
       id="g1011"
       class="edge"
       style="display:inline">
      <title
         id="title1005">N1-&gt;dot2</title>
      <path
         inkscape:connector-curvature="0"
         d="m 57.028,-74.958 c 5.0907,7.6361 11.2475,16.8712 16.2887,24.4331"
         id="path1007"
         style="fill:none;stroke:#000000" />
      <polygon
         points="76.3065,-52.3499 78.9414,-42.0879 70.4822,-48.4669 "
         id="polygon1009"
         style="fill:#000000;stroke:#000000" />
    </g>
    <g
       style="display:inline"
       class="edge"
       id="g1019"
       transform="rotate(13,-1694.2968,425.0398)">
      <title
         id="title1013">N1-&gt;dot2</title>
      <path
         style="fill:none;stroke:#000000"
         id="path1015"
         d="m 57.028,-74.958 c 5.0907,7.6361 11.2475,16.8712 16.2887,24.4331"
         inkscape:connector-curvature="0" />
      <polygon
         style="fill:#000000;stroke:#000000"
         id="polygon1017"
         points="70.4822,-48.4669 76.3065,-52.3499 78.9414,-42.0879 " />
    </g>
    <g
       style="display:inline"
       class="edge"
       id="g1027"
       transform="matrix(-0.97436995,0.22495101,0.22495102,0.97436995,265.86948,392.02763)">
      <title
         id="title1021">N1-&gt;dot2</title>
      <path
         style="fill:none;stroke:#000000"
         id="path1023"
         d="m 57.028,-74.958 c 5.0907,7.6361 11.2475,16.8712 16.2887,24.4331"
         inkscape:connector-curvature="0" />
      <polygon
         style="fill:#000000;stroke:#000000"
         id="polygon1025"
         points="70.4822,-48.4669 76.3065,-52.3499 78.9414,-42.0879 " />
    </g>
    <g
       transform="rotate(13,-1654.2968,776.1153)"
       id="g1035"
       class="edge"
       style="display:inline">
      <title
         id="title1029">N1-&gt;dot2</title>
      <path
         inkscape:connector-curvature="0"
         d="m 57.028,-74.958 c 5.0907,7.6361 11.2475,16.8712 16.2887,24.4331"
         id="path1031"
         style="fill:none;stroke:#000000" />
      <polygon
         points="78.9414,-42.0879 70.4822,-48.4669 76.3065,-52.3499 "
         id="polygon1033"
         style="fill:#000000;stroke:#000000" />
    </g>
    <g
       style="display:inline"
       class="edge"
       id="g1043"
       transform="matrix(-0.97436995,0.22495101,0.22495102,0.97436995,105.86948,552.02763)">
      <title
         id="title1037">N1-&gt;dot2</title>
      <path
         style="fill:none;stroke:#000000"
         id="path1039"
         d="m 57.028,-74.958 c 5.0907,7.6361 11.2475,16.8712 16.2887,24.4331"
         inkscape:connector-curvature="0" />
      <polygon
         style="fill:#000000;stroke:#000000"
         id="polygon1041"
         points="78.9414,-42.0879 70.4822,-48.4669 76.3065,-52.3499 " />
    </g>
    <g
       transform="rotate(13,-2436.4479,153.96431)"
       id="g1051"
       class="edge"
       style="display:inline">
      <title
         id="title1045">N1-&gt;dot2</title>
      <path
         inkscape:connector-curvature="0"
         d="m 57.028,-74.958 c 5.0907,7.6361 11.2475,16.8712 16.2887,24.4331"
         id="path1047"
         style="fill:none;stroke:#000000" />
      <polygon
         points="76.3065,-52.3499 78.9414,-42.0879 70.4822,-48.4669 "
         id="polygon1049"
         style="fill:#000000;stroke:#000000" />
    </g>
    <g
       id="g1057"
       transform="rotate(18,-704.52311,526.5134)">
      <path
         style="display:inline;fill:none;stroke:#000000;stroke-width:1;stroke-miterlimit:4;stroke-dasharray:none"
         id="path1053"
         d="m 106.80774,219.11799 c 11.73812,8.88156 25.9336,19.62328 37.5583,28.41925"
         inkscape:connector-curvature="0" />
      <polygon
         style="display:inline;fill:#000000;stroke:#000000;stroke-width:0.80077672;stroke-miterlimit:4;stroke-dasharray:none"
         id="polygon1055"
         points="106.482,-102.467 112.307,-106.35 114.941,-96.0879 "
         transform="matrix(0.99689671,-0.32969206,0.32969208,0.99689671,61.461147,381.22209)" />
    </g>
    <g
       id="g1063"
       transform="translate(0,220)">
      <path
         style="display:inline;fill:none;stroke:#000000;stroke-width:1;stroke-miterlimit:4;stroke-dasharray:none"
         id="path1059"
         d="m 81.380054,228.41447 c 18.671456,7.62038 41.252066,16.83716 59.743196,24.38421"
         inkscape:connector-curvature="0" />
      <polygon
         style="display:inline;fill:#000000;stroke:#000000;stroke-width:0.80077672;stroke-miterlimit:4;stroke-dasharray:none"
         id="polygon1061"
         points="106.482,-102.467 112.307,-106.35 114.941,-96.0879 "
         transform="matrix(0.87759769,-0.57647393,0.57647395,0.87759769,95.643467,403.38569)" />
    </g>
    <g
       style="display:inline"
       id="g1069"
       transform="translate(-41.000773,440)">
      <path
         inkscape:connector-curvature="0"
         d="M 132.56366,0.63442987 C 121.03999,9.2280991 107.10384,19.621657 95.691526,28.132522"
         id="path1065"
         style="display:inline;fill:none;stroke:#000000;stroke-width:1;stroke-miterlimit:4;stroke-dasharray:none" />
      <polygon
         transform="matrix(-0.99689673,-0.32969206,-0.32969208,0.99689676,178.43491,162.37554)"
         points="106.482,-102.467 112.307,-106.35 114.941,-96.0879 "
         id="polygon1067"
         style="display:inline;fill:#000000;stroke:#000000;stroke-width:0.80077672;stroke-miterlimit:4;stroke-dasharray:none" />
    </g>
    <g
       id="g1075"
       transform="matrix(-0.95105652,0.30901699,0.30901699,0.95105652,189.19703,243.47901)">
      <path
         style="display:inline;fill:none;stroke:#000000;stroke-width:1;stroke-miterlimit:4;stroke-dasharray:none"
         id="path1071"
         d="m 106.80774,219.11799 c 11.73812,8.88156 25.9336,19.62328 37.5583,28.41925"
         inkscape:connector-curvature="0" />
      <polygon
         style="display:inline;fill:#000000;stroke:#000000;stroke-width:0.80077672;stroke-miterlimit:4;stroke-dasharray:none"
         id="polygon1073"
         points="106.482,-102.467 112.307,-106.35 114.941,-96.0879 "
         transform="matrix(0.99689671,-0.32969206,0.32969208,0.99689671,61.461147,381.22209)" />
    </g>
    <circle
       cx="39"
       cy="480"
       id="circle1077"
       style="display:inline;fill:#000000;stroke:#000000;stroke-width:1;stroke-miterlimit:4;stroke-dasharray:none"
       r="18" />
    <circle
       cx="119"
       cy="540"
       id="circle1079"
       style="display:inline;fill:#000000;stroke:#000000;stroke-width:1;stroke-miterlimit:4;stroke-dasharray:none"
       r="18" />
    <circle
       r="18"
       style="display:inline;fill:#ff0000;stroke:#000000;stroke-width:1"
       id="circle1081"
       cy="480"
       cx="159" />
    <polygon
       points="11,0 0,-27 -11,0 "
       id="polygon1083"
       style="display:inline;fill:none;stroke:#000000"
       transform="matrix(-1,0,0,1,19,558)" />
    <polygon
       transform="matrix(-1,0,0,1,59,558)"
       style="display:inline;fill:none;stroke:#000000"
       id="polygon1085"
       points="0,-27 -11,0 11,0 " />
    <ellipse
       ry="18.011868"
       rx="18.011864"
       cy="447.87106"
       cx="78.877693"
       id="ellipse1087"
       style="display:inline;opacity:1;fill:#000000;fill-opacity:1;fill-rule:evenodd;stroke:#000000;stroke-width:0;stroke-linecap:round;stroke-linejoin:round;stroke-miterlimit:4;stroke-dasharray:none;stroke-dashoffset:0;stroke-opacity:1" />
    <circle
       r="18"
       cy="448"
       cx="79"
       id="circle1089"
       style="display:inline;opacity:1;fill:#000000;fill-opacity:1;fill-rule:evenodd;stroke:#000000;stroke-width:0.99985874;stroke-linecap:round;stroke-linejoin:round;stroke-miterlimit:4;stroke-dasharray:none;stroke-dashoffset:0;stroke-opacity:1" />
    <polygon
       points="-11,0 11,0 0,-27 "
       id="polygon1091"
       style="display:inline;fill:none;stroke:#000000"
       transform="matrix(-1,0,0,1,139,618)" />
    <polygon
       transform="matrix(-1,0,0,1,99,618)"
       style="display:inline;fill:none;stroke:#000000"
       id="polygon1093"
       points="0,-27 -11,0 11,0 " />
    <circle
       r="18"
       style="display:inline;fill:#000000;stroke:#000000;stroke-width:1;stroke-miterlimit:4;stroke-dasharray:none"
       id="circle1095"
       cy="540"
       cx="199" />
    <polygon
       transform="matrix(-1,0,0,1,219,618)"
       style="display:inline;fill:none;stroke:#000000"
       id="polygon1097"
       points="11,0 0,-27 -11,0 " />
    <polygon
       points="-11,0 11,0 0,-27 "
       id="polygon1099"
       style="display:inline;fill:none;stroke:#000000"
       transform="matrix(-1,0,0,1,179,618)" />
    <g
       transform="matrix(-0.97436995,0.22495101,0.22495102,0.97436995,105.86948,552.02763)"
       id="g1107"
       class="edge"
       style="display:inline">
      <title
         id="title1101">N1-&gt;dot2</title>
      <path
         inkscape:connector-curvature="0"
         d="m 57.028,-74.958 c 5.0907,7.6361 11.2475,16.8712 16.2887,24.4331"
         id="path1103"
         style="fill:none;stroke:#000000" />
      <polygon
         points="78.9414,-42.0879 70.4822,-48.4669 76.3065,-52.3499 "
         id="polygon1105"
         style="fill:#000000;stroke:#000000" />
    </g>
    <g
       style="display:inline"
       class="edge"
       id="g1115"
       transform="rotate(13,-2436.4479,153.96431)">
      <title
         id="title1109">N1-&gt;dot2</title>
      <path
         style="fill:none;stroke:#000000"
         id="path1111"
         d="m 57.028,-74.958 c 5.0907,7.6361 11.2475,16.8712 16.2887,24.4331"
         inkscape:connector-curvature="0" />
      <polygon
         style="fill:#000000;stroke:#000000"
         id="polygon1113"
         points="76.3065,-52.3499 78.9414,-42.0879 70.4822,-48.4669 " />
    </g>
    <g
       style="display:inline"
       class="edge"
       id="g1123"
       transform="matrix(-0.97436995,0.22495101,0.22495102,0.97436995,185.86948,612.02763)">
      <title
         id="title1117">N1-&gt;dot2</title>
      <path
         style="fill:none;stroke:#000000"
         id="path1119"
         d="m 57.028,-74.958 c 5.0907,7.6361 11.2475,16.8712 16.2887,24.4331"
         inkscape:connector-curvature="0" />
      <polygon
         style="fill:#000000;stroke:#000000"
         id="polygon1121"
         points="78.9414,-42.0879 70.4822,-48.4669 76.3065,-52.3499 " />
    </g>
    <g
       transform="rotate(13,-2659.7544,535.0398)"
       id="g1131"
       class="edge"
       style="display:inline">
      <title
         id="title1125">N1-&gt;dot2</title>
      <path
         inkscape:connector-curvature="0"
         d="m 57.028,-74.958 c 5.0907,7.6361 11.2475,16.8712 16.2887,24.4331"
         id="path1127"
         style="fill:none;stroke:#000000" />
      <polygon
         points="76.3065,-52.3499 78.9414,-42.0879 70.4822,-48.4669 "
         id="polygon1129"
         style="fill:#000000;stroke:#000000" />
    </g>
    <g
       transform="matrix(-0.97436995,0.22495101,0.22495102,0.97436995,265.86948,612.02763)"
       id="g1140"
       class="edge"
       style="display:inline">
      <title
         id="title1133">N1-&gt;dot2</title>
      <path
         inkscape:connector-curvature="0"
         d="m 57.028,-74.958 c 5.0907,7.6361 11.2475,16.8712 16.2887,24.4331"
         id="path1135"
         style="fill:none;stroke:#000000" />
      <polygon
         points="76.3065,-52.3499 78.9414,-42.0879 70.4822,-48.4669 "
         id="polygon1138"
         style="fill:#000000;stroke:#000000" />
    </g>
    <g
       style="display:inline"
       class="edge"
       id="g1148"
       transform="rotate(13,-2619.7544,886.1153)">
      <title
         id="title1142">N1-&gt;dot2</title>
      <path
         style="fill:none;stroke:#000000"
         id="path1144"
         d="m 57.028,-74.958 c 5.0907,7.6361 11.2475,16.8712 16.2887,24.4331"
         inkscape:connector-curvature="0" />
      <polygon
         style="fill:#000000;stroke:#000000"
         id="polygon1146"
         points="70.4822,-48.4669 76.3065,-52.3499 78.9414,-42.0879 " />
    </g>
  </g>
  <g
     inkscape:groupmode="layer"
     id="layer3"
     inkscape:label="text"
     style="display:inline"
     transform="translate(-2.60077,-204)">
    <g
       aria-label="C"
       style="font-style:normal;font-variant:normal;font-weight:bold;font-stretch:normal;font-size:14px;line-height:0%;font-family:Arial;-inkscape-font-specification:'Arial Bold';text-anchor:middle;display:inline;fill:#ffffff;stroke-width:1"
       id="text1338">
      <path
         d="m 122.00722,320.32541 1.96191,0.62207 q -0.45117,1.64062 -1.5039,2.44043 -1.0459,0.79297 -2.65918,0.79297 -1.9961,0 -3.28125,-1.36035 -1.28516,-1.36719 -1.28516,-3.73243 0,-2.50195 1.29199,-3.88281 1.29199,-1.38769 3.39746,-1.38769 1.83887,0 2.98731,1.08691 0.68359,0.64258 1.02539,1.8457 l -2.00293,0.47852 q -0.17774,-0.7793 -0.74512,-1.23047 -0.56055,-0.45117 -1.36719,-0.45117 -1.11425,0 -1.81152,0.7998 -0.69043,0.79981 -0.69043,2.59082 0,1.90039 0.68359,2.70703 0.6836,0.80665 1.77735,0.80665 0.80664,0 1.38769,-0.5127 0.58106,-0.5127 0.83399,-1.61328 z"
         style="font-style:normal;font-variant:normal;font-weight:bold;font-stretch:normal;font-size:14px;line-height:0%;font-family:Arial;-inkscape-font-specification:'Arial Bold';text-anchor:middle;display:inline;fill:#ffffff;stroke-width:1"
         id="path141" />
    </g>
    <g
       aria-label="N"
       style="font-style:normal;font-variant:normal;font-weight:bold;font-stretch:normal;font-size:14px;line-height:0%;font-family:Arial;-inkscape-font-specification:'Arial Bold';text-anchor:middle;display:inline;fill:#ffffff;stroke-width:1"
       id="text1340">
      <path
         d="m 36.11343,264.02032 v -10.02148 h 1.96875 l 4.101563,6.69238 v -6.69238 h 1.879882 v 10.02148 h -2.030273 l -4.040039,-6.53515 v 6.53515 z"
         style="font-style:normal;font-variant:normal;font-weight:bold;font-stretch:normal;font-size:14px;line-height:0%;font-family:Arial;-inkscape-font-specification:'Arial Bold';text-anchor:middle;display:inline;fill:#ffffff;stroke-width:1"
         id="path144" />
    </g>
    <g
       aria-label="P"
       style="font-style:normal;font-variant:normal;font-weight:bold;font-stretch:normal;font-size:14px;line-height:0%;font-family:Arial;-inkscape-font-specification:'Arial Bold';text-anchor:middle;display:inline;fill:#ffffff;stroke-width:1"
       id="text1342">
      <path
         d="m 75.942787,232.4205 v -10.02148 h 3.24707 q 1.845704,0 2.40625,0.15039 0.861329,0.22558 1.442383,0.98437 0.581055,0.75196 0.581055,1.94825 0,0.92285 -0.334961,1.55175 -0.334961,0.62891 -0.854492,0.99121 -0.512695,0.35547 -1.045899,0.47168 -0.724609,0.14356 -2.098632,0.14356 h -1.319336 v 3.78027 z m 2.023438,-8.32617 v 2.84375 h 1.107422 q 1.196289,0 1.599609,-0.15723 0.40332,-0.15722 0.628906,-0.49218 0.232422,-0.33497 0.232422,-0.7793 0,-0.54688 -0.321289,-0.90234 -0.321289,-0.35547 -0.813477,-0.44434 -0.362304,-0.0684 -1.456054,-0.0684 z"
         style="font-style:normal;font-variant:normal;font-weight:bold;font-stretch:normal;font-size:14px;line-height:0%;font-family:Arial;-inkscape-font-specification:'Arial Bold';text-anchor:middle;display:inline;fill:#ffffff;stroke-width:1"
         id="path147" />
    </g>
    <g
       aria-label="S"
       style="font-style:normal;font-variant:normal;font-weight:bold;font-stretch:normal;font-size:14px;line-height:0%;font-family:Arial;-inkscape-font-specification:'Arial Bold';text-anchor:middle;display:inline;fill:#ffffff;stroke-width:1"
       id="text1344">
      <path
         d="m 155.14453,260.37354 1.96875,-0.19141 q 0.17774,0.99121 0.71777,1.45605 0.54688,0.46485 1.46973,0.46485 0.97754,0 1.46973,-0.41016 0.49902,-0.41699 0.49902,-0.9707 0,-0.35547 -0.21191,-0.60156 -0.20508,-0.25293 -0.72461,-0.4375 -0.35547,-0.12305 -1.62012,-0.4375 -1.62695,-0.40332 -2.2832,-0.99122 -0.92285,-0.82714 -0.92285,-2.0166 0,-0.76562 0.43066,-1.42871 0.4375,-0.66992 1.25098,-1.01855 0.82031,-0.34864 1.97558,-0.34864 1.88672,0 2.83692,0.82715 0.95703,0.82715 1.00488,2.20801 l -2.02344,0.0889 q -0.12988,-0.77246 -0.56055,-1.10742 -0.42382,-0.3418 -1.27832,-0.3418 -0.88183,0 -1.38085,0.3623 -0.32129,0.23243 -0.32129,0.62207 0,0.35547 0.30078,0.6084 0.38281,0.32129 1.85937,0.66992 1.47656,0.34864 2.18067,0.72461 0.71093,0.36914 1.10742,1.01856 0.40332,0.64258 0.40332,1.59277 0,0.86133 -0.47852,1.61328 -0.47851,0.75196 -1.35351,1.1211 -0.875,0.3623 -2.18067,0.3623 -1.90039,0 -2.91894,-0.875 -1.01856,-0.88183 -1.2168,-2.56347 z"
         style="font-style:normal;font-variant:normal;font-weight:bold;font-stretch:normal;font-size:14px;line-height:0%;font-family:Arial;-inkscape-font-specification:'Arial Bold';text-anchor:middle;display:inline;fill:#ffffff;stroke-width:1"
         id="path150" />
    </g>
    <g
       aria-label="D"
       style="font-style:normal;font-variant:normal;font-weight:bold;font-stretch:normal;font-size:14px;line-height:0%;font-family:Arial;-inkscape-font-specification:'Arial Bold';text-anchor:middle;display:inline;fill:#ffffff;stroke-width:1"
       id="text1167">
      <path
         d="m 195.58827,313.98849 h 3.69824 q 1.25098,0 1.90723,0.19141 0.88184,0.25977 1.51074,0.92285 0.62891,0.66309 0.95703,1.62696 0.32813,0.95703 0.32813,2.36523 0,1.2373 -0.30762,2.13281 -0.37597,1.09375 -1.07324,1.77051 -0.52637,0.5127 -1.42188,0.79981 -0.66992,0.21191 -1.79101,0.21191 h -3.80762 z m 2.02344,1.69532 v 6.63769 h 1.51074 q 0.84766,0 1.22363,-0.0957 0.49219,-0.12305 0.81348,-0.41699 0.32813,-0.29395 0.5332,-0.96387 0.20508,-0.67676 0.20508,-1.83887 0,-1.16211 -0.20508,-1.78418 -0.20507,-0.62207 -0.57421,-0.9707 -0.36915,-0.34863 -0.93653,-0.47168 -0.42383,-0.0957 -1.66113,-0.0957 z"
         style="font-style:normal;font-variant:normal;font-weight:bold;font-stretch:normal;font-size:14px;line-height:0%;font-family:Arial;-inkscape-font-specification:'Arial Bold';text-anchor:middle;display:inline;fill:#ffffff;stroke-width:1"
         id="path159" />
    </g>
    <g
       aria-label="C"
       style="font-style:normal;font-variant:normal;font-weight:bold;font-stretch:normal;font-size:14px;line-height:0%;font-family:Arial;-inkscape-font-specification:'Arial Bold';text-anchor:middle;display:inline;fill:#ffffff;stroke-width:1"
       id="text1150">
      <path
         d="m 122.00722,540.32544 1.96191,0.62207 q -0.45117,1.64062 -1.5039,2.44043 -1.0459,0.79297 -2.65918,0.79297 -1.9961,0 -3.28125,-1.36035 -1.28516,-1.36719 -1.28516,-3.73243 0,-2.50195 1.29199,-3.88281 1.29199,-1.38769 3.39746,-1.38769 1.83887,0 2.98731,1.08691 0.68359,0.64258 1.02539,1.8457 l -2.00293,0.47852 q -0.17774,-0.7793 -0.74512,-1.23047 -0.56055,-0.45117 -1.36719,-0.45117 -1.11425,0 -1.81152,0.7998 -0.69043,0.79981 -0.69043,2.59082 0,1.90039 0.68359,2.70704 0.6836,0.80664 1.77735,0.80664 0.80664,0 1.38769,-0.5127 0.58106,-0.51269 0.83399,-1.61328 z"
         style="font-style:normal;font-variant:normal;font-weight:bold;font-stretch:normal;font-size:14px;line-height:0%;font-family:Arial;-inkscape-font-specification:'Arial Bold';text-anchor:middle;display:inline;fill:#ffffff;stroke-width:1"
         id="path168" />
    </g>
    <g
       aria-label="N"
       style="font-style:normal;font-variant:normal;font-weight:bold;font-stretch:normal;font-size:14px;line-height:0%;font-family:Arial;-inkscape-font-specification:'Arial Bold';text-anchor:middle;display:inline;fill:#ffffff;stroke-width:1"
       id="text1152">
      <path
         d="m 36.11343,484.02032 v -10.02148 h 1.96875 l 4.101563,6.69238 v -6.69238 h 1.879882 v 10.02148 h -2.030273 l -4.040039,-6.53515 v 6.53515 z"
         style="font-style:normal;font-variant:normal;font-weight:bold;font-stretch:normal;font-size:14px;line-height:0%;font-family:Arial;-inkscape-font-specification:'Arial Bold';text-anchor:middle;display:inline;fill:#ffffff;stroke-width:1"
         id="path171" />
    </g>
    <g
       aria-label="P"
       style="font-style:normal;font-variant:normal;font-weight:bold;font-stretch:normal;font-size:14px;line-height:0%;font-family:Arial;-inkscape-font-specification:'Arial Bold';text-anchor:middle;display:inline;fill:#ffffff;stroke-width:1"
       id="text1154">
      <path
         d="m 75.942787,452.4205 v -10.02148 h 3.24707 q 1.845704,0 2.40625,0.15039 0.861329,0.22558 1.442383,0.98437 0.581055,0.75196 0.581055,1.94825 0,0.92285 -0.334961,1.55175 -0.334961,0.62891 -0.854492,0.99121 -0.512695,0.35547 -1.045899,0.47168 -0.724609,0.14356 -2.098632,0.14356 h -1.319336 v 3.78027 z m 2.023438,-8.32617 v 2.84375 h 1.107422 q 1.196289,0 1.599609,-0.15723 0.40332,-0.15722 0.628906,-0.49218 0.232422,-0.33497 0.232422,-0.7793 0,-0.54688 -0.321289,-0.90234 -0.321289,-0.35547 -0.813477,-0.44434 -0.362304,-0.0684 -1.456054,-0.0684 z"
         style="font-style:normal;font-variant:normal;font-weight:bold;font-stretch:normal;font-size:14px;line-height:0%;font-family:Arial;-inkscape-font-specification:'Arial Bold';text-anchor:middle;display:inline;fill:#ffffff;stroke-width:1"
         id="path174" />
    </g>
    <g
       aria-label="S"
       style="font-style:normal;font-variant:normal;font-weight:bold;font-stretch:normal;font-size:14px;line-height:0%;font-family:Arial;-inkscape-font-specification:'Arial Bold';text-anchor:middle;display:inline;fill:#ffffff;stroke-width:1"
       id="text1156">
      <path
         d="m 155.14453,480.37354 1.96875,-0.19141 q 0.17774,0.99121 0.71777,1.45605 0.54688,0.46485 1.46973,0.46485 0.97754,0 1.46973,-0.41016 0.49902,-0.41699 0.49902,-0.9707 0,-0.35547 -0.21191,-0.60156 -0.20508,-0.25293 -0.72461,-0.4375 -0.35547,-0.12305 -1.62012,-0.4375 -1.62695,-0.40332 -2.2832,-0.99122 -0.92285,-0.82714 -0.92285,-2.0166 0,-0.76562 0.43066,-1.42871 0.4375,-0.66992 1.25098,-1.01855 0.82031,-0.34864 1.97558,-0.34864 1.88672,0 2.83692,0.82715 0.95703,0.82715 1.00488,2.20801 l -2.02344,0.0889 q -0.12988,-0.77246 -0.56055,-1.10742 -0.42382,-0.3418 -1.27832,-0.3418 -0.88183,0 -1.38085,0.3623 -0.32129,0.23243 -0.32129,0.62207 0,0.35547 0.30078,0.6084 0.38281,0.32129 1.85937,0.66992 1.47656,0.34864 2.18067,0.72461 0.71093,0.36914 1.10742,1.01856 0.40332,0.64258 0.40332,1.59277 0,0.86133 -0.47852,1.61328 -0.47851,0.75196 -1.35351,1.1211 -0.875,0.3623 -2.18067,0.3623 -1.90039,0 -2.91894,-0.875 -1.01856,-0.88183 -1.2168,-2.56347 z"
         style="font-style:normal;font-variant:normal;font-weight:bold;font-stretch:normal;font-size:14px;line-height:0%;font-family:Arial;-inkscape-font-specification:'Arial Bold';text-anchor:middle;display:inline;fill:#ffffff;stroke-width:1"
         id="path177" />
    </g>
    <g
       aria-label="D"
       style="font-style:normal;font-variant:normal;font-weight:bold;font-stretch:normal;font-size:14px;line-height:0%;font-family:Arial;-inkscape-font-specification:'Arial Bold';text-anchor:middle;display:inline;fill:#ffffff;stroke-width:1"
       id="text1162">
      <path
         d="m 195.58827,533.98853 h 3.69824 q 1.25098,0 1.90723,0.1914 0.88184,0.25977 1.51074,0.92285 0.62891,0.66309 0.95703,1.62696 0.32813,0.95703 0.32813,2.36523 0,1.23731 -0.30762,2.13281 -0.37597,1.09375 -1.07324,1.77051 -0.52637,0.5127 -1.42188,0.79981 -0.66992,0.21191 -1.79101,0.21191 h -3.80762 z m 2.02344,1.69531 v 6.63769 h 1.51074 q 0.84766,0 1.22363,-0.0957 0.49219,-0.12305 0.81348,-0.41699 0.32813,-0.29395 0.5332,-0.96387 0.20508,-0.67676 0.20508,-1.83887 0,-1.16211 -0.20508,-1.78418 -0.20507,-0.62207 -0.57421,-0.9707 -0.36915,-0.34863 -0.93653,-0.47168 -0.42383,-0.0957 -1.66113,-0.0957 z"
         style="font-style:normal;font-variant:normal;font-weight:bold;font-stretch:normal;font-size:14px;line-height:0%;font-family:Arial;-inkscape-font-specification:'Arial Bold';text-anchor:middle;display:inline;fill:#ffffff;stroke-width:1"
         id="path186" />
    </g>
  </g>
</svg>
