<?xml version="1.0" encoding="UTF-8" standalone="no"?>
<!-- Generated by graphviz version 2.36.0 (20140111.2315)
 -->

<!-- Title: G Pages: 1 -->

<svg
   xmlns:dc="http://purl.org/dc/elements/1.1/"
   xmlns:cc="http://creativecommons.org/ns#"
   xmlns:rdf="http://www.w3.org/1999/02/22-rdf-syntax-ns#"
   xmlns:svg="http://www.w3.org/2000/svg"
   xmlns="http://www.w3.org/2000/svg"
   xmlns:sodipodi="http://sodipodi.sourceforge.net/DTD/sodipodi-0.dtd"
   xmlns:inkscape="http://www.inkscape.org/namespaces/inkscape"
   width="142"
   height="419"
   viewBox="0 0 141.99999 419"
   id="svg2"
   version="1.1"
   inkscape:version="0.92.4 (5da689c313, 2019-01-14)"
   sodipodi:docname="Red-black_tree_delete_case_C0.svg"
   inkscape:export-filename=".\Red-black_tree_insert_case_Cr.png"
   inkscape:export-xdpi="72"
   inkscape:export-ydpi="72">
  <metadata
     id="metadata286">
    <rdf:RDF>
      <cc:Work
         rdf:about="">
        <dc:format>image/svg+xml</dc:format>
        <dc:type
           rdf:resource="http://purl.org/dc/dcmitype/StillImage" />
        <dc:title></dc:title>
      </cc:Work>
    </rdf:RDF>
  </metadata>
  <defs
     id="defs284" />
  <sodipodi:namedview
     pagecolor="#ffffff"
     bordercolor="#666666"
     borderopacity="1"
     objecttolerance="10"
     gridtolerance="10"
     guidetolerance="10"
     inkscape:pageopacity="0"
     inkscape:pageshadow="2"
     inkscape:window-width="773"
     inkscape:window-height="712"
     id="namedview282"
     showgrid="false"
     inkscape:zoom="1"
     inkscape:cx="86.565749"
     inkscape:cy="226.42063"
     inkscape:window-x="28"
     inkscape:window-y="77"
     inkscape:window-maximized="0"
     inkscape:current-layer="layer3"
     borderlayer="true"
     fit-margin-top="0"
     fit-margin-left="0"
     fit-margin-right="0"
     fit-margin-bottom="0" />
  <g
     inkscape:groupmode="layer"
     id="layer2"
     inkscape:label="corners"
     transform="translate(-39.5,-204)"
     style="display:none">
    <rect
       style="color:#000000;clip-rule:nonzero;display:inline;overflow:visible;visibility:visible;opacity:1;isolation:auto;mix-blend-mode:normal;color-interpolation:sRGB;color-interpolation-filters:linearRGB;solid-color:#000000;solid-opacity:1;fill:#808080;fill-opacity:1;fill-rule:nonzero;stroke:#000000;stroke-width:4;stroke-linecap:butt;stroke-linejoin:miter;stroke-miterlimit:4;stroke-dasharray:none;stroke-dashoffset:0;stroke-opacity:1;color-rendering:auto;image-rendering:auto;shape-rendering:auto;text-rendering:auto;enable-background:accumulate"
       id="rect299"
       width="4"
       height="4"
       x="175.5"
       y="617" />
    <rect
       style="color:#000000;clip-rule:nonzero;display:inline;overflow:visible;visibility:visible;opacity:1;isolation:auto;mix-blend-mode:normal;color-interpolation:sRGB;color-interpolation-filters:linearRGB;solid-color:#000000;solid-opacity:1;fill:#808080;fill-opacity:1;fill-rule:nonzero;stroke:#000000;stroke-width:4;stroke-linecap:butt;stroke-linejoin:miter;stroke-miterlimit:4;stroke-dasharray:none;stroke-dashoffset:0;stroke-opacity:1;color-rendering:auto;image-rendering:auto;shape-rendering:auto;text-rendering:auto;enable-background:accumulate"
       id="rect297-6"
       width="4"
       height="4"
       x="41.5"
       y="206" />
  </g>
  <g
     inkscape:groupmode="layer"
     id="layer1"
     inkscape:label="all"
     transform="translate(-39.5,-204)"
     style="display:inline">
    <g
       style="display:inline"
       id="g892">
      <path
         style="display:inline;fill:#0000ff;stroke:#0000ff;stroke-width:1;stroke-miterlimit:4;stroke-dasharray:none"
         id="path1037-8"
         d="m 89.082733,222.58556 c -13.161474,5.78115 -29.078482,12.77337 -42.112827,18.49889"
         inkscape:connector-curvature="0" />
      <polygon
         style="display:inline;fill:#0000ff;stroke:#0000ff;stroke-width:0.80077672;stroke-miterlimit:4;stroke-dasharray:none"
         id="polygon1039-3"
         points="106.482,-102.467 112.307,-106.35 114.941,-96.0879 "
         transform="matrix(-0.88259491,-0.5687936,-0.56879362,0.88259494,93.223112,391.53461)" />
    </g>
    <g
       id="g1079">
      <path
         inkscape:connector-curvature="0"
         d="m 81.380054,228.41447 c 18.671456,7.62038 41.252066,16.83716 59.743196,24.38421"
         id="path1326"
         style="display:inline;fill:none;stroke:#000000;stroke-width:1;stroke-miterlimit:4;stroke-dasharray:none" />
      <polygon
         transform="matrix(0.87759769,-0.57647393,0.57647395,0.87759769,95.643467,403.38569)"
         points="112.307,-106.35 114.941,-96.0879 106.482,-102.467 "
         id="polygon1328"
         style="display:inline;fill:#000000;stroke:#000000;stroke-width:0.80077672;stroke-miterlimit:4;stroke-dasharray:none" />
    </g>
    <circle
       cx="159"
       cy="260"
       id="circle1324"
       style="display:inline;fill:#000000;stroke:#000000;stroke-width:1"
       r="18" />
    <ellipse
       style="display:inline;opacity:1;fill:#000000;fill-opacity:1;fill-rule:evenodd;stroke:#000000;stroke-width:0;stroke-linecap:round;stroke-linejoin:round;stroke-miterlimit:4;stroke-dasharray:none;stroke-dashoffset:0;stroke-opacity:1"
       id="path4862"
       cx="78.877693"
       cy="227.87106"
       rx="18.011864"
       ry="18.011868" />
    <circle
       style="display:inline;opacity:1;fill:#ff0000;fill-opacity:1;fill-rule:evenodd;stroke:#000000;stroke-width:0.99985874;stroke-linecap:round;stroke-linejoin:round;stroke-miterlimit:4;stroke-dasharray:none;stroke-dashoffset:0;stroke-opacity:1"
       id="path4834"
       cx="79"
       cy="228"
       r="18" />
    <g
       id="g1063"
       transform="translate(0,220)">
      <path
         style="display:inline;fill:none;stroke:#000000;stroke-width:1;stroke-miterlimit:4;stroke-dasharray:none"
         id="path1059"
         d="m 81.380054,228.41447 c 18.671456,7.62038 41.252066,16.83716 59.743196,24.38421"
         inkscape:connector-curvature="0" />
      <polygon
         style="display:inline;fill:#000000;stroke:#000000;stroke-width:0.80077672;stroke-miterlimit:4;stroke-dasharray:none"
         id="polygon1061"
         points="114.941,-96.0879 106.482,-102.467 112.307,-106.35 "
         transform="matrix(0.87759769,-0.57647393,0.57647395,0.87759769,95.643467,403.38569)" />
    </g>
    <circle
       r="18"
       style="display:inline;fill:#ff0000;stroke:#000000;stroke-width:1"
       id="circle1081"
       cy="480"
       cx="159" />
    <ellipse
       ry="18.011868"
       rx="18.011864"
       cy="447.87106"
       cx="78.877693"
       id="ellipse1087"
       style="display:inline;opacity:1;fill:#000000;fill-opacity:1;fill-rule:evenodd;stroke:#000000;stroke-width:0;stroke-linecap:round;stroke-linejoin:round;stroke-miterlimit:4;stroke-dasharray:none;stroke-dashoffset:0;stroke-opacity:1" />
    <circle
       r="18"
       cy="448"
       cx="79"
       id="circle1089"
       style="display:inline;opacity:1;fill:#000000;fill-opacity:1;fill-rule:evenodd;stroke:#000000;stroke-width:0.99985874;stroke-linecap:round;stroke-linejoin:round;stroke-miterlimit:4;stroke-dasharray:none;stroke-dashoffset:0;stroke-opacity:1" />
  </g>
  <g
     inkscape:groupmode="layer"
     id="layer3"
     inkscape:label="text"
     style="display:inline"
     transform="translate(-40.10077,-204)">
    <g
       aria-label="P"
       style="font-style:normal;font-variant:normal;font-weight:bold;font-stretch:normal;font-size:14px;line-height:0%;font-family:Arial;-inkscape-font-specification:'Arial Bold';text-anchor:middle;display:inline;fill:#ffffff;stroke-width:1"
       id="text1342">
      <path
         d="m 75.942772,232.4205 v -10.02148 h 3.24707 q 1.845703,0 2.40625,0.15039 0.861328,0.22558 1.442383,0.98437 0.581055,0.75196 0.581055,1.94825 0,0.92285 -0.334961,1.55175 -0.334961,0.62891 -0.854492,0.99121 -0.512696,0.35547 -1.045899,0.47168 -0.724609,0.14356 -2.098633,0.14356 h -1.319336 v 3.78027 z m 2.023437,-8.32617 v 2.84375 h 1.107422 q 1.196289,0 1.59961,-0.15723 0.40332,-0.15722 0.628906,-0.49218 0.232422,-0.33497 0.232422,-0.7793 0,-0.54688 -0.321289,-0.90234 -0.321289,-0.35547 -0.813477,-0.44434 -0.362305,-0.0684 -1.456055,-0.0684 z"
         style="font-style:normal;font-variant:normal;font-weight:bold;font-stretch:normal;font-size:14px;line-height:0%;font-family:Arial;-inkscape-font-specification:'Arial Bold';text-anchor:middle;display:inline;fill:#ffffff;stroke-width:1"
         id="path30" />
    </g>
    <g
       aria-label="S"
       style="font-style:normal;font-variant:normal;font-weight:bold;font-stretch:normal;font-size:14px;line-height:0%;font-family:Arial;-inkscape-font-specification:'Arial Bold';text-anchor:middle;display:inline;fill:#ffffff;stroke-width:1"
       id="text1344">
      <path
         d="m 155.14453,260.37354 1.96875,-0.19141 q 0.17774,0.99121 0.71777,1.45605 0.54688,0.46485 1.46973,0.46485 0.97754,0 1.46973,-0.41016 0.49902,-0.41699 0.49902,-0.9707 0,-0.35547 -0.21191,-0.60156 -0.20508,-0.25293 -0.72461,-0.4375 -0.35547,-0.12305 -1.62012,-0.4375 -1.62695,-0.40332 -2.2832,-0.99122 -0.92285,-0.82714 -0.92285,-2.0166 0,-0.76562 0.43066,-1.42871 0.4375,-0.66992 1.25098,-1.01855 0.82031,-0.34864 1.97558,-0.34864 1.88672,0 2.83692,0.82715 0.95703,0.82715 1.00488,2.20801 l -2.02344,0.0889 q -0.12988,-0.77246 -0.56055,-1.10742 -0.42382,-0.3418 -1.27832,-0.3418 -0.88183,0 -1.38085,0.3623 -0.32129,0.23243 -0.32129,0.62207 0,0.35547 0.30078,0.6084 0.38281,0.32129 1.85937,0.66992 1.47656,0.34864 2.18067,0.72461 0.71093,0.36914 1.10742,1.01856 0.40332,0.64258 0.40332,1.59277 0,0.86133 -0.47852,1.61328 -0.47851,0.75196 -1.35351,1.1211 -0.875,0.3623 -2.18067,0.3623 -1.90039,0 -2.91894,-0.875 -1.01856,-0.88183 -1.2168,-2.56347 z"
         style="font-style:normal;font-variant:normal;font-weight:bold;font-stretch:normal;font-size:14px;line-height:0%;font-family:Arial;-inkscape-font-specification:'Arial Bold';text-anchor:middle;display:inline;fill:#ffffff;stroke-width:1"
         id="path33" />
    </g>
    <g
       aria-label="P"
       style="font-style:normal;font-variant:normal;font-weight:bold;font-stretch:normal;font-size:14px;line-height:0%;font-family:Arial;-inkscape-font-specification:'Arial Bold';text-anchor:middle;display:inline;fill:#ffffff;stroke-width:1"
       id="text1154">
      <path
         d="m 75.942787,452.4205 v -10.02148 h 3.24707 q 1.845704,0 2.40625,0.15039 0.861329,0.22558 1.442383,0.98437 0.581055,0.75196 0.581055,1.94825 0,0.92285 -0.334961,1.55175 -0.334961,0.62891 -0.854492,0.99121 -0.512695,0.35547 -1.045899,0.47168 -0.724609,0.14356 -2.098632,0.14356 h -1.319336 v 3.78027 z m 2.023438,-8.32617 v 2.84375 h 1.107422 q 1.196289,0 1.599609,-0.15723 0.40332,-0.15722 0.628906,-0.49218 0.232422,-0.33497 0.232422,-0.7793 0,-0.54688 -0.321289,-0.90234 -0.321289,-0.35547 -0.813477,-0.44434 -0.362304,-0.0684 -1.456054,-0.0684 z"
         style="font-style:normal;font-variant:normal;font-weight:bold;font-stretch:normal;font-size:14px;line-height:0%;font-family:Arial;-inkscape-font-specification:'Arial Bold';text-anchor:middle;display:inline;fill:#ffffff;stroke-width:1"
         id="path36" />
    </g>
    <g
       aria-label="S"
       style="font-style:normal;font-variant:normal;font-weight:bold;font-stretch:normal;font-size:14px;line-height:0%;font-family:Arial;-inkscape-font-specification:'Arial Bold';text-anchor:middle;display:inline;fill:#ffffff;stroke-width:1"
       id="text1156">
      <path
         d="m 155.14453,480.37354 1.96875,-0.19141 q 0.17774,0.99121 0.71777,1.45605 0.54688,0.46485 1.46973,0.46485 0.97754,0 1.46973,-0.41016 0.49902,-0.41699 0.49902,-0.9707 0,-0.35547 -0.21191,-0.60156 -0.20508,-0.25293 -0.72461,-0.4375 -0.35547,-0.12305 -1.62012,-0.4375 -1.62695,-0.40332 -2.2832,-0.99122 -0.92285,-0.82714 -0.92285,-2.0166 0,-0.76562 0.43066,-1.42871 0.4375,-0.66992 1.25098,-1.01855 0.82031,-0.34864 1.97558,-0.34864 1.88672,0 2.83692,0.82715 0.95703,0.82715 1.00488,2.20801 l -2.02344,0.0889 q -0.12988,-0.77246 -0.56055,-1.10742 -0.42382,-0.3418 -1.27832,-0.3418 -0.88183,0 -1.38085,0.3623 -0.32129,0.23243 -0.32129,0.62207 0,0.35547 0.30078,0.6084 0.38281,0.32129 1.85937,0.66992 1.47656,0.34864 2.18067,0.72461 0.71093,0.36914 1.10742,1.01856 0.40332,0.64258 0.40332,1.59277 0,0.86133 -0.47852,1.61328 -0.47851,0.75196 -1.35351,1.1211 -0.875,0.3623 -2.18067,0.3623 -1.90039,0 -2.91894,-0.875 -1.01856,-0.88183 -1.2168,-2.56347 z"
         style="font-style:normal;font-variant:normal;font-weight:bold;font-stretch:normal;font-size:14px;line-height:0%;font-family:Arial;-inkscape-font-specification:'Arial Bold';text-anchor:middle;display:inline;fill:#ffffff;stroke-width:1"
         id="path39" />
    </g>
  </g>
</svg>
