<?xml version="1.0" encoding="UTF-8" standalone="no"?>
<svg
   xmlns:dc="http://purl.org/dc/elements/1.1/"
   xmlns:cc="http://creativecommons.org/ns#"
   xmlns:rdf="http://www.w3.org/1999/02/22-rdf-syntax-ns#"
   xmlns:svg="http://www.w3.org/2000/svg"
   xmlns="http://www.w3.org/2000/svg"
   xmlns:sodipodi="http://sodipodi.sourceforge.net/DTD/sodipodi-0.dtd"
   xmlns:inkscape="http://www.inkscape.org/namespaces/inkscape"
   width="193.75562"
   height="639"
   viewBox="0 0 193.75561 639"
   id="svg2"
   version="1.1"
   inkscape:version="1.0.2-2 (e86c870879, 2021-01-15)"
   sodipodi:docname="Red-black_tree_insert_case_D1rot.svg"
   inkscape:export-filename=".\Red-black_tree_insert_case_Cr.png"
   inkscape:export-xdpi="72"
   inkscape:export-ydpi="72">
  <metadata
     id="metadata286">
    <rdf:RDF>
      <cc:Work
         rdf:about="">
        <dc:format>image/svg+xml</dc:format>
        <dc:type
           rdf:resource="http://purl.org/dc/dcmitype/StillImage" />
        <dc:title></dc:title>
      </cc:Work>
    </rdf:RDF>
  </metadata>
  <defs
     id="defs284" />
  <sodipodi:namedview
     pagecolor="#ffffff"
     bordercolor="#666666"
     borderopacity="1"
     objecttolerance="10"
     gridtolerance="10"
     guidetolerance="10"
     inkscape:pageopacity="0"
     inkscape:pageshadow="2"
     inkscape:window-width="1023"
     inkscape:window-height="962"
     id="namedview282"
     showgrid="false"
     inkscape:zoom="1"
     inkscape:cx="69.200668"
     inkscape:cy="366.86878"
     inkscape:window-x="779"
     inkscape:window-y="-8"
     inkscape:window-maximized="0"
     inkscape:current-layer="layer3"
     borderlayer="true"
     fit-margin-top="0"
     fit-margin-left="0"
     fit-margin-right="0"
     fit-margin-bottom="0"
     inkscape:document-rotation="0" />
  <g
     inkscape:groupmode="layer"
     id="layer2"
     inkscape:label="corners"
     transform="translate(-2,-424)"
     style="display:none">
    <rect
       style="color:#000000;clip-rule:nonzero;display:inline;overflow:visible;visibility:visible;opacity:1;isolation:auto;mix-blend-mode:normal;color-interpolation:sRGB;color-interpolation-filters:linearRGB;solid-color:#000000;solid-opacity:1;fill:#808080;fill-opacity:1;fill-rule:nonzero;stroke:#000000;stroke-width:4;stroke-linecap:butt;stroke-linejoin:miter;stroke-miterlimit:4;stroke-dasharray:none;stroke-dashoffset:0;stroke-opacity:1;color-rendering:auto;image-rendering:auto;shape-rendering:auto;text-rendering:auto;enable-background:accumulate"
       id="rect297"
       width="4"
       height="4"
       x="4"
       y="426" />
    <rect
       style="color:#000000;clip-rule:nonzero;display:inline;overflow:visible;visibility:visible;opacity:1;isolation:auto;mix-blend-mode:normal;color-interpolation:sRGB;color-interpolation-filters:linearRGB;solid-color:#000000;solid-opacity:1;fill:#808080;fill-opacity:1;fill-rule:nonzero;stroke:#000000;stroke-width:4;stroke-linecap:butt;stroke-linejoin:miter;stroke-miterlimit:4;stroke-dasharray:none;stroke-dashoffset:0;stroke-opacity:1;color-rendering:auto;image-rendering:auto;shape-rendering:auto;text-rendering:auto;enable-background:accumulate"
       id="rect299"
       width="4"
       height="4"
       x="189.75562"
       y="1057" />
  </g>
  <g
     inkscape:groupmode="layer"
     id="layer1"
     inkscape:label="all"
     transform="translate(-2,-424)"
     style="display:inline">
    <path
       style="display:inline;fill:none;stroke:#000000;stroke-width:1;stroke-miterlimit:4;stroke-dasharray:none"
       id="path1045"
       d="m 91.562887,660.63443 c -11.52367,8.59367 -25.45982,18.98723 -36.872134,27.49809"
       inkscape:connector-curvature="0" />
    <path
       style="display:inline;fill:none;stroke:#000000;stroke-width:1;stroke-miterlimit:4;stroke-dasharray:none"
       id="path1047"
       d="m 66.43274,659.11799 c 11.73812,8.88201 25.9336,19.62328 37.5583,28.41925"
       inkscape:connector-curvature="0" />
    <path
       style="display:inline;fill:none;stroke:#000000;stroke-width:1;stroke-miterlimit:4;stroke-dasharray:none"
       id="path993"
       d="m 119.13166,702.33918 c -5.21868,13.39446 -11.52945,29.59373 -16.69757,42.85896"
       inkscape:connector-curvature="0" />
    <polygon
       style="display:inline;fill:#000000;stroke:#000000;stroke-width:0.800777;stroke-miterlimit:4;stroke-dasharray:none"
       id="polygon995"
       points="112.307,-106.35 114.941,-96.0879 106.482,-102.467 "
       transform="matrix(-1.0281839,0.21292667,0.21292667,1.028184,241.05163,819.9484)" />
    <g
       style="display:inline"
       transform="rotate(18,-2113.123,397.44423)"
       id="g1001">
      <path
         inkscape:connector-curvature="0"
         d="M 107.80851,-0.88200707 C 119.54663,8 133.74211,18.741273 145.36681,27.537244"
         id="path997"
         style="display:inline;fill:none;stroke:#000000;stroke-width:1;stroke-miterlimit:4;stroke-dasharray:none" />
      <polygon
         transform="matrix(0.99689671,-0.32969206,0.32969208,0.99689671,62.461926,161.22209)"
         points="106.482,-102.467 112.307,-106.35 114.941,-96.0879 "
         id="polygon999"
         style="display:inline;fill:#000000;stroke:#000000;stroke-width:0.800777;stroke-miterlimit:4;stroke-dasharray:none" />
    </g>
    <polygon
       style="display:inline;fill:#000000;stroke:#000000;stroke-width:0.800777;stroke-miterlimit:4;stroke-dasharray:none"
       id="polygon1003"
       points="112.307,-106.35 114.941,-96.0879 106.482,-102.467 "
       transform="matrix(-0.99099098,-0.34704009,-0.34704011,0.99099101,135.00798,823.7121)" />
    <g
       transform="rotate(13,-3390.9128,253.15429)"
       id="g1011"
       class="edge"
       style="display:inline">
      <title
         id="title1005">N1-&gt;dot2</title>
      <path
         inkscape:connector-curvature="0"
         d="m 57.028,-74.958 c 5.0907,7.6361 11.2475,16.8712 16.2887,24.4331"
         id="path1007"
         style="fill:none;stroke:#000000" />
      <polygon
         points="76.3065,-52.3499 78.9414,-42.0879 70.4822,-48.4669 "
         id="polygon1009"
         style="fill:#000000;stroke:#000000" />
    </g>
    <g
       style="display:inline"
       class="edge"
       id="g1019"
       transform="matrix(-0.97436995,0.22495101,0.22495102,0.97436995,108.01948,769.27763)">
      <title
         id="title1013">N1-&gt;dot2</title>
      <path
         style="fill:none;stroke:#000000"
         id="path1015"
         d="m 57.028,-74.958 c 5.0907,7.6361 11.2475,16.8712 16.2887,24.4331"
         inkscape:connector-curvature="0" />
      <polygon
         style="fill:#000000;stroke:#000000"
         id="polygon1017"
         points="78.9414,-42.0879 70.4822,-48.4669 76.3065,-52.3499 " />
    </g>
    <circle
       cx="59"
       cy="754"
       id="circle1021"
       style="display:inline;fill:#000000;stroke:#000000;stroke-width:1.00005"
       r="7" />
    <circle
       r="7"
       style="display:inline;fill:#000000;stroke:#000000;stroke-width:1.00005"
       id="circle1023"
       cy="754"
       cx="99" />
    <circle
       r="7"
       style="display:inline;fill:#000000;stroke:#000000;stroke-width:1.00005"
       id="circle1025"
       cy="754"
       cx="19" />
    <g
       style="display:inline"
       class="edge"
       id="g1033"
       transform="matrix(-0.97436995,0.22495101,0.22495102,0.97436995,225.86948,832.0276)">
      <title
         id="title1027">N1-&gt;dot2</title>
      <path
         style="fill:none;stroke:#000000"
         id="path1029"
         d="m 57.028,-74.958 c 5.0907,7.6361 11.2475,16.8712 16.2887,24.4331"
         inkscape:connector-curvature="0" />
      <polygon
         style="fill:#000000;stroke:#000000"
         id="polygon1031"
         points="76.3065,-52.3499 78.9414,-42.0879 70.4822,-48.4669 " />
    </g>
    <g
       transform="rotate(13,-3605.2121,820.57755)"
       id="g1041"
       class="edge"
       style="display:inline">
      <title
         id="title1035">N1-&gt;dot2</title>
      <path
         inkscape:connector-curvature="0"
         d="m 57.028,-74.958 c 5.0907,7.6361 11.2475,16.8712 16.2887,24.4331"
         id="path1037"
         style="fill:none;stroke:#000000" />
      <polygon
         points="70.4822,-48.4669 76.3065,-52.3499 78.9414,-42.0879 "
         id="polygon1039"
         style="fill:#000000;stroke:#000000" />
    </g>
    <polygon
       style="display:inline;fill:#000000;stroke:#000000;stroke-width:0.800777;stroke-miterlimit:4;stroke-dasharray:none"
       id="polygon1043"
       points="114.941,-96.0879 106.482,-102.467 112.307,-106.35 "
       transform="matrix(1.0056016,-0.31218944,0.31218946,1.0056016,18.37827,820.0374)" />
    <path
       style="display:inline;fill:none;stroke:#000000;stroke-width:1;stroke-miterlimit:4;stroke-dasharray:none"
       id="path1526"
       d="m 119.13166,922.33918 c -5.21868,13.39446 -11.52945,29.59373 -16.69757,42.85896"
       inkscape:connector-curvature="0" />
    <polygon
       style="display:inline;fill:#000000;stroke:#000000;stroke-width:0.800777;stroke-miterlimit:4;stroke-dasharray:none"
       id="polygon1528"
       points="106.482,-102.467 112.307,-106.35 114.941,-96.0879 "
       transform="matrix(-1.0281839,0.21292667,0.21292667,1.028184,241.05163,1039.9484)" />
    <g
       style="display:inline"
       transform="rotate(18,-2807.6357,507.44423)"
       id="g1538">
      <path
         inkscape:connector-curvature="0"
         d="M 107.80851,-0.88200707 C 119.54663,8 133.74211,18.741273 145.36681,27.537244"
         id="path1534"
         style="display:inline;fill:none;stroke:#000000;stroke-width:1;stroke-miterlimit:4;stroke-dasharray:none" />
      <polygon
         transform="matrix(0.99689671,-0.32969206,0.32969208,0.99689671,62.461926,161.22209)"
         points="114.941,-96.0879 106.482,-102.467 112.307,-106.35 "
         id="polygon1536"
         style="display:inline;fill:#000000;stroke:#000000;stroke-width:0.800777;stroke-miterlimit:4;stroke-dasharray:none" />
    </g>
    <path
       style="display:inline;fill:none;stroke:#000000;stroke-width:1;stroke-miterlimit:4;stroke-dasharray:none"
       id="path961"
       d="m 91.562887,880.63443 c -11.52367,8.59367 -25.45982,18.98723 -36.872134,27.49809"
       inkscape:connector-curvature="0" />
    <polygon
       style="display:inline;fill:#000000;stroke:#000000;stroke-width:0.800777;stroke-miterlimit:4;stroke-dasharray:none"
       id="polygon963"
       points="106.482,-102.467 112.307,-106.35 114.941,-96.0879 "
       transform="matrix(-0.99099098,-0.34704009,-0.34704011,0.99099101,135.00798,1043.7121)" />
    <g
       style="display:inline"
       class="edge"
       id="g1380"
       transform="rotate(13,-2688.7617,173.1543)">
      <title
         id="title1374">N1-&gt;dot2</title>
      <path
         style="fill:none;stroke:#000000"
         id="path1376"
         d="m 57.028,-74.958 c 5.0907,7.6361 11.2475,16.8712 16.2887,24.4331"
         inkscape:connector-curvature="0" />
      <polygon
         style="fill:#000000;stroke:#000000"
         id="polygon1378"
         points="70.4822,-48.4669 76.3065,-52.3499 78.9414,-42.0879 " />
    </g>
    <g
       transform="matrix(-0.97436995,0.22495101,0.22495102,0.97436995,108.01948,609.27763)"
       id="g427"
       class="edge"
       style="display:inline">
      <title
         id="title421">N1-&gt;dot2</title>
      <path
         inkscape:connector-curvature="0"
         d="m 57.028,-74.958 c 5.0907,7.6361 11.2475,16.8712 16.2887,24.4331"
         id="path423"
         style="fill:none;stroke:#000000" />
      <polygon
         points="76.3065,-52.3499 78.9414,-42.0879 70.4822,-48.4669 "
         id="polygon425"
         style="fill:#000000;stroke:#000000" />
    </g>
    <g
       transform="rotate(13,-2405.5923,317.48533)"
       id="g244"
       class="edge"
       style="display:inline">
      <title
         id="title238">N1-&gt;dot2</title>
      <path
         inkscape:connector-curvature="0"
         d="m 57.028,-74.958 c 5.0907,7.6361 11.2475,16.8712 16.2887,24.4331"
         id="path240"
         style="fill:none;stroke:#000000" />
      <polygon
         points="76.3065,-52.3499 78.9414,-42.0879 70.4822,-48.4669 "
         id="polygon242"
         style="fill:#000000;stroke:#000000" />
    </g>
    <g
       style="display:inline"
       id="g1384"
       transform="matrix(-1,0,0,1,117.28899,440)">
      <path
         style="fill:none;stroke:#000000;stroke-width:1;stroke-miterlimit:4;stroke-dasharray:none"
         id="path54-5-1"
         d="m 43.497522,44.743112 c 5.861222,9.138754 12.480648,19.461016 18.899576,29.469483"
         inkscape:connector-curvature="0" />
      <polygon
         transform="matrix(-1,0,0,1,125.59796,188.20385)"
         style="fill:#000000;stroke:#000000"
         id="polygon56-7-6"
         points="57.2244,-105.337 59.8592,-115.599 65.6836,-111.716 " />
    </g>
    <circle
       cx="39"
       cy="540"
       id="ellipse19-6-9"
       style="display:inline;fill:#ff0000;stroke:#0000ff;stroke-width:4;stroke-miterlimit:4;stroke-dasharray:none"
       r="16.5" />
    <polygon
       points="-11,0 11,0 0,-27 "
       id="polygon128-6"
       style="display:inline;fill:none;stroke:#000000"
       transform="matrix(-1,0,0,1,59,618)" />
    <circle
       cx="79"
       cy="480"
       id="ellipse47-2-6"
       style="display:inline;fill:#ff0000;stroke:#000000;stroke-width:1;stroke-miterlimit:4;stroke-dasharray:none;stroke-opacity:1"
       r="18" />
    <circle
       style="display:inline;fill:#000000;stroke:#000000;stroke-width:1"
       id="circle4258"
       cy="448"
       cx="119"
       r="18" />
    <path
       inkscape:connector-curvature="0"
       d="m 131.56289,440.63443 c -11.52367,8.59367 -25.45982,18.98723 -36.872137,27.49809"
       id="path4282"
       style="display:inline;fill:none;stroke:#000000;stroke-width:1;stroke-miterlimit:4;stroke-dasharray:none" />
    <polygon
       transform="matrix(-0.99099098,-0.34704009,-0.34704011,0.99099101,175.00798,603.7121)"
       points="112.307,-106.35 114.941,-96.0879 106.482,-102.467 "
       id="polygon4284"
       style="display:inline;fill:#000000;stroke:#000000;stroke-width:0.800777;stroke-miterlimit:4;stroke-dasharray:none" />
    <circle
       r="18"
       style="display:inline;fill:#000000;stroke:#000000;stroke-width:1"
       id="circle146"
       cy="480"
       cx="159" />
    <path
       style="display:inline;fill:none;stroke:#000000;stroke-width:1;stroke-miterlimit:4;stroke-dasharray:none"
       id="path150"
       d="m 106.80774,439.11799 c 11.73812,8.88201 25.9336,19.62328 37.5583,28.41925"
       inkscape:connector-curvature="0" />
    <polygon
       style="display:inline;fill:#000000;stroke:#000000;stroke-width:0.800777;stroke-miterlimit:4;stroke-dasharray:none"
       id="polygon152"
       points="114.941,-96.0879 106.482,-102.467 112.307,-106.35 "
       transform="matrix(1.0056016,-0.31218944,0.31218946,1.0056016,58.75327,600.03735)" />
    <circle
       r="7"
       style="display:inline;fill:#000000;stroke:#000000;stroke-width:1.00005"
       id="ellipse3797"
       cy="594"
       cx="59" />
    <polygon
       transform="matrix(-1,0,0,1,99,558)"
       style="display:inline;fill:none;stroke:#000000"
       id="polygon232"
       points="0,-27 -11,0 11,0 " />
    <circle
       cx="99"
       cy="534"
       id="circle234"
       style="display:inline;fill:#000000;stroke:#000000;stroke-width:1.00005"
       r="7" />
    <polygon
       transform="matrix(-1,0,0,1,19,618)"
       style="display:inline;fill:none;stroke:#000000"
       id="polygon429"
       points="0,-27 -11,0 11,0 " />
    <circle
       cx="19"
       cy="594"
       id="circle431"
       style="display:inline;fill:#000000;stroke:#000000;stroke-width:1"
       r="7" />
    <g
       transform="matrix(-0.97436995,0.22495101,0.22495102,0.97436995,225.86948,552.02763)"
       id="g441"
       class="edge"
       style="display:inline">
      <title
         id="title435">N1-&gt;dot2</title>
      <path
         inkscape:connector-curvature="0"
         d="m 57.028,-74.958 c 5.0907,7.6361 11.2475,16.8712 16.2887,24.4331"
         id="path437"
         style="fill:none;stroke:#000000" />
      <polygon
         points="70.4822,-48.4669 76.3065,-52.3499 78.9414,-42.0879 "
         id="polygon439"
         style="fill:#000000;stroke:#000000" />
    </g>
    <polygon
       transform="matrix(-1,0,0,1,139,558)"
       style="display:inline;fill:none;stroke:#000000"
       id="polygon451"
       points="0,-27 -11,0 11,0 " />
    <polygon
       points="-11,0 11,0 0,-27 "
       id="polygon453"
       style="display:inline;fill:none;stroke:#000000"
       transform="matrix(-1,0,0,1,179,558)" />
    <g
       style="display:inline"
       class="edge"
       id="g1278"
       transform="rotate(13,-2376.4479,680.57755)">
      <title
         id="title1272">N1-&gt;dot2</title>
      <path
         style="fill:none;stroke:#000000"
         id="path1274"
         d="m 57.028,-74.958 c 5.0907,7.6361 11.2475,16.8712 16.2887,24.4331"
         inkscape:connector-curvature="0" />
      <polygon
         style="fill:#000000;stroke:#000000"
         id="polygon1276"
         points="78.9414,-42.0879 70.4822,-48.4669 76.3065,-52.3499 " />
    </g>
    <g
       transform="rotate(13,-4356.3704,363.15429)"
       id="g1494"
       class="edge"
       style="display:inline">
      <title
         id="title1488">N1-&gt;dot2</title>
      <path
         inkscape:connector-curvature="0"
         d="m 57.028,-74.958 c 5.0907,7.6361 11.2475,16.8712 16.2887,24.4331"
         id="path1490"
         style="fill:none;stroke:#000000" />
      <polygon
         points="70.4822,-48.4669 76.3065,-52.3499 78.9414,-42.0879 "
         id="polygon1492"
         style="fill:#000000;stroke:#000000" />
    </g>
    <g
       style="display:inline"
       class="edge"
       id="g1502"
       transform="matrix(-0.97436995,0.22495101,0.22495102,0.97436995,108.01948,989.27763)">
      <title
         id="title1496">N1-&gt;dot2</title>
      <path
         style="fill:none;stroke:#000000"
         id="path1498"
         d="m 57.028,-74.958 c 5.0907,7.6361 11.2475,16.8712 16.2887,24.4331"
         inkscape:connector-curvature="0" />
      <polygon
         style="fill:#000000;stroke:#000000"
         id="polygon1500"
         points="76.3065,-52.3499 78.9414,-42.0879 70.4822,-48.4669 " />
    </g>
    <circle
       r="18"
       style="display:inline;fill:#ff0000;stroke:#000000;stroke-width:1;stroke-miterlimit:4;stroke-dasharray:none"
       id="circle1518"
       cy="920"
       cx="39" />
    <polygon
       transform="matrix(-1,0,0,1,59,998)"
       style="display:inline;fill:none;stroke:#000000"
       id="polygon1520"
       points="-11,0 11,0 0,-27 " />
    <circle
       r="18"
       style="display:inline;fill:#000000;stroke:#000000;stroke-width:1;stroke-miterlimit:4;stroke-dasharray:none;stroke-opacity:1"
       id="circle1522"
       cy="888"
       cx="79" />
    <circle
       r="18"
       cx="119"
       cy="920"
       id="circle1524"
       style="display:inline;fill:#ff0000;stroke:#000000;stroke-width:1" />
    <circle
       cx="159"
       cy="980"
       id="circle1532"
       style="display:inline;fill:#000000;stroke:#000000;stroke-width:1"
       r="18" />
    <circle
       cx="59"
       cy="974"
       id="circle1540"
       style="display:inline;fill:#000000;stroke:#000000;stroke-width:1.00005"
       r="7" />
    <polygon
       points="-11,0 11,0 0,-27 "
       id="polygon1542"
       style="display:inline;fill:none;stroke:#000000"
       transform="matrix(-1,0,0,1,99,998)" />
    <circle
       r="7"
       style="display:inline;fill:#000000;stroke:#000000;stroke-width:1.00005"
       id="circle1544"
       cy="974"
       cx="99" />
    <polygon
       points="0,-27 -11,0 11,0 "
       id="polygon1558"
       style="display:inline;fill:none;stroke:#000000"
       transform="matrix(-1,0,0,1,19,998)" />
    <circle
       r="7"
       style="display:inline;fill:#000000;stroke:#000000;stroke-width:1.00005"
       id="circle1560"
       cy="974"
       cx="19" />
    <g
       style="display:inline"
       class="edge"
       id="g1570"
       transform="matrix(-0.97436995,0.22495101,0.22495102,0.97436995,225.86948,1052.0276)">
      <title
         id="title1564">N1-&gt;dot2</title>
      <path
         style="fill:none;stroke:#000000"
         id="path1566"
         d="m 57.028,-74.958 c 5.0907,7.6361 11.2475,16.8712 16.2887,24.4331"
         inkscape:connector-curvature="0" />
      <polygon
         style="fill:#000000;stroke:#000000"
         id="polygon1568"
         points="70.4822,-48.4669 76.3065,-52.3499 78.9414,-42.0879 " />
    </g>
    <polygon
       points="0,-27 -11,0 11,0 "
       id="polygon1572"
       style="display:inline;fill:none;stroke:#000000"
       transform="matrix(-1,0,0,1,139,1058)" />
    <polygon
       transform="matrix(-1,0,0,1,179,1058)"
       style="display:inline;fill:none;stroke:#000000"
       id="polygon1574"
       points="-11,0 11,0 0,-27 " />
    <g
       transform="rotate(13,-4570.6697,930.57755)"
       id="g1582"
       class="edge"
       style="display:inline">
      <title
         id="title1576">N1-&gt;dot2</title>
      <path
         inkscape:connector-curvature="0"
         d="m 57.028,-74.958 c 5.0907,7.6361 11.2475,16.8712 16.2887,24.4331"
         id="path1578"
         style="fill:none;stroke:#000000" />
      <polygon
         points="78.9414,-42.0879 70.4822,-48.4669 76.3065,-52.3499 "
         id="polygon1580"
         style="fill:#000000;stroke:#000000" />
    </g>
    <path
       style="display:inline;fill:none;stroke:#000000;stroke-width:1;stroke-miterlimit:4;stroke-dasharray:none"
       id="path937"
       d="m 66.43274,879.11799 c 11.73812,8.88201 25.9336,19.62328 37.5583,28.41925"
       inkscape:connector-curvature="0" />
    <polygon
       style="display:inline;fill:#000000;stroke:#000000;stroke-width:0.800777;stroke-miterlimit:4;stroke-dasharray:none"
       id="polygon939"
       points="112.307,-106.35 114.941,-96.0879 106.482,-102.467 "
       transform="matrix(1.0056016,-0.31218944,0.31218946,1.0056016,18.37827,1040.0374)" />
    <circle
       r="18"
       style="display:inline;fill:#ff0000;stroke:#000000;stroke-width:1;stroke-miterlimit:4;stroke-dasharray:none"
       id="circle967"
       cy="700"
       cx="39" />
    <polygon
       transform="matrix(-1,0,0,1,59,778)"
       style="display:inline;fill:none;stroke:#000000"
       id="polygon969"
       points="11,0 0,-27 -11,0 " />
    <circle
       r="18"
       style="display:inline;fill:#ff0000;stroke:#000000;stroke-width:1;stroke-miterlimit:4;stroke-dasharray:none;stroke-opacity:1"
       id="circle971"
       cy="668"
       cx="79" />
    <circle
       r="18"
       cx="119"
       cy="700"
       id="circle973"
       style="display:inline;fill:#000000;stroke:#000000;stroke-width:1" />
    <circle
       cx="159"
       cy="760"
       id="circle975"
       style="display:inline;fill:#000000;stroke:#000000;stroke-width:1"
       r="18" />
    <polygon
       points="11,0 0,-27 -11,0 "
       id="polygon977"
       style="display:inline;fill:none;stroke:#000000"
       transform="matrix(-1,0,0,1,99,778)" />
    <polygon
       points="-11,0 11,0 0,-27 "
       id="polygon979"
       style="display:inline;fill:none;stroke:#000000"
       transform="matrix(-1,0,0,1,19,778)" />
    <polygon
       points="-11,0 11,0 0,-27 "
       id="polygon981"
       style="display:inline;fill:none;stroke:#000000"
       transform="matrix(-1,0,0,1,139,838)" />
    <polygon
       transform="matrix(-1,0,0,1,179,838)"
       style="display:inline;fill:none;stroke:#000000"
       id="polygon983"
       points="11,0 0,-27 -11,0 " />
  </g>
  <g
     inkscape:groupmode="layer"
     id="layer3"
     inkscape:label="text"
     style="display:inline"
     transform="translate(-2.60077,-424)">
    <g
       aria-label="P"
       id="text49-8-6"
       style="font-style:normal;font-variant:normal;font-weight:bold;font-stretch:normal;font-size:14px;line-height:0%;font-family:Arial;-inkscape-font-specification:'Arial Bold';text-anchor:middle;display:inline;fill:#ffffff;stroke-width:1">
      <path
         d="m 75.984756,484.00998 v -10.02149 h 3.247071 q 1.845703,0 2.40625,0.1504 0.861328,0.22558 1.442383,0.98437 0.581054,0.75195 0.581054,1.94824 0,0.92285 -0.334961,1.55176 -0.334961,0.62891 -0.854492,0.99121 -0.512695,0.35547 -1.045898,0.47168 -0.72461,0.14356 -2.098633,0.14356 h -1.319336 v 3.78027 z m 2.023438,-8.32617 v 2.84375 h 1.107422 q 1.196289,0 1.599609,-0.15723 0.403321,-0.15723 0.628906,-0.49219 0.232422,-0.33496 0.232422,-0.77929 0,-0.54688 -0.321289,-0.90235 -0.321289,-0.35547 -0.813476,-0.44433 -0.362305,-0.0684 -1.456055,-0.0684 z"
         style="font-style:normal;font-variant:normal;font-weight:bold;font-stretch:normal;font-size:14px;line-height:0%;font-family:Arial;-inkscape-font-specification:'Arial Bold';text-anchor:middle;display:inline;fill:#ffffff;stroke-width:1"
         id="path1100" />
    </g>
    <g
       aria-label="N"
       id="text21-4-6"
       style="font-style:normal;font-variant:normal;font-weight:bold;font-stretch:normal;font-size:14px;line-height:0%;font-family:Arial;-inkscape-font-specification:'Arial Bold';text-anchor:middle;display:inline;fill:#ffffff;stroke-width:1">
      <path
         d="m 36.116848,544.02032 v -10.02148 h 1.96875 l 4.101562,6.69238 v -6.69238 h 1.879883 v 10.02148 H 42.03677 l -4.040039,-6.53515 v 6.53515 z"
         style="font-style:normal;font-variant:normal;font-weight:bold;font-stretch:normal;font-size:14px;line-height:0%;font-family:Arial;-inkscape-font-specification:'Arial Bold';text-anchor:middle;display:inline;fill:#ffffff;stroke-width:1"
         id="path1097" />
    </g>
    <g
       aria-label="G"
       id="text4278"
       style="font-style:normal;font-variant:normal;font-weight:bold;font-stretch:normal;font-size:14px;line-height:0%;font-family:Arial;-inkscape-font-specification:'Arial Bold';text-anchor:middle;display:inline;fill:#ffffff;stroke-width:1">
      <path
         d="m 119.83585,448.73593 v -1.68848 h 4.36133 v 3.99219 q -0.63574,0.61524 -1.8457,1.08692 -1.20313,0.46484 -2.44043,0.46484 -1.57227,0 -2.74121,-0.65625 -1.16895,-0.66309 -1.75684,-1.88672 -0.58789,-1.23047 -0.58789,-2.67285 0,-1.56543 0.65625,-2.78223 0.65625,-1.21679 1.9209,-1.86621 0.96387,-0.49902 2.39941,-0.49902 1.86621,0 2.91211,0.78613 1.05274,0.7793 1.35352,2.16016 l -2.00977,0.37597 q -0.21191,-0.73828 -0.7998,-1.1621 -0.58106,-0.43067 -1.45606,-0.43067 -1.32617,0 -2.1123,0.84082 -0.7793,0.84082 -0.7793,2.49512 0,1.78418 0.79297,2.67969 0.79297,0.88867 2.07813,0.88867 0.63574,0 1.27148,-0.2461 0.64258,-0.25293 1.10059,-0.60839 v -1.27149 z"
         style="font-style:normal;font-variant:normal;font-weight:bold;font-stretch:normal;font-size:14px;line-height:0%;font-family:Arial;-inkscape-font-specification:'Arial Bold';text-anchor:middle;display:inline;fill:#ffffff;stroke-width:1"
         id="path1094" />
    </g>
    <g
       aria-label="U"
       id="text148"
       style="font-style:normal;font-variant:normal;font-weight:bold;font-stretch:normal;font-size:14px;line-height:0%;font-family:Arial;-inkscape-font-specification:'Arial Bold';text-anchor:middle;display:inline;fill:#ffffff;stroke-width:1">
      <path
         d="m 155.26416,473.61279 h 2.02344 v 5.42774 q 0,1.29199 0.0752,1.6748 0.12989,0.61524 0.61524,0.99121 0.49218,0.36914 1.33984,0.36914 0.86133,0 1.29883,-0.34863 0.4375,-0.35547 0.52637,-0.86816 0.0889,-0.5127 0.0889,-1.70215 v -5.54395 h 2.02344 v 5.26367 q 0,1.80469 -0.16406,2.54981 -0.16406,0.74512 -0.6084,1.25781 -0.4375,0.5127 -1.17578,0.82031 -0.73828,0.30079 -1.92774,0.30079 -1.43554,0 -2.18066,-0.32813 -0.73828,-0.33496 -1.16894,-0.86133 -0.43067,-0.5332 -0.56739,-1.11426 -0.19824,-0.86132 -0.19824,-2.54296 z"
         style="font-style:normal;font-variant:normal;font-weight:bold;font-stretch:normal;font-size:14px;line-height:0%;font-family:Arial;-inkscape-font-specification:'Arial Bold';text-anchor:middle;display:inline;fill:#ffffff;stroke-width:1"
         id="path1091" />
    </g>
    <g
       aria-label="P"
       id="text1548"
       style="font-style:normal;font-variant:normal;font-weight:bold;font-stretch:normal;font-size:14px;line-height:0%;font-family:Arial;-inkscape-font-specification:'Arial Bold';text-anchor:middle;display:inline;fill:#ffffff;stroke-width:1">
      <path
         d="m 75.984756,892.01001 v -10.02148 h 3.247071 q 1.845703,0 2.40625,0.15039 0.861328,0.22558 1.442383,0.98437 0.581054,0.75195 0.581054,1.94824 0,0.92285 -0.334961,1.55176 -0.334961,0.62891 -0.854492,0.99121 -0.512695,0.35547 -1.045898,0.47168 -0.72461,0.14356 -2.098633,0.14356 h -1.319336 v 3.78027 z m 2.023438,-8.32617 v 2.84375 h 1.107422 q 1.196289,0 1.599609,-0.15723 0.403321,-0.15723 0.628906,-0.49219 0.232422,-0.33496 0.232422,-0.77929 0,-0.54688 -0.321289,-0.90235 -0.321289,-0.35547 -0.813476,-0.44433 -0.362305,-0.0684 -1.456055,-0.0684 z"
         style="font-style:normal;font-variant:normal;font-weight:bold;font-stretch:normal;font-size:14px;line-height:0%;font-family:Arial;-inkscape-font-specification:'Arial Bold';text-anchor:middle;display:inline;fill:#ffffff;stroke-width:1"
         id="path1088" />
    </g>
    <g
       aria-label="N"
       id="text1550"
       style="font-style:normal;font-variant:normal;font-weight:bold;font-stretch:normal;font-size:14px;line-height:0%;font-family:Arial;-inkscape-font-specification:'Arial Bold';text-anchor:middle;display:inline;fill:#ffffff;stroke-width:1">
      <path
         d="m 36.116848,924.02032 v -10.02148 h 1.96875 l 4.101562,6.69238 v -6.69238 h 1.879883 v 10.02148 H 42.03677 l -4.040039,-6.53515 v 6.53515 z"
         style="font-style:normal;font-variant:normal;font-weight:bold;font-stretch:normal;font-size:14px;line-height:0%;font-family:Arial;-inkscape-font-specification:'Arial Bold';text-anchor:middle;display:inline;fill:#ffffff;stroke-width:1"
         id="path1085" />
    </g>
    <g
       aria-label="G"
       id="text1552"
       style="font-style:normal;font-variant:normal;font-weight:bold;font-stretch:normal;font-size:14px;line-height:0%;font-family:Arial;-inkscape-font-specification:'Arial Bold';text-anchor:middle;display:inline;fill:#ffffff;stroke-width:1">
      <path
         d="m 119.83585,920.73596 v -1.68847 h 4.36133 v 3.99218 q -0.63574,0.61524 -1.8457,1.08692 -1.20313,0.46484 -2.44043,0.46484 -1.57227,0 -2.74121,-0.65625 -1.16895,-0.66309 -1.75684,-1.88672 -0.58789,-1.23047 -0.58789,-2.67285 0,-1.56543 0.65625,-2.78223 0.65625,-1.21679 1.9209,-1.86621 0.96387,-0.49902 2.39941,-0.49902 1.86621,0 2.91211,0.78613 1.05274,0.7793 1.35352,2.16016 l -2.00977,0.37598 q -0.21191,-0.73829 -0.7998,-1.16211 -0.58106,-0.43067 -1.45606,-0.43067 -1.32617,0 -2.1123,0.84082 -0.7793,0.84082 -0.7793,2.49512 0,1.78418 0.79297,2.67969 0.79297,0.88867 2.07813,0.88867 0.63574,0 1.27148,-0.2461 0.64258,-0.25292 1.10059,-0.60839 v -1.27149 z"
         style="font-style:normal;font-variant:normal;font-weight:bold;font-stretch:normal;font-size:14px;line-height:0%;font-family:Arial;-inkscape-font-specification:'Arial Bold';text-anchor:middle;display:inline;fill:#ffffff;stroke-width:1"
         id="path1082" />
    </g>
    <g
       aria-label="U"
       id="text1554"
       style="font-style:normal;font-variant:normal;font-weight:bold;font-stretch:normal;font-size:14px;line-height:0%;font-family:Arial;-inkscape-font-specification:'Arial Bold';text-anchor:middle;display:inline;fill:#ffffff;stroke-width:1">
      <path
         d="m 155.26416,973.61279 h 2.02344 v 5.42774 q 0,1.29199 0.0752,1.6748 0.12989,0.61524 0.61524,0.99121 0.49218,0.36914 1.33984,0.36914 0.86133,0 1.29883,-0.34863 0.4375,-0.35547 0.52637,-0.86816 0.0889,-0.5127 0.0889,-1.70215 v -5.54395 h 2.02344 v 5.26367 q 0,1.80469 -0.16406,2.54981 -0.16406,0.74512 -0.6084,1.25781 -0.4375,0.5127 -1.17578,0.82031 -0.73828,0.30079 -1.92774,0.30079 -1.43554,0 -2.18066,-0.32813 -0.73828,-0.33496 -1.16894,-0.86133 -0.43067,-0.5332 -0.56739,-1.11426 -0.19824,-0.86132 -0.19824,-2.54296 z"
         style="font-style:normal;font-variant:normal;font-weight:bold;font-stretch:normal;font-size:14px;line-height:0%;font-family:Arial;-inkscape-font-specification:'Arial Bold';text-anchor:middle;display:inline;fill:#ffffff;stroke-width:1"
         id="path1079" />
    </g>
    <g
       aria-label="2"
       id="text955"
       style="font-style:normal;font-variant:normal;font-weight:bold;font-stretch:normal;font-size:14px;line-height:0%;font-family:Arial;-inkscape-font-specification:'Arial Bold';text-anchor:middle;display:inline;stroke-width:1">
      <path
         d="m 62.918118,772.39319 v 1.78418 h -6.733399 q 0.109375,-1.01172 0.65625,-1.91406 0.546875,-0.90918 2.160156,-2.40625 1.298828,-1.20997 1.592774,-1.64063 0.396484,-0.59473 0.396484,-1.17578 0,-0.64258 -0.348633,-0.98438 -0.341797,-0.34863 -0.950195,-0.34863 -0.601562,0 -0.957031,0.36231 -0.355469,0.3623 -0.410156,1.20312 l -1.914063,-0.1914 q 0.170898,-1.58594 1.073242,-2.27637 0.902344,-0.69043 2.25586,-0.69043 1.483398,0 2.331054,0.7998 0.847657,0.79981 0.847657,1.98926 0,0.67676 -0.246094,1.29199 -0.239258,0.6084 -0.765625,1.27832 -0.348633,0.44434 -1.257813,1.27832 -0.909179,0.83399 -1.155273,1.10743 -0.239258,0.27343 -0.389649,0.5332 z"
         style="font-style:normal;font-variant:normal;font-weight:bold;font-stretch:normal;font-size:14px;line-height:0%;font-family:Arial;-inkscape-font-specification:'Arial Bold';text-anchor:middle;display:inline;stroke-width:1"
         id="path1076" />
    </g>
    <g
       aria-label="3"
       id="text957"
       style="font-style:normal;font-variant:normal;font-weight:bold;font-stretch:normal;font-size:14px;line-height:0%;font-family:Arial;-inkscape-font-specification:'Arial Bold';text-anchor:middle;display:inline;stroke-width:1">
      <path
         d="m 96.352707,771.51819 1.859375,-0.22559 q 0.08887,0.71094 0.478516,1.08692 0.389648,0.37597 0.943359,0.37597 0.594723,0 0.998043,-0.45117 0.41016,-0.45117 0.41016,-1.2168 0,-0.7246 -0.38965,-1.14843 -0.38965,-0.42383 -0.950194,-0.42383 -0.36914,0 -0.881836,0.14355 l 0.211914,-1.56543 q 0.779297,0.0205 1.189456,-0.33496 0.41015,-0.3623 0.41015,-0.95703 0,-0.50586 -0.30078,-0.80664 -0.30078,-0.30078 -0.799802,-0.30078 -0.492188,0 -0.84082,0.3418 -0.348633,0.34179 -0.423829,0.99804 l -1.770507,-0.30078 q 0.18457,-0.90918 0.553711,-1.44922 0.375976,-0.54687 1.039062,-0.85449 0.669922,-0.31445 1.49707,-0.31445 1.415035,0 2.269535,0.90234 0.7041,0.73828 0.7041,1.66797 0,1.31934 -1.44238,2.10547 0.86132,0.18457 1.37402,0.82715 0.51953,0.64258 0.51953,1.55176 0,1.31933 -0.96387,2.24902 -0.96386,0.92969 -2.399411,0.92969 -1.360352,0 -2.25586,-0.7793 -0.895507,-0.78613 -1.039062,-2.05078 z"
         style="font-style:normal;font-variant:normal;font-weight:bold;font-stretch:normal;font-size:14px;line-height:0%;font-family:Arial;-inkscape-font-specification:'Arial Bold';text-anchor:middle;display:inline;stroke-width:1"
         id="path1073" />
    </g>
    <g
       aria-label="4"
       id="text108"
       style="font-style:normal;font-variant:normal;font-weight:bold;font-stretch:normal;font-size:14px;line-height:0%;font-family:Arial;-inkscape-font-specification:'Arial Bold';text-anchor:middle;display:inline;stroke-width:1">
      <path
         d="m 140.18768,834.17737 v -2.0166 h -4.10156 v -1.68164 l 4.34766,-6.36426 h 1.61328 v 6.35742 h 1.24414 v 1.68848 h -1.24414 v 2.0166 z m 0,-3.70508 v -3.4248 l -2.30371,3.4248 z"
         style="font-style:normal;font-variant:normal;font-weight:bold;font-stretch:normal;font-size:14px;line-height:0%;font-family:Arial;-inkscape-font-specification:'Arial Bold';text-anchor:middle;display:inline;stroke-width:1"
         id="path1070" />
    </g>
    <g
       aria-label="2"
       id="text1019"
       style="font-style:normal;font-variant:normal;font-weight:bold;font-stretch:normal;font-size:14px;line-height:0%;font-family:Arial;-inkscape-font-specification:'Arial Bold';text-anchor:middle;display:inline;stroke-width:1">
      <path
         d="m 62.918118,612.39319 v 1.78418 h -6.733399 q 0.109375,-1.01172 0.65625,-1.91406 0.546875,-0.90918 2.160156,-2.40625 1.298828,-1.20997 1.592774,-1.64063 0.396484,-0.59473 0.396484,-1.17578 0,-0.64258 -0.348633,-0.98438 -0.341797,-0.34863 -0.950195,-0.34863 -0.601562,0 -0.957031,0.36231 -0.355469,0.3623 -0.410156,1.20312 l -1.914063,-0.1914 q 0.170898,-1.58594 1.073242,-2.27637 0.902344,-0.69043 2.25586,-0.69043 1.483398,0 2.331054,0.7998 0.847657,0.79981 0.847657,1.98926 0,0.67676 -0.246094,1.29199 -0.239258,0.6084 -0.765625,1.27832 -0.348633,0.44434 -1.257813,1.27832 -0.909179,0.83399 -1.155273,1.10743 -0.239258,0.27343 -0.389649,0.5332 z"
         style="font-style:normal;font-variant:normal;font-weight:bold;font-stretch:normal;font-size:14px;line-height:0%;font-family:Arial;-inkscape-font-specification:'Arial Bold';text-anchor:middle;display:inline;stroke-width:1"
         id="path1067" />
    </g>
    <g
       aria-label="3"
       id="text1029"
       style="font-style:normal;font-variant:normal;font-weight:bold;font-stretch:normal;font-size:14px;line-height:0%;font-family:Arial;-inkscape-font-specification:'Arial Bold';text-anchor:middle;display:inline;stroke-width:1">
      <path
         d="m 96.352707,551.51819 1.859375,-0.22559 q 0.08887,0.71094 0.478516,1.08692 0.389648,0.37597 0.943359,0.37597 0.594723,0 0.998043,-0.45117 0.41016,-0.45117 0.41016,-1.2168 0,-0.7246 -0.38965,-1.14843 -0.38965,-0.42383 -0.950194,-0.42383 -0.36914,0 -0.881836,0.14355 l 0.211914,-1.56543 q 0.779297,0.0205 1.189456,-0.33496 0.41015,-0.3623 0.41015,-0.95703 0,-0.50586 -0.30078,-0.80664 -0.30078,-0.30078 -0.799802,-0.30078 -0.492188,0 -0.84082,0.3418 -0.348633,0.34179 -0.423829,0.99804 l -1.770507,-0.30078 q 0.18457,-0.90918 0.553711,-1.44922 0.375976,-0.54687 1.039062,-0.85449 0.669922,-0.31445 1.49707,-0.31445 1.415035,0 2.269535,0.90234 0.7041,0.73828 0.7041,1.66797 0,1.31934 -1.44238,2.10547 0.86132,0.18457 1.37402,0.82715 0.51953,0.64258 0.51953,1.55176 0,1.31933 -0.96387,2.24902 -0.96386,0.92969 -2.399411,0.92969 -1.360352,0 -2.25586,-0.7793 -0.895507,-0.78613 -1.039062,-2.05078 z"
         style="font-style:normal;font-variant:normal;font-weight:bold;font-stretch:normal;font-size:14px;line-height:0%;font-family:Arial;-inkscape-font-specification:'Arial Bold';text-anchor:middle;display:inline;stroke-width:1"
         id="path1064" />
    </g>
    <g
       aria-label="4"
       id="text1031"
       style="font-style:normal;font-variant:normal;font-weight:bold;font-stretch:normal;font-size:14px;line-height:0%;font-family:Arial;-inkscape-font-specification:'Arial Bold';text-anchor:middle;display:inline;stroke-width:1">
      <path
         d="m 140.18768,554.17737 v -2.0166 h -4.10156 v -1.68164 l 4.34766,-6.36426 h 1.61328 v 6.35742 h 1.24414 v 1.68848 h -1.24414 v 2.0166 z m 0,-3.70508 v -3.4248 l -2.30371,3.4248 z"
         style="font-style:normal;font-variant:normal;font-weight:bold;font-stretch:normal;font-size:14px;line-height:0%;font-family:Arial;-inkscape-font-specification:'Arial Bold';text-anchor:middle;display:inline;stroke-width:1"
         id="path1061" />
    </g>
    <g
       aria-label="P"
       id="text985"
       style="font-style:normal;font-variant:normal;font-weight:bold;font-stretch:normal;font-size:14px;line-height:0%;font-family:Arial;-inkscape-font-specification:'Arial Bold';text-anchor:middle;display:inline;fill:#ffffff;stroke-width:1">
      <path
         d="m 75.984756,672.01001 v -10.02148 h 3.247071 q 1.845703,0 2.40625,0.15039 0.861328,0.22558 1.442383,0.98437 0.581054,0.75195 0.581054,1.94824 0,0.92285 -0.334961,1.55176 -0.334961,0.62891 -0.854492,0.99121 -0.512695,0.35547 -1.045898,0.47168 -0.72461,0.14356 -2.098633,0.14356 h -1.319336 v 3.78027 z m 2.023438,-8.32617 v 2.84375 h 1.107422 q 1.196289,0 1.599609,-0.15723 0.403321,-0.15723 0.628906,-0.49219 0.232422,-0.33496 0.232422,-0.77929 0,-0.54688 -0.321289,-0.90235 -0.321289,-0.35547 -0.813476,-0.44433 -0.362305,-0.0684 -1.456055,-0.0684 z"
         style="font-style:normal;font-variant:normal;font-weight:bold;font-stretch:normal;font-size:14px;line-height:0%;font-family:Arial;-inkscape-font-specification:'Arial Bold';text-anchor:middle;display:inline;fill:#ffffff;stroke-width:1"
         id="path1058" />
    </g>
    <g
       aria-label="N"
       id="text987"
       style="font-style:normal;font-variant:normal;font-weight:bold;font-stretch:normal;font-size:14px;line-height:0%;font-family:Arial;-inkscape-font-specification:'Arial Bold';text-anchor:middle;display:inline;fill:#ffffff;stroke-width:1">
      <path
         d="m 36.116848,704.02032 v -10.02148 h 1.96875 l 4.101562,6.69238 v -6.69238 h 1.879883 v 10.02148 H 42.03677 l -4.040039,-6.53515 v 6.53515 z"
         style="font-style:normal;font-variant:normal;font-weight:bold;font-stretch:normal;font-size:14px;line-height:0%;font-family:Arial;-inkscape-font-specification:'Arial Bold';text-anchor:middle;display:inline;fill:#ffffff;stroke-width:1"
         id="path1055" />
    </g>
    <g
       aria-label="G"
       id="text989"
       style="font-style:normal;font-variant:normal;font-weight:bold;font-stretch:normal;font-size:14px;line-height:0%;font-family:Arial;-inkscape-font-specification:'Arial Bold';text-anchor:middle;display:inline;fill:#ffffff;stroke-width:1">
      <path
         d="m 119.83585,700.73596 v -1.68847 h 4.36133 v 3.99218 q -0.63574,0.61524 -1.8457,1.08692 -1.20313,0.46484 -2.44043,0.46484 -1.57227,0 -2.74121,-0.65625 -1.16895,-0.66309 -1.75684,-1.88672 -0.58789,-1.23047 -0.58789,-2.67285 0,-1.56543 0.65625,-2.78223 0.65625,-1.21679 1.9209,-1.86621 0.96387,-0.49902 2.39941,-0.49902 1.86621,0 2.91211,0.78613 1.05274,0.7793 1.35352,2.16016 l -2.00977,0.37598 q -0.21191,-0.73829 -0.7998,-1.16211 -0.58106,-0.43067 -1.45606,-0.43067 -1.32617,0 -2.1123,0.84082 -0.7793,0.84082 -0.7793,2.49512 0,1.78418 0.79297,2.67969 0.79297,0.88867 2.07813,0.88867 0.63574,0 1.27148,-0.2461 0.64258,-0.25292 1.10059,-0.60839 v -1.27149 z"
         style="font-style:normal;font-variant:normal;font-weight:bold;font-stretch:normal;font-size:14px;line-height:0%;font-family:Arial;-inkscape-font-specification:'Arial Bold';text-anchor:middle;display:inline;fill:#ffffff;stroke-width:1"
         id="path1052" />
    </g>
    <g
       aria-label="U"
       id="text991"
       style="font-style:normal;font-variant:normal;font-weight:bold;font-stretch:normal;font-size:14px;line-height:0%;font-family:Arial;-inkscape-font-specification:'Arial Bold';text-anchor:middle;display:inline;fill:#ffffff;stroke-width:1">
      <path
         d="m 155.26416,753.61279 h 2.02344 v 5.42774 q 0,1.29199 0.0752,1.6748 0.12989,0.61524 0.61524,0.99121 0.49218,0.36914 1.33984,0.36914 0.86133,0 1.29883,-0.34863 0.4375,-0.35547 0.52637,-0.86816 0.0889,-0.5127 0.0889,-1.70215 v -5.54395 h 2.02344 v 5.26367 q 0,1.80469 -0.16406,2.54981 -0.16406,0.74512 -0.6084,1.25781 -0.4375,0.5127 -1.17578,0.82031 -0.73828,0.30079 -1.92774,0.30079 -1.43554,0 -2.18066,-0.32813 -0.73828,-0.33496 -1.16894,-0.86133 -0.43067,-0.5332 -0.56739,-1.11426 -0.19824,-0.86132 -0.19824,-2.54296 z"
         style="font-style:normal;font-variant:normal;font-weight:bold;font-stretch:normal;font-size:14px;line-height:0%;font-family:Arial;-inkscape-font-specification:'Arial Bold';text-anchor:middle;display:inline;fill:#ffffff;stroke-width:1"
         id="path1049" />
    </g>
  </g>
</svg>
