<?xml version="1.0" encoding="UTF-8" standalone="no"?>
<svg
   xmlns:dc="http://purl.org/dc/elements/1.1/"
   xmlns:cc="http://creativecommons.org/ns#"
   xmlns:rdf="http://www.w3.org/1999/02/22-rdf-syntax-ns#"
   xmlns:svg="http://www.w3.org/2000/svg"
   xmlns="http://www.w3.org/2000/svg"
   xmlns:sodipodi="http://sodipodi.sourceforge.net/DTD/sodipodi-0.dtd"
   xmlns:inkscape="http://www.inkscape.org/namespaces/inkscape"
   width="127.75562"
   height="639"
   viewBox="0 0 127.7556 639"
   id="svg2"
   version="1.1"
   inkscape:version="1.0.2-2 (e86c870879, 2021-01-15)"
   sodipodi:docname="Red-black_tree_insert_case_D0rot.svg"
   inkscape:export-filename=".\Red-black_tree_insert_case_Cr.png"
   inkscape:export-xdpi="72"
   inkscape:export-ydpi="72">
  <metadata
     id="metadata286">
    <rdf:RDF>
      <cc:Work
         rdf:about="">
        <dc:format>image/svg+xml</dc:format>
        <dc:type
           rdf:resource="http://purl.org/dc/dcmitype/StillImage" />
        <dc:title></dc:title>
      </cc:Work>
    </rdf:RDF>
  </metadata>
  <defs
     id="defs284" />
  <sodipodi:namedview
     pagecolor="#ffffff"
     bordercolor="#666666"
     borderopacity="1"
     objecttolerance="10"
     gridtolerance="10"
     guidetolerance="10"
     inkscape:pageopacity="0"
     inkscape:pageshadow="2"
     inkscape:window-width="990"
     inkscape:window-height="911"
     id="namedview282"
     showgrid="false"
     inkscape:zoom="1"
     inkscape:cx="60.369181"
     inkscape:cy="347.20575"
     inkscape:window-x="1017"
     inkscape:window-y="27"
     inkscape:window-maximized="0"
     inkscape:current-layer="layer3"
     borderlayer="true"
     fit-margin-top="0"
     fit-margin-left="0"
     fit-margin-right="0"
     fit-margin-bottom="0"
     inkscape:document-rotation="0" />
  <g
     inkscape:groupmode="layer"
     id="layer2"
     inkscape:label="corners"
     transform="translate(-14,-424)"
     style="display:none">
    <rect
       style="color:#000000;clip-rule:nonzero;display:inline;overflow:visible;visibility:visible;opacity:1;isolation:auto;mix-blend-mode:normal;color-interpolation:sRGB;color-interpolation-filters:linearRGB;solid-color:#000000;solid-opacity:1;fill:#808080;fill-opacity:1;fill-rule:nonzero;stroke:#000000;stroke-width:4;stroke-linecap:butt;stroke-linejoin:miter;stroke-miterlimit:4;stroke-dasharray:none;stroke-dashoffset:0;stroke-opacity:1;color-rendering:auto;image-rendering:auto;shape-rendering:auto;text-rendering:auto;enable-background:accumulate"
       id="rect297"
       width="3.9999998"
       height="4"
       x="16"
       y="426" />
    <rect
       style="color:#000000;clip-rule:nonzero;display:inline;overflow:visible;visibility:visible;opacity:1;isolation:auto;mix-blend-mode:normal;color-interpolation:sRGB;color-interpolation-filters:linearRGB;solid-color:#000000;solid-opacity:1;fill:#808080;fill-opacity:1;fill-rule:nonzero;stroke:#000000;stroke-width:4;stroke-linecap:butt;stroke-linejoin:miter;stroke-miterlimit:4;stroke-dasharray:none;stroke-dashoffset:0;stroke-opacity:1;color-rendering:auto;image-rendering:auto;shape-rendering:auto;text-rendering:auto;enable-background:accumulate"
       id="rect299"
       width="3.9999998"
       height="4"
       x="135.75562"
       y="1057" />
  </g>
  <g
     inkscape:groupmode="layer"
     id="layer1"
     inkscape:label="all"
     transform="translate(-14,-424)"
     style="display:inline">
    <path
       style="display:inline;fill:none;stroke:#000000;stroke-width:1;stroke-miterlimit:4;stroke-dasharray:none"
       id="path882"
       d="m 91.562887,660.63443 c -11.52367,8.59367 -25.45982,18.98723 -36.872134,27.49809"
       inkscape:connector-curvature="0" />
    <path
       inkscape:connector-curvature="0"
       d="m 66.807737,659.11799 c 11.73812,8.88201 25.9336,19.62328 37.558303,28.41925"
       id="path884"
       style="display:inline;fill:none;stroke:#000000;stroke-width:1;stroke-miterlimit:4;stroke-dasharray:none" />
    <path
       style="display:inline;fill:none;stroke:#000000;stroke-width:1;stroke-miterlimit:4;stroke-dasharray:none"
       id="path961"
       d="m 91.562887,880.63443 c -11.52367,8.59367 -25.45982,18.98723 -36.872134,27.49809"
       inkscape:connector-curvature="0" />
    <polygon
       style="display:inline;fill:#000000;stroke:#000000;stroke-width:0.800777;stroke-miterlimit:4;stroke-dasharray:none"
       id="polygon963"
       points="112.307,-106.35 114.941,-96.0879 106.482,-102.467 "
       transform="matrix(-0.99099098,-0.34704009,-0.34704011,0.99099101,135.00798,1043.7121)" />
    <path
       inkscape:connector-curvature="0"
       d="m 66.807737,879.11799 c 11.73812,8.88201 25.9336,19.62328 37.558303,28.41925"
       id="path967"
       style="display:inline;fill:none;stroke:#000000;stroke-width:1;stroke-miterlimit:4;stroke-dasharray:none" />
    <polygon
       transform="matrix(1,-0.32969206,0.32969208,1,21.061153,1041.5221)"
       points="106.482,-102.467 112.307,-106.35 114.941,-96.0879 "
       id="polygon969"
       style="display:inline;fill:#000000;stroke:#000000;stroke-width:0.800777;stroke-miterlimit:4;stroke-dasharray:none" />
    <g
       style="display:inline"
       id="g1384"
       transform="matrix(-1,0,0,1,117.28899,440)">
      <path
         style="fill:none;stroke:#000000;stroke-width:1;stroke-miterlimit:4;stroke-dasharray:none"
         id="path54-5-1"
         d="m 43.497522,44.743112 c 5.861222,9.138754 12.480648,19.461016 18.899576,29.469483"
         inkscape:connector-curvature="0" />
      <polygon
         transform="matrix(-1,0,0,1,125.59796,188.20385)"
         style="fill:#000000;stroke:#000000"
         id="polygon56-7-6"
         points="59.8592,-115.599 65.6836,-111.716 57.2244,-105.337 " />
    </g>
    <circle
       cx="39"
       cy="540"
       id="ellipse19-6-9"
       style="display:inline;fill:#ff0000;stroke:#0000ff;stroke-width:4;stroke-miterlimit:4;stroke-dasharray:none"
       r="16.5" />
    <circle
       cx="79"
       cy="480"
       id="ellipse47-2-6"
       style="display:inline;fill:#ff0000;stroke:#000000;stroke-width:1;stroke-miterlimit:4;stroke-dasharray:none;stroke-opacity:1"
       r="18" />
    <circle
       style="display:inline;fill:#000000;stroke:#000000;stroke-width:1"
       id="circle4258"
       cy="448"
       cx="119"
       r="18" />
    <path
       inkscape:connector-curvature="0"
       d="m 131.56289,440.63443 c -11.52367,8.59367 -25.45982,18.98723 -36.872137,27.49809"
       id="path4282"
       style="display:inline;fill:none;stroke:#000000;stroke-width:1;stroke-miterlimit:4;stroke-dasharray:none" />
    <polygon
       transform="matrix(-0.99689673,-0.32969206,-0.32969208,0.99689676,177.13414,602.17554)"
       points="114.941,-96.0879 106.482,-102.467 112.307,-106.35 "
       id="polygon4284"
       style="display:inline;fill:#000000;stroke:#000000;stroke-width:0.800777;stroke-miterlimit:4;stroke-dasharray:none" />
    <circle
       r="18"
       style="display:inline;fill:#ff0000;stroke:#000000;stroke-width:1;stroke-miterlimit:4;stroke-dasharray:none"
       id="circle1518"
       cy="920"
       cx="39" />
    <circle
       r="18"
       style="display:inline;fill:#000000;stroke:#000000;stroke-width:1;stroke-miterlimit:4;stroke-dasharray:none;stroke-opacity:1"
       id="circle1522"
       cy="888"
       cx="79" />
    <circle
       r="18"
       cx="119"
       cy="920"
       id="circle1524"
       style="display:inline;fill:#ff0000;stroke:#000000;stroke-width:1" />
    <circle
       r="18"
       style="display:inline;fill:#ff0000;stroke:#000000;stroke-width:1;stroke-miterlimit:4;stroke-dasharray:none"
       id="circle866"
       cy="700"
       cx="39" />
    <circle
       r="18"
       style="display:inline;fill:#ff0000;stroke:#000000;stroke-width:1;stroke-miterlimit:4;stroke-dasharray:none;stroke-opacity:1"
       id="circle868"
       cy="668"
       cx="79" />
    <circle
       r="18"
       cx="119"
       cy="700"
       id="circle870"
       style="display:inline;fill:#000000;stroke:#000000;stroke-width:1" />
    <polygon
       style="display:inline;fill:#000000;stroke:#000000;stroke-width:0.800777;stroke-miterlimit:4;stroke-dasharray:none"
       id="polygon878"
       points="114.941,-96.0879 106.482,-102.467 112.307,-106.35 "
       transform="matrix(-0.99099098,-0.34704009,-0.34704011,0.99099101,135.00798,823.7121)" />
    <polygon
       transform="matrix(1,-0.32969206,0.32969208,1,21.061153,821.5221)"
       points="112.307,-106.35 114.941,-96.0879 106.482,-102.467 "
       id="polygon880"
       style="display:inline;fill:#000000;stroke:#000000;stroke-width:0.800777;stroke-miterlimit:4;stroke-dasharray:none" />
  </g>
  <g
     inkscape:groupmode="layer"
     id="layer3"
     inkscape:label="text"
     style="display:inline"
     transform="translate(-14.60077,-424)">
    <g
       aria-label="P"
       id="text49-8-6"
       style="font-style:normal;font-variant:normal;font-weight:bold;font-stretch:normal;font-size:14px;line-height:0%;font-family:Arial;-inkscape-font-specification:'Arial Bold';text-anchor:middle;display:inline;fill:#ffffff;stroke-width:1">
      <path
         d="m 75.984756,484.00998 v -10.02149 h 3.247071 q 1.845703,0 2.40625,0.1504 0.861328,0.22558 1.442383,0.98437 0.581054,0.75195 0.581054,1.94824 0,0.92285 -0.334961,1.55176 -0.334961,0.62891 -0.854492,0.99121 -0.512695,0.35547 -1.045898,0.47168 -0.72461,0.14356 -2.098633,0.14356 h -1.319336 v 3.78027 z m 2.023438,-8.32617 v 2.84375 h 1.107422 q 1.196289,0 1.599609,-0.15723 0.403321,-0.15723 0.628906,-0.49219 0.232422,-0.33496 0.232422,-0.77929 0,-0.54688 -0.321289,-0.90235 -0.321289,-0.35547 -0.813476,-0.44433 -0.362305,-0.0684 -1.456055,-0.0684 z"
         style="font-style:normal;font-variant:normal;font-weight:bold;font-stretch:normal;font-size:14px;line-height:0%;font-family:Arial;-inkscape-font-specification:'Arial Bold';text-anchor:middle;display:inline;fill:#ffffff;stroke-width:1"
         id="path910" />
    </g>
    <g
       aria-label="N"
       id="text21-4-6"
       style="font-style:normal;font-variant:normal;font-weight:bold;font-stretch:normal;font-size:14px;line-height:0%;font-family:Arial;-inkscape-font-specification:'Arial Bold';text-anchor:middle;display:inline;fill:#ffffff;stroke-width:1">
      <path
         d="m 36.116848,544.02032 v -10.02148 h 1.96875 l 4.101562,6.69238 v -6.69238 h 1.879883 v 10.02148 H 42.03677 l -4.040039,-6.53515 v 6.53515 z"
         style="font-style:normal;font-variant:normal;font-weight:bold;font-stretch:normal;font-size:14px;line-height:0%;font-family:Arial;-inkscape-font-specification:'Arial Bold';text-anchor:middle;display:inline;fill:#ffffff;stroke-width:1"
         id="path907" />
    </g>
    <g
       aria-label="G"
       id="text4278"
       style="font-style:normal;font-variant:normal;font-weight:bold;font-stretch:normal;font-size:14px;line-height:0%;font-family:Arial;-inkscape-font-specification:'Arial Bold';text-anchor:middle;display:inline;fill:#ffffff;stroke-width:1">
      <path
         d="m 119.83585,448.73593 v -1.68848 h 4.36133 v 3.99219 q -0.63574,0.61524 -1.8457,1.08692 -1.20313,0.46484 -2.44043,0.46484 -1.57227,0 -2.74121,-0.65625 -1.16895,-0.66309 -1.75684,-1.88672 -0.58789,-1.23047 -0.58789,-2.67285 0,-1.56543 0.65625,-2.78223 0.65625,-1.21679 1.9209,-1.86621 0.96387,-0.49902 2.39941,-0.49902 1.86621,0 2.91211,0.78613 1.05274,0.7793 1.35352,2.16016 l -2.00977,0.37597 q -0.21191,-0.73828 -0.7998,-1.1621 -0.58106,-0.43067 -1.45606,-0.43067 -1.32617,0 -2.1123,0.84082 -0.7793,0.84082 -0.7793,2.49512 0,1.78418 0.79297,2.67969 0.79297,0.88867 2.07813,0.88867 0.63574,0 1.27148,-0.2461 0.64258,-0.25293 1.10059,-0.60839 v -1.27149 z"
         style="font-style:normal;font-variant:normal;font-weight:bold;font-stretch:normal;font-size:14px;line-height:0%;font-family:Arial;-inkscape-font-specification:'Arial Bold';text-anchor:middle;display:inline;fill:#ffffff;stroke-width:1"
         id="path904" />
    </g>
    <g
       aria-label="P"
       id="text1548"
       style="font-style:normal;font-variant:normal;font-weight:bold;font-stretch:normal;font-size:14px;line-height:0%;font-family:Arial;-inkscape-font-specification:'Arial Bold';text-anchor:middle;display:inline;fill:#ffffff;stroke-width:1">
      <path
         d="m 75.984756,892.01001 v -10.02148 h 3.247071 q 1.845703,0 2.40625,0.15039 0.861328,0.22558 1.442383,0.98437 0.581054,0.75195 0.581054,1.94824 0,0.92285 -0.334961,1.55176 -0.334961,0.62891 -0.854492,0.99121 -0.512695,0.35547 -1.045898,0.47168 -0.72461,0.14356 -2.098633,0.14356 h -1.319336 v 3.78027 z m 2.023438,-8.32617 v 2.84375 h 1.107422 q 1.196289,0 1.599609,-0.15723 0.403321,-0.15723 0.628906,-0.49219 0.232422,-0.33496 0.232422,-0.77929 0,-0.54688 -0.321289,-0.90235 -0.321289,-0.35547 -0.813476,-0.44433 -0.362305,-0.0684 -1.456055,-0.0684 z"
         style="font-style:normal;font-variant:normal;font-weight:bold;font-stretch:normal;font-size:14px;line-height:0%;font-family:Arial;-inkscape-font-specification:'Arial Bold';text-anchor:middle;display:inline;fill:#ffffff;stroke-width:1"
         id="path901" />
    </g>
    <g
       aria-label="N"
       id="text1550"
       style="font-style:normal;font-variant:normal;font-weight:bold;font-stretch:normal;font-size:14px;line-height:0%;font-family:Arial;-inkscape-font-specification:'Arial Bold';text-anchor:middle;display:inline;fill:#ffffff;stroke-width:1">
      <path
         d="m 36.116848,924.02032 v -10.02148 h 1.96875 l 4.101562,6.69238 v -6.69238 h 1.879883 v 10.02148 H 42.03677 l -4.040039,-6.53515 v 6.53515 z"
         style="font-style:normal;font-variant:normal;font-weight:bold;font-stretch:normal;font-size:14px;line-height:0%;font-family:Arial;-inkscape-font-specification:'Arial Bold';text-anchor:middle;display:inline;fill:#ffffff;stroke-width:1"
         id="path898" />
    </g>
    <g
       aria-label="G"
       id="text1552"
       style="font-style:normal;font-variant:normal;font-weight:bold;font-stretch:normal;font-size:14px;line-height:0%;font-family:Arial;-inkscape-font-specification:'Arial Bold';text-anchor:middle;display:inline;fill:#ffffff;stroke-width:1">
      <path
         d="m 119.83585,920.73596 v -1.68847 h 4.36133 v 3.99218 q -0.63574,0.61524 -1.8457,1.08692 -1.20313,0.46484 -2.44043,0.46484 -1.57227,0 -2.74121,-0.65625 -1.16895,-0.66309 -1.75684,-1.88672 -0.58789,-1.23047 -0.58789,-2.67285 0,-1.56543 0.65625,-2.78223 0.65625,-1.21679 1.9209,-1.86621 0.96387,-0.49902 2.39941,-0.49902 1.86621,0 2.91211,0.78613 1.05274,0.7793 1.35352,2.16016 l -2.00977,0.37598 q -0.21191,-0.73829 -0.7998,-1.16211 -0.58106,-0.43067 -1.45606,-0.43067 -1.32617,0 -2.1123,0.84082 -0.7793,0.84082 -0.7793,2.49512 0,1.78418 0.79297,2.67969 0.79297,0.88867 2.07813,0.88867 0.63574,0 1.27148,-0.2461 0.64258,-0.25292 1.10059,-0.60839 v -1.27149 z"
         style="font-style:normal;font-variant:normal;font-weight:bold;font-stretch:normal;font-size:14px;line-height:0%;font-family:Arial;-inkscape-font-specification:'Arial Bold';text-anchor:middle;display:inline;fill:#ffffff;stroke-width:1"
         id="path895" />
    </g>
    <g
       aria-label="P"
       id="text872"
       style="font-style:normal;font-variant:normal;font-weight:bold;font-stretch:normal;font-size:14px;line-height:0%;font-family:Arial;-inkscape-font-specification:'Arial Bold';text-anchor:middle;display:inline;fill:#ffffff;stroke-width:1">
      <path
         d="m 75.984756,672.01001 v -10.02148 h 3.247071 q 1.845703,0 2.40625,0.15039 0.861328,0.22558 1.442383,0.98437 0.581054,0.75195 0.581054,1.94824 0,0.92285 -0.334961,1.55176 -0.334961,0.62891 -0.854492,0.99121 -0.512695,0.35547 -1.045898,0.47168 -0.72461,0.14356 -2.098633,0.14356 h -1.319336 v 3.78027 z m 2.023438,-8.32617 v 2.84375 h 1.107422 q 1.196289,0 1.599609,-0.15723 0.403321,-0.15723 0.628906,-0.49219 0.232422,-0.33496 0.232422,-0.77929 0,-0.54688 -0.321289,-0.90235 -0.321289,-0.35547 -0.813476,-0.44433 -0.362305,-0.0684 -1.456055,-0.0684 z"
         style="font-style:normal;font-variant:normal;font-weight:bold;font-stretch:normal;font-size:14px;line-height:0%;font-family:Arial;-inkscape-font-specification:'Arial Bold';text-anchor:middle;display:inline;fill:#ffffff;stroke-width:1"
         id="path892" />
    </g>
    <g
       aria-label="N"
       id="text874"
       style="font-style:normal;font-variant:normal;font-weight:bold;font-stretch:normal;font-size:14px;line-height:0%;font-family:Arial;-inkscape-font-specification:'Arial Bold';text-anchor:middle;display:inline;fill:#ffffff;stroke-width:1">
      <path
         d="m 36.116848,704.02032 v -10.02148 h 1.96875 l 4.101562,6.69238 v -6.69238 h 1.879883 v 10.02148 H 42.03677 l -4.040039,-6.53515 v 6.53515 z"
         style="font-style:normal;font-variant:normal;font-weight:bold;font-stretch:normal;font-size:14px;line-height:0%;font-family:Arial;-inkscape-font-specification:'Arial Bold';text-anchor:middle;display:inline;fill:#ffffff;stroke-width:1"
         id="path889" />
    </g>
    <g
       aria-label="G"
       id="text876"
       style="font-style:normal;font-variant:normal;font-weight:bold;font-stretch:normal;font-size:14px;line-height:0%;font-family:Arial;-inkscape-font-specification:'Arial Bold';text-anchor:middle;display:inline;fill:#ffffff;stroke-width:1">
      <path
         d="m 119.83585,700.73596 v -1.68847 h 4.36133 v 3.99218 q -0.63574,0.61524 -1.8457,1.08692 -1.20313,0.46484 -2.44043,0.46484 -1.57227,0 -2.74121,-0.65625 -1.16895,-0.66309 -1.75684,-1.88672 -0.58789,-1.23047 -0.58789,-2.67285 0,-1.56543 0.65625,-2.78223 0.65625,-1.21679 1.9209,-1.86621 0.96387,-0.49902 2.39941,-0.49902 1.86621,0 2.91211,0.78613 1.05274,0.7793 1.35352,2.16016 l -2.00977,0.37598 q -0.21191,-0.73829 -0.7998,-1.16211 -0.58106,-0.43067 -1.45606,-0.43067 -1.32617,0 -2.1123,0.84082 -0.7793,0.84082 -0.7793,2.49512 0,1.78418 0.79297,2.67969 0.79297,0.88867 2.07813,0.88867 0.63574,0 1.27148,-0.2461 0.64258,-0.25292 1.10059,-0.60839 v -1.27149 z"
         style="font-style:normal;font-variant:normal;font-weight:bold;font-stretch:normal;font-size:14px;line-height:0%;font-family:Arial;-inkscape-font-specification:'Arial Bold';text-anchor:middle;display:inline;fill:#ffffff;stroke-width:1"
         id="path886" />
    </g>
  </g>
</svg>
